<svg width="71" height="73" viewBox="0 0 71 73" fill="none" xmlns="http://www.w3.org/2000/svg">
<g clip-path="url(#clip0)">
<path d="M8.87492 62.8214C-0.57472 52.6429 -7.93766e-05 39.936 -7.93766e-05 40.5195C-7.93766e-05 40.5195 1.21305 41.9458 1.4046 42.3348C1.65999 42.7238 3.06467 44.4742 4.0224 46.484C4.91629 48.1696 7.21485 56.6625 7.53409 57.8294C7.85334 58.6074 8.87492 62.8214 8.87492 62.8214Z" fill="#C31011"/>
<path d="M63.7852 39.4822C63.7852 57.4405 49.6746 73.0648 31.9884 73.0648C24.1988 73.0648 17.0478 70.2122 11.4929 65.5444C11.4929 65.5444 11.7483 65.2202 11.9398 65.1554C12.0675 65.0906 12.3229 64.8961 12.6422 63.6643C12.8976 62.4325 13.0253 61.7842 12.706 60.5524C12.3868 59.2557 10.2159 51.2167 10.2159 51.2167C10.2159 51.2167 9.83282 49.531 9.83282 49.0124C9.83282 48.4937 10.1521 47.7806 10.4713 47.6509C10.7906 47.4564 11.429 47.262 11.9398 47.5213C12.4506 47.7806 13.153 48.8179 14.3661 50.7628C15.5792 52.7078 18.3247 56.3383 18.3247 56.3383C18.3247 56.3383 23.8157 64.8312 24.2627 65.1554C24.7096 65.4795 25.6035 65.8685 26.242 65.5444C26.8805 65.2202 27.3913 64.5719 27.3913 63.9236C27.3913 63.2753 26.8166 62.0435 26.242 60.8117C25.6674 59.5799 23.4326 56.0142 22.1557 54.1989C20.8787 52.3188 18.1332 47.5861 18.1332 47.5861C18.1332 47.5861 17.6224 46.8081 17.6224 46.5488C17.6224 46.2895 17.8778 45.8357 18.197 45.9005C18.4524 45.9653 21.581 49.5959 22.2834 50.3739C22.9857 51.2167 26.3697 54.1989 27.3274 54.9769C28.2852 55.69 32.1799 59.3206 32.8184 59.7096C33.4569 60.0985 34.2231 60.4227 34.9893 60.4227C35.6916 60.3579 36.5217 59.8392 36.5855 59.1909C36.6494 58.6074 36.9048 58.1536 36.2663 57.3108C35.6278 56.4032 30.8391 51.2815 30.8391 51.2815L24.135 44.1501C24.135 44.1501 22.2834 42.2699 22.1557 41.881C22.028 41.492 21.5172 41.103 21.5172 40.3898C21.5172 39.6767 21.7726 39.3525 22.1557 39.3525C22.5388 39.3525 23.1773 39.7415 24.0711 40.2602C24.965 40.7788 30.5837 44.7335 30.5837 44.7335C30.5837 44.7335 37.0325 49.2717 37.4794 49.531C37.9264 49.7904 38.6925 50.1145 39.1395 50.0497C39.5864 49.9849 40.0972 49.6607 40.4803 48.5586C40.8634 47.5213 46.0352 32.6749 46.3544 32.1563C46.6737 31.6376 46.9929 31.1838 47.376 31.1838C47.7591 31.1838 48.3976 31.5728 48.3976 32.0266C48.3976 32.4804 46.7375 44.0204 46.7375 44.0204L45.3967 51.2167C45.3967 51.2167 45.0136 53.4858 45.269 54.2637C45.5244 55.0417 45.9075 55.9493 46.8014 56.1438C47.6952 56.4032 48.5891 56.2087 48.9722 55.69C49.3553 55.1065 49.5469 54.7824 50.0576 51.865C50.6323 48.9476 51.7177 44.6687 52.037 43.4369C52.3562 42.2051 52.6116 40.3898 52.7393 39.4174C52.9308 38.3801 53.3778 35.7868 53.4416 35.2033C53.5055 34.6199 53.5693 34.166 53.8247 34.1012C54.0801 34.0364 54.3994 33.9067 54.5271 34.4254C54.6548 34.944 54.9102 39.4174 54.9102 40.1305C54.9102 40.8437 54.8463 45.2522 54.8463 46.2247C54.9102 47.1971 55.2294 51.5408 55.4848 52.5133C55.7402 53.5506 56.0594 54.8472 57.5918 54.8472C59.1242 54.8472 59.4434 53.8099 59.4434 52.9023C59.5073 51.9946 59.4434 49.0772 59.4434 47.3268C59.4434 45.5763 59.4434 42.9831 59.5073 42.0106C59.5711 41.0382 59.635 38.5746 59.635 37.9911C59.635 37.4076 59.5711 36.111 59.5711 34.944C59.5073 33.777 59.4434 32.2859 59.8265 31.7673C60.2096 31.2486 60.8481 31.0541 61.3589 31.1838C61.9335 31.3135 62.6997 31.7673 62.8913 32.9342C63.1467 34.555 62.9551 33.4529 63.7852 39.4822Z" fill="#C31011"/>
<path d="M31.9245 13.9387C31.1583 14.5222 30.3283 15.3002 30.2006 15.8188C30.0729 16.3375 29.6898 18.8659 29.6898 18.8659C29.6898 18.8659 27.7743 16.7913 27.3274 16.5968C26.8804 16.4023 26.2419 16.3375 25.6673 16.3375C25.0927 16.3375 11.429 15.6892 11.429 15.6892C16.9838 10.8916 24.1988 7.97424 32.116 7.97424C34.3507 7.97424 36.6493 8.16874 38.7563 8.55772C38.6925 8.62256 32.6268 13.3552 31.9245 13.9387Z" fill="#C31011"/>
<path d="M36.9685 17.0506C37.4793 16.921 39.4586 16.5968 40.2887 17.1155C41.1187 17.5693 42.0764 18.6714 42.3318 19.3846C42.5234 19.8384 42.9703 21.1998 42.7149 23.4041C42.5234 25.1545 37.1601 43.6315 37.1601 43.6315C37.1601 43.6315 26.4973 34.9441 25.348 34.1013C24.1987 33.2585 21.7725 30.8597 21.4532 30.5355C21.134 30.1466 20.0485 28.7851 19.6655 27.3588C19.4739 26.5808 19.2824 24.7656 19.7293 23.9227C20.2401 22.9503 20.7509 22.3668 21.7086 21.913C22.3471 21.5888 23.8156 21.3295 24.8372 21.524C25.8588 21.7185 27.1996 22.5613 27.6466 23.0151C28.0935 23.4041 30.0728 24.5711 30.3921 24.7007C30.7113 24.8304 31.0306 24.8952 31.4775 24.8304C31.9245 24.7656 32.2437 24.3766 32.7545 23.4041C33.2653 22.4316 33.6484 20.8757 33.9038 20.2922C34.0953 19.7735 34.7977 18.4769 35.2446 18.0879C36.0746 17.2451 36.9685 17.0506 36.9685 17.0506Z" fill="#C31011"/>
<path d="M28.9874 5.7062L27.8381 5.9007L27.6465 4.6689L24.6456 5.18755L24.8372 6.41935L23.6879 6.61384L23.3048 4.15025L23.6879 4.08542C23.8794 3.50194 23.9433 2.78879 23.8156 1.88116L23.6879 0.908689L27.6465 0.260376L28.1573 3.37228L28.6043 3.30744L28.9874 5.7062ZM26.4973 3.6316L26.178 1.75149L25.4118 1.88116V1.94599C25.5395 2.52947 25.5395 3.11295 25.348 3.8261L26.4973 3.6316Z" fill="black"/>
<path d="M33.9676 2.65809H30.6475C30.7113 2.91742 30.7752 3.11191 30.839 3.24158C31.0306 3.43607 31.2221 3.5009 31.4775 3.5009C31.6691 3.5009 31.7968 3.43607 31.9245 3.37124C31.9883 3.30641 32.116 3.24158 32.1799 3.11191L33.8399 3.30641C33.5845 3.76023 33.3292 4.08438 32.9461 4.27888C32.6268 4.47337 32.116 4.5382 31.4775 4.5382C30.9029 4.5382 30.456 4.47337 30.1367 4.27888C29.8175 4.14921 29.5621 3.88989 29.3067 3.5009C29.1151 3.17674 28.9874 2.72293 28.9874 2.26911C28.9874 1.55596 29.179 1.03731 29.6259 0.583493C30.0729 0.129674 30.6475 -0.0648193 31.4137 -0.0648193C32.0522 -0.0648193 32.4991 1.19284e-05 32.8822 0.194506C33.2653 0.389 33.5207 0.648325 33.7122 1.03731C33.8399 1.4263 33.9676 1.94495 33.9676 2.4636V2.65809ZM32.2437 1.88012C32.1799 1.55596 32.116 1.29664 31.9883 1.16697C31.8606 1.03731 31.6691 0.972481 31.4137 0.972481C31.1583 0.972481 30.9667 1.10214 30.7752 1.29664C30.7113 1.4263 30.6475 1.62079 30.6475 1.88012H32.2437Z" fill="black"/>
<path d="M38.5644 1.88008L37.3513 1.75042L36.9682 4.86232L35.3081 4.66783L35.7551 1.49109L34.542 1.36143L34.6697 0.129639L38.6921 0.648289L38.5644 1.88008Z" fill="black"/>
<path d="M42.0763 4.2141L43.5448 4.79759C43.3532 5.12174 43.1617 5.31624 42.9063 5.51073C42.6509 5.70522 42.3317 5.83489 42.0124 5.83489C41.6932 5.89972 41.3101 5.83489 40.7993 5.70522C40.3523 5.57556 40.0331 5.4459 39.7139 5.2514C39.4585 5.05691 39.2031 4.86242 39.0754 4.66792C38.8838 4.4086 38.82 4.14927 38.7561 3.88995C38.6923 3.63062 38.7561 3.24164 38.82 2.85265C38.9477 2.39883 39.0754 2.07467 39.3308 1.81535C39.5223 1.62085 39.7139 1.49119 39.9054 1.36153C40.1608 1.23187 40.3523 1.16704 40.5439 1.16704C40.8631 1.1022 41.3101 1.16704 41.757 1.2967C42.4594 1.49119 42.9063 1.75052 43.2255 2.07467C43.5448 2.39883 43.6725 2.85265 43.6725 3.3713L42.1401 3.1768C42.1401 2.98231 42.0763 2.85265 42.0124 2.72299C41.8847 2.59332 41.757 2.52849 41.5655 2.46366C41.3101 2.39883 41.0547 2.46366 40.8631 2.59332C40.6716 2.72299 40.48 2.98231 40.4162 3.3713C40.3523 3.69545 40.3523 4.01961 40.48 4.2141C40.6077 4.4086 40.7993 4.60309 41.0547 4.66792C41.2462 4.73275 41.4378 4.73275 41.6293 4.66792C41.8209 4.60309 41.9486 4.47343 42.0763 4.2141Z" fill="black"/>
<path d="M48.0784 8.4281L46.3545 7.65013L46.2268 6.28867C46.2268 6.09417 46.1629 5.89968 46.0991 5.83485C46.0352 5.77002 45.9075 5.70519 45.7798 5.64036L45.1413 7.13147L43.609 6.48316L45.3329 2.46362L46.8653 3.11194L46.2268 4.53822C46.3545 4.60306 46.4822 4.60306 46.546 4.53822C46.6099 4.47339 46.8014 4.40856 46.993 4.21407C47.1845 4.01957 47.3761 3.88991 47.5038 3.82508C47.6315 3.76025 47.7592 3.69542 47.9507 3.69542C48.1422 3.69542 48.2699 3.76025 48.5253 3.82508C48.7169 3.88991 49.0361 4.01957 49.4831 4.21407L49.0361 5.3162H48.9723C48.8446 5.25137 48.653 5.18654 48.5253 5.18654C48.3976 5.18654 48.3338 5.12171 48.2061 5.18654C48.1422 5.18654 48.0145 5.3162 47.823 5.44586C47.6953 5.57552 47.5676 5.64036 47.4399 5.70519C47.3761 5.77002 47.2484 5.77002 47.1207 5.70519C47.3122 5.83485 47.4399 5.96451 47.5676 6.02934C47.6315 6.15901 47.6953 6.48316 47.7592 6.93698L48.0784 8.4281Z" fill="black"/>
<path d="M52.42 11.2159L51.0791 10.3731L52.2284 8.5578L49.7383 9.46543L48.3975 8.62263L50.6961 4.92725L52.0369 5.77005L50.8876 7.58533L53.4416 6.61286L54.7185 7.45566L52.42 11.2159Z" fill="black"/>
<path d="M57.7833 13.6146L55.2932 11.4103C55.1655 11.6048 55.0378 11.7993 55.0378 11.9938C55.0378 12.2531 55.1017 12.4476 55.357 12.6421C55.4847 12.7718 55.6124 12.8366 55.804 12.8366C55.9317 12.8366 56.0594 12.8366 56.1871 12.8366L57.3364 14.0684C56.8894 14.1981 56.4425 14.2629 56.0594 14.1981C55.6763 14.1332 55.2293 13.8091 54.7186 13.4201C54.2716 13.0311 54.0162 12.7069 53.8885 12.318C53.7608 11.9938 53.697 11.6048 53.7608 11.2158C53.8247 10.8268 54.0162 10.4378 54.3355 10.0489C54.7824 9.53021 55.2932 9.27089 55.8678 9.20605C56.4425 9.20605 57.081 9.40055 57.5918 9.9192C58.0387 10.3082 58.3579 10.6972 58.4856 11.0862C58.6133 11.4752 58.6772 11.8641 58.5495 12.2531C58.4856 12.6421 58.2302 13.0311 57.8471 13.4849L57.7833 13.6146ZM57.081 11.8641C57.2725 11.6048 57.3364 11.3455 57.3364 11.151C57.3364 10.9565 57.2087 10.762 57.081 10.6323C56.8894 10.4378 56.634 10.373 56.3786 10.4378C56.1871 10.4378 56.0594 10.5675 55.8678 10.762L57.081 11.8641Z" fill="black"/>
<path d="M62.061 18.9955L62.8272 20.4218C62.5079 20.5515 62.1887 20.6163 61.8695 20.5515C61.5502 20.5515 61.231 20.4218 60.9756 20.2273C60.7202 20.0329 60.4009 19.7735 60.1455 19.3845C59.8901 18.9955 59.6986 18.6714 59.5709 18.3472C59.4432 18.0231 59.4432 17.7638 59.4432 17.4396C59.4432 17.1154 59.5709 16.8561 59.6986 16.5968C59.8263 16.3375 60.0817 16.0781 60.4009 15.8188C60.784 15.5595 61.1033 15.4298 61.4225 15.365C61.6779 15.3002 61.9333 15.365 62.1887 15.365C62.4441 15.4298 62.6356 15.4947 62.8272 15.6243C63.1464 15.8188 63.4018 16.143 63.7211 16.532C64.1042 17.1154 64.3596 17.6341 64.3596 18.0879C64.3596 18.5417 64.2319 18.9955 63.9126 19.3845L62.8272 18.2176C62.9549 18.0879 63.0187 17.8934 63.0187 17.7638C63.0187 17.6341 62.9549 17.4396 62.8272 17.2451C62.6995 17.0506 62.4441 16.9209 62.1887 16.8561C61.9333 16.8561 61.6141 16.9209 61.2948 17.1803C61.0394 17.3748 60.8479 17.6341 60.784 17.8934C60.7202 18.1527 60.784 18.3472 60.9117 18.6066C61.0394 18.8011 61.1671 18.9307 61.3587 18.9307C61.6141 19.0604 61.8056 19.0604 62.061 18.9955Z" fill="black"/>
<path d="M65.5726 25.2842L64.0402 22.302C63.8487 22.4317 63.6571 22.6262 63.5933 22.7558C63.5294 23.0152 63.5294 23.2096 63.6571 23.469C63.721 23.5986 63.8487 23.7283 63.9764 23.858C64.0402 23.9228 64.1679 23.9876 64.3595 23.9876L64.9341 25.5436C64.4233 25.5436 64.0402 25.4139 63.721 25.1546C63.4017 24.8953 63.0825 24.5063 62.7633 23.9228C62.5079 23.4041 62.3802 22.9503 62.3802 22.5613C62.3802 22.1723 62.5079 21.8482 62.6994 21.4592C62.891 21.135 63.2102 20.8109 63.6571 20.6164C64.2318 20.2922 64.8703 20.2274 65.3811 20.4219C65.9557 20.6164 66.4027 21.0702 66.7219 21.7185C66.9773 22.302 67.1688 22.7558 67.105 23.1448C67.105 23.5338 66.9773 23.9228 66.7219 24.2469C66.4665 24.5711 66.1473 24.8953 65.6365 25.1546L65.5726 25.2842ZM65.5088 23.4041C65.7642 23.2096 65.9557 23.0152 66.0196 22.8207C66.0834 22.6262 66.0834 22.4317 65.9557 22.2372C65.828 21.9779 65.6365 21.8482 65.3811 21.7834C65.1895 21.7834 64.998 21.7834 64.7426 21.8482L65.5088 23.4041Z" fill="black"/>
<path d="M62.6357 27.0995L68.2544 25.2194L68.7651 26.7105L68.1905 26.905C68.5098 27.0346 68.7651 27.1643 68.8928 27.294C69.0844 27.4885 69.2121 27.7478 69.3398 28.0071C69.5313 28.5906 69.4675 29.0444 69.1482 29.4982C68.829 29.952 68.3182 30.2762 67.6797 30.4707C66.9774 30.73 66.4027 30.73 65.9558 30.4707C65.5089 30.2762 65.1896 29.8872 64.9981 29.3686C64.9342 29.1092 64.8704 28.9147 64.9342 28.6554C64.9342 28.3961 64.9981 28.2016 65.1258 28.0071L63.1464 28.6554L62.6357 27.0995ZM66.7858 27.4885C66.4666 27.6181 66.275 27.7478 66.1473 27.9423C66.0196 28.1368 66.0196 28.3313 66.0835 28.5258C66.1473 28.7203 66.275 28.8499 66.4666 28.9147C66.6581 28.9796 66.9135 28.9796 67.2966 28.8499C67.6159 28.7203 67.8713 28.5906 67.9351 28.3961C68.0628 28.2016 68.0628 28.0071 67.999 27.8126C67.9351 27.6181 67.8074 27.4885 67.6159 27.3588C67.4243 27.3588 67.1051 27.4236 66.7858 27.4885Z" fill="black"/>
<path d="M65.4452 36.8242L65.2536 35.6572L66.4667 35.4627L65.9559 32.4157L64.7428 32.6101L64.5513 31.4432L66.9775 31.0542L67.0414 31.4432C67.616 31.6377 68.3184 31.7025 69.2122 31.508L70.17 31.3135L70.8085 35.3331L67.7437 35.8517L67.8076 36.3055L65.4452 36.8242ZM67.4883 34.2958L69.3399 33.9716L69.2122 33.1936H69.1484C68.5738 33.3233 67.9353 33.2585 67.2968 33.1288L67.4883 34.2958Z" fill="black"/>
<path d="M65.5087 42.27V41.1031H66.7218L66.658 37.0187L70.9359 36.9539V38.6395L67.8711 38.7043V40.0009L70.9359 39.9361V41.6217L67.8711 41.6865V42.3349L65.5087 42.27Z" fill="black"/>
<path d="M69.3398 44.5391L69.7229 42.9832C69.9783 43.1128 70.1699 43.1777 70.2976 43.3073C70.4253 43.437 70.5529 43.6315 70.6168 43.826C70.6806 44.0205 70.7445 44.215 70.7445 44.4743C70.7445 44.7336 70.7445 45.0578 70.6806 45.3171C70.6168 45.8357 70.553 46.2247 70.4253 46.4841C70.2976 46.8082 70.1699 47.0027 69.9783 47.1972C69.8506 47.3269 69.6591 47.3917 69.4037 47.4565C69.1483 47.5214 68.9567 47.5214 68.7652 47.4565L66.9136 47.1972C66.722 47.1972 66.5305 47.1324 66.4666 47.1972C66.3389 47.1972 66.2112 47.262 66.0197 47.3269L66.2112 45.7709C66.3389 45.7061 66.4028 45.7061 66.4666 45.7061C66.5305 45.7061 66.5943 45.7061 66.722 45.7061C66.5305 45.4468 66.4028 45.2523 66.3389 44.9929C66.2751 44.6688 66.2751 44.3446 66.2751 43.9556C66.3389 43.437 66.5305 43.048 66.7859 42.8535C67.0413 42.5942 67.3605 42.5294 67.7436 42.5942C68.0628 42.659 68.3182 42.7887 68.5098 42.9832C68.7013 43.1777 68.829 43.5667 68.829 44.0853C68.8929 44.7336 68.8929 45.1226 68.8929 45.3171C68.8929 45.5116 68.9567 45.7061 69.0206 45.9006C69.2121 45.9006 69.3398 45.9006 69.4675 45.8357C69.5314 45.7709 69.5952 45.6413 69.6591 45.3819C69.7229 45.1226 69.6591 44.9281 69.5952 44.7336C69.5952 44.7336 69.4675 44.604 69.3398 44.5391ZM68.2544 45.8357C68.1905 45.5764 68.1905 45.3819 68.1267 45.1226C68.0628 44.7984 67.999 44.5391 67.9351 44.4743C67.8713 44.3446 67.7436 44.2798 67.6798 44.2798C67.5521 44.2798 67.4244 44.2798 67.3605 44.3446C67.2967 44.4095 67.2328 44.5391 67.169 44.7336C67.169 44.9281 67.169 45.1226 67.2328 45.2523C67.2967 45.4468 67.3605 45.5764 67.4882 45.6413C67.6159 45.7061 67.7436 45.7709 67.999 45.8357H68.2544Z" fill="black"/>
</g>
<defs>
<clipPath id="clip0">
<rect width="71" height="73" fill="white"/>
</clipPath>
</defs>
</svg>
