<svg width="122" height="81" viewBox="0 0 122 81" fill="none" xmlns="http://www.w3.org/2000/svg">
<g clip-path="url(#clip0)">
<path d="M83.8411 22.5242L62.3016 0.639368C61.4577 -0.218005 60.099 -0.218005 59.2694 0.639368L37.7299 22.5242C36.8861 23.3816 36.8861 24.7621 37.7299 25.6049L56.5377 44.7142V30.0371C53.6915 29.3832 51.0169 28.0753 48.7428 26.1862L48.4568 25.9391C47.7846 25.3433 47.3555 24.486 47.3555 23.5123C47.3555 21.7395 48.7714 20.3008 50.5163 20.3008C51.2887 20.3008 51.9895 20.5769 52.533 21.042C54.8357 23.0183 57.7677 24.1081 60.7855 24.1081C63.789 24.1081 66.7067 23.0328 69.0094 21.071C69.5672 20.5915 70.268 20.3154 71.0547 20.3154C72.7996 20.3154 74.2155 21.754 74.2155 23.5269C74.2155 24.515 73.7722 25.4015 73.0856 25.9973C72.9998 26.0699 72.914 26.1426 72.8282 26.2153C70.5398 28.1044 67.8509 29.4122 64.9904 30.0662V44.7578L83.8411 25.6049C84.6849 24.7475 84.6849 23.367 83.8411 22.5242ZM60.7712 21.3181C58.4399 21.3181 56.552 19.3999 56.552 17.0312C56.552 14.6625 58.4399 12.7443 60.7712 12.7443C63.1025 12.7443 64.9904 14.6625 64.9904 17.0312C64.9904 19.3999 63.1025 21.3181 60.7712 21.3181Z" fill="#009FE3"/>
<path d="M9.8544 55.4822V66.1921H7.48019V57.4149H4.50528L4.30504 61.1496C4.17632 62.9515 3.84736 64.2303 3.28957 65.015C2.73177 65.7997 1.88793 66.1921 0.743728 66.1921H0.0143025L0 64.2012L0.486284 64.1576C1.00117 64.085 1.38734 63.7653 1.61618 63.1985C1.85932 62.6318 2.00234 61.5855 2.07386 60.0742L2.27409 55.4967H9.8544V55.4822Z" fill="#009FE3"/>
<path d="M18.9505 55.4822H21.3104V66.1921H18.9505V59.0425L14.8171 66.1921H12.4715V55.4822H14.8314V62.6318L18.9505 55.4822Z" fill="#009FE3"/>
<path d="M32.7666 66.1921H30.3924V61.8616H26.2876V66.1921H23.9134V55.4822H26.2876V59.9434H30.3924V55.4822H32.7666V66.1921Z" fill="#009FE3"/>
<path d="M41.8634 55.4822H44.2233V66.1921H41.8634V59.0425L37.73 66.1921H35.3701V55.4822H37.73V62.6318L41.8634 55.4822Z" fill="#009FE3"/>
<path d="M55.1931 55.4823V66.1922H52.8332V62.2541H50.6163L48.3708 66.1922H45.9108L48.3994 61.8617C47.7558 61.5856 47.2552 61.1933 46.8976 60.6701C46.5544 60.1615 46.3827 59.5657 46.3827 58.8973C46.3827 57.8946 46.7546 57.0808 47.5126 56.4414C48.2707 55.802 49.2862 55.4823 50.5734 55.4678H55.1931V55.4823ZM48.7427 58.9699C48.7427 59.4204 48.9 59.7837 49.2289 60.0598C49.5579 60.3359 49.9727 60.4812 50.4876 60.4812H52.8189V57.4005H50.6306C50.0585 57.4005 49.5865 57.5458 49.2432 57.851C48.9286 58.1416 48.7427 58.5194 48.7427 58.9699Z" fill="#009FE3"/>
<path d="M72.0701 61.8908H70.8115V66.1922H68.4373V61.8908H67.193L64.7616 66.1922H61.8582L65.3623 60.612L62.0441 55.4678H64.9332L67.3217 59.682H68.4373V55.4678H70.8115V59.682H71.9271L74.3299 55.4678H77.2333L73.9294 60.5975L77.4478 66.2067H74.5015L72.0701 61.8908Z" fill="#009FE3"/>
<path d="M85.4856 55.4822H87.8455V66.1921H85.4856V59.0425L81.3522 66.1921H78.9923V55.4822H81.3522V62.6318L85.4856 55.4822Z" fill="#009FE3"/>
<path d="M98.3582 58.4177C98.3582 58.8972 98.2151 59.3332 97.9291 59.7255C97.643 60.1179 97.2426 60.4376 96.742 60.6846C97.9434 61.1206 98.5584 61.9489 98.5584 63.1695C98.5584 64.1577 98.1722 64.9424 97.3856 65.5237C96.5989 66.1049 95.5406 66.3956 94.2247 66.3956C93.4238 66.3956 92.6801 66.2648 92.0221 65.9887C91.3642 65.7126 90.8493 65.3202 90.4775 64.8262C90.1056 64.3175 89.9197 63.7217 89.9197 63.0242H92.2796C92.2796 63.4602 92.4655 63.8235 92.8517 64.1141C93.2379 64.4047 93.7241 64.5501 94.3105 64.5501C94.8826 64.5501 95.3546 64.4193 95.6836 64.1432C96.0268 63.8671 96.1985 63.5183 96.1985 63.0678C96.1985 62.5447 96.0554 62.1668 95.7551 61.9343C95.4547 61.7018 94.9971 61.5856 94.3678 61.5856H92.6658V59.8563H94.425C95.4833 59.8418 96.0125 59.4058 96.0125 58.5339C96.0125 58.098 95.8552 57.7637 95.5549 57.5167C95.2545 57.2696 94.8254 57.1534 94.2962 57.1534C93.7813 57.1534 93.338 57.2842 92.9804 57.5457C92.6228 57.8073 92.4512 58.1415 92.4512 58.5339H90.0913C90.0913 57.5893 90.4775 56.8192 91.2641 56.2088C92.0507 55.5985 93.0376 55.3079 94.239 55.3079C95.5406 55.3079 96.556 55.584 97.2855 56.1216C97.9863 56.6448 98.3582 57.415 98.3582 58.4177Z" fill="#009FE3"/>
<path d="M109.5 66.1921H107.125V61.8616H103.021V66.1921H100.646V55.4822H103.021V59.9434H107.125V55.4822H109.5V66.1921Z" fill="#009FE3"/>
<path d="M118.596 55.4822H120.956V66.1921H118.596V59.0425L114.463 66.1921H112.103V55.4822H114.463V62.6318L118.596 55.4822Z" fill="#009FE3"/>
<path d="M2.54584 73.8358C3.21805 73.8358 3.74725 74.0683 4.14771 74.5188C4.54818 74.9693 4.74842 75.5651 4.74842 76.3062V76.3934C4.74842 76.902 4.6483 77.3525 4.46237 77.7594C4.26213 78.1663 3.99039 78.4715 3.63283 78.6894C3.27526 78.9074 2.86049 79.0237 2.38851 79.0237C1.67339 79.0237 1.10129 78.7766 0.657913 78.2971C0.228839 77.8175 0 77.1636 0 76.3498V75.8993C0 74.7659 0.200234 73.8649 0.615006 73.1964C1.02978 72.528 1.64478 72.1211 2.44572 71.9758C2.9034 71.8886 3.21805 71.7869 3.37538 71.6706C3.53271 71.5543 3.61852 71.38 3.61852 71.1765H4.36225C4.36225 71.5979 4.27644 71.9176 4.0905 72.1501C3.90457 72.3827 3.60422 72.5425 3.20375 72.6442L2.53154 72.8041C1.98804 72.9349 1.58757 73.1528 1.31583 73.458C1.04408 73.7632 0.87245 74.1701 0.786635 74.6932C1.27292 74.1265 1.85932 73.8358 2.54584 73.8358ZM2.35991 74.5915C1.91653 74.5915 1.55897 74.7368 1.30152 75.042C1.04408 75.3471 0.915358 75.7685 0.915358 76.3062V76.3789C0.915358 76.9601 1.04408 77.4106 1.31583 77.7594C1.57327 78.0936 1.93083 78.268 2.38851 78.268C2.84619 78.268 3.20375 78.0936 3.4612 77.7594C3.71864 77.4252 3.84736 76.9311 3.84736 76.2772C3.84736 75.7686 3.71864 75.3617 3.44689 75.0565C3.17515 74.7513 2.81758 74.5915 2.35991 74.5915Z" fill="#009FE3"/>
<path d="M10.1261 73.5306V78.9364H9.21074V74.3008H7.40863L7.29421 76.3207C7.237 77.2508 7.07968 77.9192 6.83654 78.3116C6.59339 78.7039 6.19292 78.9219 5.66373 78.9364H5.29187V78.1227L5.54931 78.1081C5.84967 78.0791 6.0499 77.9047 6.17862 77.585C6.30734 77.2653 6.39316 76.6986 6.42176 75.8557L6.52188 73.5452H10.1261V73.5306Z" fill="#009FE3"/>
<path d="M14.8603 78.9365C14.8031 78.8348 14.7602 78.6458 14.7316 78.3697C14.3025 78.8202 13.8019 79.0382 13.2155 79.0382C12.6863 79.0382 12.2573 78.8929 11.9283 78.5877C11.5994 78.2825 11.4277 77.9047 11.4277 77.4397C11.4277 76.873 11.6423 76.437 12.057 76.1319C12.4718 75.8267 13.0725 75.6668 13.8305 75.6668H14.7173V75.2454C14.7173 74.9257 14.6172 74.6641 14.4312 74.4752C14.2453 74.2863 13.9593 74.1846 13.5874 74.1846C13.2584 74.1846 12.9867 74.2718 12.7722 74.4316C12.5576 74.5915 12.4432 74.7949 12.4432 75.042H11.5279C11.5279 74.7659 11.628 74.5188 11.8139 74.2573C11.9998 74.0102 12.2573 73.8068 12.5862 73.6615C12.9152 73.5161 13.2584 73.4435 13.6446 73.4435C14.2596 73.4435 14.7316 73.6033 15.0892 73.9085C15.4324 74.2137 15.6184 74.6496 15.6327 75.1873V77.6722C15.6327 78.1663 15.6899 78.5586 15.8186 78.8493V78.9219H14.8603V78.9365ZM13.3586 78.2244C13.6446 78.2244 13.9164 78.1518 14.1738 78.0064C14.4312 77.8611 14.6172 77.6577 14.7316 77.4252V76.3208H14.0165C12.9009 76.3208 12.3431 76.655 12.3431 77.3089C12.3431 77.5996 12.4432 77.8175 12.6291 77.9919C12.8151 78.1372 13.0582 78.2244 13.3586 78.2244Z" fill="#009FE3"/>
<path d="M20.4809 74.3008H18.0352V78.9364H17.1199V73.5306H20.4809V74.3008Z" fill="#009FE3"/>
<path d="M21.0391 76.1755C21.0391 75.6523 21.1392 75.1728 21.3394 74.7514C21.5396 74.3299 21.8257 73.9957 22.1976 73.7777C22.5694 73.5452 22.9842 73.429 23.4419 73.429C24.1713 73.429 24.7577 73.6905 25.2011 74.1991C25.6445 74.7078 25.8733 75.3907 25.8733 76.2336V76.2917C25.8733 76.8149 25.7732 77.2944 25.5729 77.7013C25.3727 78.1227 25.0867 78.4424 24.7291 78.6749C24.3572 78.9074 23.9425 79.0237 23.4562 79.0237C22.7411 79.0237 22.1547 78.7621 21.7113 78.2535C21.2679 77.7449 21.0391 77.0764 21.0391 76.2336V76.1755ZM21.9401 76.2917C21.9401 76.8875 22.0831 77.3671 22.3549 77.7304C22.6266 78.0937 22.9985 78.268 23.4562 78.268C23.9139 78.268 24.2857 78.0791 24.5575 77.7158C24.8292 77.3525 24.9579 76.8294 24.9579 76.1755C24.9579 75.5797 24.8149 75.1001 24.5432 74.7368C24.2714 74.3735 23.8996 74.1846 23.4419 74.1846C22.9985 74.1846 22.6266 74.359 22.3549 74.7223C22.0831 75.1001 21.9401 75.6087 21.9401 76.2917Z" fill="#009FE3"/>
<path d="M30.9648 74.2718H29.177V78.9219H28.2617V74.2718H26.5168V73.5306H30.9505V74.2718H30.9648Z" fill="#009FE3"/>
<path d="M31.9229 78.9364V73.5306H33.9968C34.6976 73.5306 35.2411 73.6614 35.6273 73.9085C35.9991 74.1555 36.1994 74.5333 36.1994 75.0129C36.1994 75.2599 36.1278 75.4924 35.9848 75.6959C35.8418 75.8993 35.613 76.0446 35.3269 76.1609C35.6416 76.2335 35.899 76.3934 36.0992 76.6114C36.2995 76.8293 36.3853 77.1054 36.3853 77.4106C36.3853 77.9047 36.1994 78.2825 35.8418 78.5441C35.4842 78.8057 34.9836 78.9364 34.3257 78.9364H31.9229ZM32.8383 75.8267H34.0111C34.8692 75.8267 35.284 75.5796 35.284 75.071C35.284 74.5624 34.8835 74.3008 34.0826 74.2863H32.8383V75.8267ZM32.8383 76.5532V78.1808H34.34C34.7262 78.1808 34.9979 78.1081 35.1982 77.9628C35.3841 77.8175 35.4842 77.6141 35.4842 77.3525C35.4842 76.8148 35.0981 76.5387 34.3114 76.5387H32.8383V76.5532Z" fill="#009FE3"/>
<path d="M37.3438 76.1755C37.3438 75.6523 37.4439 75.1728 37.6441 74.7514C37.8443 74.3299 38.1304 73.9957 38.5022 73.7777C38.8741 73.5452 39.2889 73.429 39.7466 73.429C40.476 73.429 41.0624 73.6905 41.5058 74.1991C41.9491 74.7078 42.178 75.3907 42.178 76.2336V76.2917C42.178 76.8149 42.0779 77.2944 41.8776 77.7013C41.6774 78.1227 41.3913 78.4424 41.0338 78.6749C40.6619 78.9074 40.2471 79.0237 39.7609 79.0237C39.0457 79.0237 38.4593 78.7621 38.016 78.2535C37.5726 77.7449 37.3438 77.0764 37.3438 76.2336V76.1755ZM38.2591 76.2917C38.2591 76.8875 38.4021 77.3671 38.6739 77.7304C38.9456 78.0937 39.3175 78.268 39.7752 78.268C40.2328 78.268 40.6047 78.0791 40.8765 77.7158C41.1482 77.3525 41.2769 76.8294 41.2769 76.1755C41.2769 75.5797 41.1339 75.1001 40.8622 74.7368C40.5904 74.3735 40.2185 74.1846 39.7609 74.1846C39.3175 74.1846 38.9456 74.359 38.6739 74.7223C38.4021 75.1001 38.2591 75.6087 38.2591 76.2917Z" fill="#009FE3"/>
<path d="M47.813 76.2917C47.813 77.12 47.6271 77.7739 47.2552 78.2826C46.8833 78.7912 46.3828 79.0382 45.7534 79.0382C45.1098 79.0382 44.5949 78.8348 44.2374 78.4133V81.0145H43.322V73.5307H44.1516L44.1945 74.1265C44.5663 73.6615 45.0812 73.429 45.7391 73.429C46.3827 73.429 46.8833 73.676 47.2552 74.1555C47.6271 74.6496 47.813 75.3181 47.813 76.19V76.2917ZM46.8976 76.19C46.8976 75.5797 46.7689 75.1001 46.5115 74.7513C46.254 74.4026 45.9108 74.2282 45.4674 74.2282C44.9239 74.2282 44.5091 74.4752 44.2231 74.9693V77.556C44.4948 78.0501 44.9096 78.2971 45.4674 78.2971C45.8965 78.2971 46.254 78.1227 46.5115 77.7739C46.7689 77.3961 46.8976 76.873 46.8976 76.19Z" fill="#009FE3"/>
<path d="M52.4047 73.5306H53.32V78.9364H52.4047V74.9983L49.9589 78.9364H49.0436V73.5306H49.9589V77.4687L52.4047 73.5306Z" fill="#009FE3"/>
<path d="M58.7258 74.2718H56.938V78.9219H56.0227V74.2718H54.2778V73.5306H58.7115V74.2718H58.7258Z" fill="#009FE3"/>
<path d="M61.8009 79.0237C61.0858 79.0237 60.4994 78.7766 60.0417 78.2971C59.584 77.8175 59.3695 77.1781 59.3695 76.3644V76.19C59.3695 75.6523 59.4696 75.1728 59.6699 74.7514C59.8701 74.3299 60.1561 73.9957 60.5137 73.7632C60.8713 73.5307 61.2717 73.3999 61.6865 73.3999C62.373 73.3999 62.9165 73.6324 63.3027 74.0974C63.6889 74.5624 63.8748 75.2164 63.8748 76.0883V76.4661H60.2706C60.2849 77.0038 60.4422 77.4252 60.7282 77.7594C61.0143 78.0936 61.4005 78.2535 61.8438 78.2535C62.1585 78.2535 62.4302 78.1808 62.6591 78.05C62.8879 77.9193 63.0739 77.7449 63.2455 77.5269L63.8033 77.9629C63.3599 78.6749 62.702 79.0237 61.8009 79.0237ZM61.7008 74.1846C61.3289 74.1846 61.0286 74.3154 60.7712 74.5915C60.528 74.8676 60.3707 75.2454 60.3135 75.725H62.9737V75.6523C62.9451 75.1873 62.8164 74.824 62.6019 74.5624C62.373 74.3154 62.0727 74.1846 61.7008 74.1846Z" fill="#009FE3"/>
<path d="M69.281 73.5306V78.9364H68.3656V74.3008H66.5635L66.4491 76.3207C66.3919 77.2508 66.2346 77.9192 65.9914 78.3116C65.7483 78.7039 65.3478 78.9219 64.8186 78.9364H64.4611V78.1227L64.7185 78.1081C65.0189 78.0791 65.2191 77.9047 65.3478 77.585C65.4765 77.2653 65.5623 76.6986 65.5909 75.8557L65.6911 73.5452H69.281V73.5306Z" fill="#009FE3"/>
<path d="M71.7414 75.3907H73.1145C73.7152 75.3907 74.1871 75.5505 74.5447 75.8702C74.888 76.1899 75.0739 76.6114 75.0739 77.149C75.0739 77.6867 74.888 78.1227 74.5304 78.4424C74.1728 78.7621 73.6866 78.9364 73.0715 78.9364H70.826V73.5306H71.7414V75.3907ZM71.7414 76.1464V78.1808H73.0858C73.4291 78.1808 73.6866 78.0936 73.8725 77.9192C74.0584 77.7448 74.1585 77.4978 74.1585 77.1926C74.1585 76.8875 74.0727 76.655 73.8868 76.4515C73.7009 76.2626 73.4434 76.1609 73.1288 76.1609H71.7414V76.1464Z" fill="#009FE3"/>
<path d="M80.5515 78.9364H79.6361V76.6259H77.1904V78.9364H76.275V73.5306H77.1904V75.8702H79.6361V73.5306H80.5515V78.9364Z" fill="#009FE3"/>
<path d="M82.9972 75.3907H84.3703C84.971 75.3907 85.443 75.5505 85.8005 75.8702C86.1438 76.1899 86.3297 76.6114 86.3297 77.149C86.3297 77.6867 86.1438 78.1227 85.7862 78.4424C85.4287 78.7621 84.9424 78.9364 84.3274 78.9364H82.0962V73.5306H83.0116V75.3907H82.9972ZM82.9972 76.1464V78.1808H84.3417C84.6849 78.1808 84.9424 78.0936 85.1283 77.9192C85.3142 77.7448 85.4144 77.4978 85.4144 77.1926C85.4144 76.8875 85.3285 76.655 85.1426 76.4515C84.9567 76.2626 84.6992 76.1609 84.3846 76.1609H82.9972V76.1464ZM88.2319 78.9364H87.3166V73.5306H88.2319V78.9364Z" fill="#009FE3"/>
<path d="M93.2522 73.5306H94.1676V78.9365H93.2522V74.9984L90.8065 78.9365H89.8911V73.5306H90.8065V77.4688L93.2522 73.5306ZM93.4953 71.5543C93.4953 71.9612 93.3666 72.2809 93.0949 72.528C92.8231 72.775 92.4656 72.8912 92.0365 72.8912C91.5931 72.8912 91.2355 72.775 90.9638 72.528C90.6921 72.2809 90.5633 71.9612 90.5633 71.5543H91.3071C91.3071 71.7868 91.3643 71.9757 91.493 72.1065C91.6217 72.2373 91.7933 72.31 92.0365 72.31C92.2653 72.31 92.4513 72.2518 92.58 72.1211C92.7087 71.9903 92.7802 71.8014 92.7802 71.5689H93.4953V71.5543Z" fill="#009FE3"/>
<path d="M97.9147 76.3352C97.9147 75.4343 98.0863 74.7222 98.4296 74.2136C98.7728 73.705 99.2448 73.4434 99.8455 73.4434C100.117 73.4434 100.375 73.487 100.575 73.5887V71.2782H101.49V73.6178C101.719 73.5016 101.991 73.4434 102.291 73.4434C102.892 73.4434 103.364 73.705 103.707 74.2136C104.05 74.7222 104.222 75.4779 104.222 76.437C104.222 77.2362 104.05 77.8611 103.707 78.3261C103.364 78.7911 102.892 79.0236 102.291 79.0236C101.977 79.0236 101.705 78.9655 101.476 78.8638V80.9999H100.561V78.8783C100.346 78.98 100.103 79.0236 99.8169 79.0236C99.2162 79.0236 98.7585 78.7911 98.4153 78.3261C98.072 77.8611 97.9004 77.2217 97.9004 76.3934V76.3352H97.9147ZM98.8158 76.437C98.8158 77.0473 98.9159 77.4978 99.1304 77.8175C99.3449 78.1372 99.6453 78.2825 100.046 78.2825C100.232 78.2825 100.403 78.2534 100.561 78.1953V74.2717C100.418 74.2136 100.26 74.1845 100.06 74.1845C99.6596 74.1845 99.3592 74.3589 99.1304 74.7222C98.9302 75.1001 98.8158 75.6668 98.8158 76.437ZM103.321 76.3352C103.321 75.6523 103.207 75.1291 102.978 74.7513C102.749 74.3735 102.434 74.1845 102.034 74.1845C101.834 74.1845 101.648 74.2136 101.49 74.2863V78.1953C101.633 78.2534 101.819 78.2825 102.034 78.2825C102.434 78.2825 102.749 78.1227 102.978 77.803C103.207 77.4833 103.321 76.9892 103.321 76.3352Z" fill="#009FE3"/>
<path d="M105.166 76.1755C105.166 75.6523 105.266 75.1728 105.467 74.7514C105.667 74.3299 105.953 73.9957 106.325 73.7777C106.697 73.5452 107.111 73.429 107.569 73.429C108.299 73.429 108.885 73.6905 109.328 74.1991C109.772 74.7078 110.001 75.3907 110.001 76.2336V76.2917C110.001 76.8149 109.9 77.2944 109.7 77.7013C109.5 78.1227 109.214 78.4424 108.856 78.6749C108.484 78.9074 108.07 79.0237 107.583 79.0237C106.868 79.0237 106.282 78.7621 105.838 78.2535C105.395 77.7449 105.166 77.0764 105.166 76.2336V76.1755ZM106.067 76.2917C106.067 76.8875 106.21 77.3671 106.482 77.7304C106.754 78.0937 107.126 78.268 107.583 78.268C108.041 78.268 108.413 78.0791 108.685 77.7158C108.956 77.3525 109.085 76.8294 109.085 76.1755C109.085 75.5797 108.942 75.1001 108.67 74.7368C108.399 74.3735 108.027 74.1846 107.569 74.1846C107.126 74.1846 106.754 74.359 106.482 74.7223C106.21 75.1001 106.067 75.6087 106.067 76.2917Z" fill="#009FE3"/>
<path d="M115.478 78.9364H114.562V76.6259H112.131V78.9364H111.216V73.5306H112.131V75.8702H114.577V73.5306H115.492V78.9364H115.478Z" fill="#009FE3"/>
<path d="M116.894 78.1808L117.209 77.7884C117.566 77.3234 117.767 76.6259 117.809 75.6959L117.895 73.5452H121.314V78.1953H122V80.5349H121.085V78.951H117.38V80.5349H116.465V78.1953H116.894V78.1808ZM117.967 78.1808H120.413V74.388H118.782L118.725 75.6813C118.668 76.7421 118.41 77.585 117.967 78.1808Z" fill="#009FE3"/>
</g>
<defs>
<clipPath id="clip0">
<rect width="122" height="81" fill="white"/>
</clipPath>
</defs>
</svg>
