<svg width="189" height="504" viewBox="0 0 189 504" fill="none" xmlns="http://www.w3.org/2000/svg">
<path d="M179.5 445.279C179.154 445.567 179.096 446.028 179.384 446.374L196.326 468.329L176.618 483.543L159.619 461.587C159.331 461.241 158.87 461.184 158.524 461.472C158.179 461.76 158.121 462.221 158.409 462.567L176.273 485.79L198.516 468.675L180.652 445.452C180.306 445.048 179.845 444.991 179.5 445.279Z" fill="white"/>
<path d="M160.368 454.096C160.08 453.75 159.619 453.692 159.273 453.98L153.338 458.533L148.209 451.906L159.389 443.262L159.504 443.204C160.195 445.682 161.982 447.987 163.826 450.35C166.937 454.384 170.222 458.533 168.147 464.007C167.975 464.411 168.205 464.872 168.608 465.045C168.897 465.16 169.185 465.102 169.358 464.929C169.473 464.814 169.588 464.699 169.588 464.584C171.893 458.245 168.263 453.519 164.978 449.37C163.537 447.584 162.212 445.797 161.405 444.069C165.209 447.18 172.469 452.77 175.408 452.194C175.523 452.194 175.639 452.136 175.754 452.021C175.984 451.848 176.1 451.56 176.042 451.272C175.984 450.868 175.523 450.58 175.12 450.638C172.988 451.041 165.785 445.682 161.175 441.764L161.521 441.475L172.7 432.831L177.828 439.458L171.835 444.069C171.49 444.357 171.432 444.818 171.72 445.163C172.008 445.509 172.469 445.567 172.815 445.279L180.076 439.689L173.045 430.526L167.053 435.136C167.283 434.618 167.514 434.042 167.629 433.465C168.551 428.682 165.958 426.435 163.307 425.916C161.636 425.628 160.138 425.916 158.985 426.838C157.775 427.76 156.911 429.316 156.565 431.333C156.046 434.214 157.602 437.787 158.755 439.919C157.026 438.306 153.972 435.828 151.033 435.598C148.959 435.425 147.287 435.828 146.077 436.808C144.867 437.73 144.176 439.113 144.061 440.784C143.888 443.492 145.386 446.547 150.226 446.892C150.803 446.95 151.379 446.892 151.955 446.777L145.962 451.387L152.992 460.55L160.195 455.018C160.599 454.902 160.656 454.441 160.368 454.096ZM158.121 431.852C158.409 430.181 159.043 429.028 159.965 428.279C161.002 427.472 162.212 427.472 163.019 427.645C165.612 428.106 166.707 430.123 166.073 433.35C165.497 436.289 161.809 439.401 160.656 440.265C159.734 438.652 157.602 434.675 158.121 431.852ZM150.342 445.509C147.115 445.279 145.444 443.723 145.616 441.072C145.674 440.208 145.962 439.055 146.999 438.248C147.921 437.557 149.247 437.269 150.918 437.384C153.799 437.614 157.141 440.669 158.409 441.994C157.314 442.858 153.338 445.682 150.342 445.509Z" fill="white"/>
<path d="M54.455 180.486L36.5915 157.262C36.3034 156.916 35.8424 156.859 35.4966 157.147C35.1509 157.435 35.0933 157.896 35.3814 158.242L52.3229 180.198L32.6154 195.411L15.5587 173.455C15.2705 173.109 14.8095 173.052 14.4638 173.34C14.1181 173.628 14.0604 174.089 14.3486 174.435L32.2121 197.658L54.455 180.486Z" fill="white"/>
<path d="M16.3077 165.964C16.0195 165.618 15.5585 165.56 15.2128 165.849L9.2775 170.401L4.14894 163.774L15.328 155.13L15.4433 155.072C16.1348 157.55 17.9211 159.855 19.7651 162.218C22.8768 166.252 26.1614 170.401 24.0869 175.876C23.914 176.279 24.1445 176.74 24.5479 176.913C24.836 177.028 25.1242 176.97 25.297 176.798C25.4123 176.682 25.5275 176.567 25.5275 176.452C27.8325 170.113 24.2022 165.388 20.9176 161.238C19.477 159.452 18.1516 157.666 17.3449 155.937C21.1481 159.049 28.4087 164.638 31.3476 164.062C31.4628 164.062 31.5781 164.005 31.6933 163.889C31.9238 163.716 32.0391 163.428 31.9814 163.083C31.9238 162.679 31.4628 162.391 31.0595 162.449C28.9274 162.852 21.7243 157.493 17.1144 153.574L17.4601 153.286L28.6392 144.642L33.7678 151.269L27.7749 155.879C27.4291 156.167 27.3715 156.628 27.6596 156.974C27.9477 157.32 28.4087 157.378 28.7545 157.089L36.0151 151.5L28.985 142.337L22.9921 146.947C23.2226 146.428 23.4531 145.852 23.5683 145.276C24.4903 140.493 21.8972 138.246 19.2465 137.727C17.5754 137.439 16.0772 137.727 14.9247 138.649C13.7146 139.571 12.8502 141.127 12.5045 143.144C11.9858 146.025 13.5417 149.598 14.6942 151.73C12.9654 150.117 9.91136 147.639 6.97253 147.408C4.89806 147.235 3.22695 147.639 2.01685 148.618C0.806738 149.54 0.115247 150.923 -1.40723e-06 152.595C-0.172874 155.303 1.32536 158.357 6.16579 158.703C6.74203 158.761 7.31827 158.703 7.89452 158.588L1.9016 163.198L8.93175 172.36L16.1348 166.828C16.5381 166.771 16.5958 166.31 16.3077 165.964ZM14.0603 143.662C14.3484 141.991 14.9823 140.839 15.9043 140.09C16.9415 139.283 18.1516 139.283 18.9584 139.456C21.5515 139.917 22.6463 141.934 22.0124 145.161C21.4362 148.1 17.7483 151.211 16.5958 152.076C15.6738 150.52 13.5417 146.544 14.0603 143.662ZM6.28104 157.378C3.05408 157.147 1.38298 155.591 1.55585 152.94C1.61348 152.076 1.9016 150.923 2.93883 150.117C3.86082 149.425 5.18618 149.137 6.85728 149.252C9.73849 149.483 13.0807 152.537 14.3484 153.862C13.2536 154.727 9.2775 157.55 6.28104 157.378Z" fill="white"/>
<path d="M55.2041 271.766C54.9159 271.42 54.455 271.362 54.1092 271.593C53.7635 271.881 53.7058 272.342 53.9363 272.688L61.3122 282.484L65.9222 279.027L70.6474 275.454L75.3725 271.881L80.0977 268.308L84.8229 264.735L89.5481 261.163L94.2733 257.59L98.9985 254.017L103.608 250.559L96.2325 240.763C95.9444 240.417 95.4834 240.359 95.1376 240.59C94.7919 240.878 94.7343 241.339 94.9648 241.685L101.361 250.214L98.6527 252.23L92.2564 243.702C91.9683 243.356 91.5073 243.298 91.1616 243.529C90.8158 243.817 90.7582 244.278 90.9887 244.624L97.385 253.153L93.9275 255.746L87.5312 247.217C87.2431 246.871 86.7821 246.814 86.4364 247.044C86.0906 247.332 86.033 247.793 86.2635 248.139L92.6598 256.668L89.2024 259.261L82.8061 250.732C82.5179 250.386 82.0569 250.329 81.7112 250.559C81.3655 250.847 81.3078 251.308 81.5383 251.654L87.9346 260.183L84.4772 262.776L78.0809 254.247C77.7928 253.902 77.3318 253.844 76.986 254.075C76.6403 254.363 76.5826 254.824 76.8131 255.169L83.2094 263.698L79.752 266.291L73.3557 257.763C73.0676 257.417 72.6066 257.359 72.2608 257.59C71.9151 257.878 71.8575 258.339 72.088 258.685L78.4842 267.213L75.0268 269.807L68.6305 261.278C68.3424 260.932 67.8814 260.874 67.5356 261.105C67.1899 261.393 67.1323 261.854 67.3628 262.2L73.7591 270.729L70.3016 273.322L63.9053 264.793C63.6172 264.447 63.1562 264.39 62.8105 264.62C62.4647 264.908 62.4071 265.369 62.6376 265.715L69.0339 274.244L65.5764 276.837L59.1801 268.308C58.892 267.962 58.431 267.905 58.0853 268.135C57.7395 268.423 57.6819 268.885 57.9124 269.23L64.3087 277.759L61.6004 279.776L55.2041 271.766Z" fill="white"/>
<path d="M63.329 231.312C62.9256 231.6 62.6375 232.119 62.5223 232.983C62.0613 235.519 64.3086 241.109 65.5187 243.932C63.1561 241.973 58.4309 238.285 55.8379 237.997C55.0311 237.881 54.4549 237.997 54.0515 238.342C53.1871 239.034 53.4753 240.129 53.821 241.339C54.1091 242.261 54.3972 243.298 54.282 244.393C54.1667 245.431 53.6481 246.41 53.1871 247.275C52.6685 248.312 52.2075 249.176 52.6109 249.983C53.0143 250.675 53.8786 250.847 54.5125 250.963C56.2412 251.136 59.2953 250.041 61.8884 248.83L42.6419 263.064L48.7501 271.189L96.3477 235.519L90.2395 227.393L71.1083 241.742C72.9522 239.553 74.9115 236.959 75.1996 235.231C75.3148 234.597 75.3725 233.732 74.7962 233.156C74.1624 232.522 73.1827 232.695 72.0303 232.926C71.1083 233.099 70.0134 233.329 68.9762 233.156C67.9389 232.983 67.0169 232.407 66.2102 231.888C65.173 231.254 64.1934 230.621 63.329 231.312ZM54.5701 249.234C54.2244 249.176 54.0515 249.119 53.9363 249.119C53.9939 248.888 54.282 248.312 54.5125 247.908C55.0311 246.986 55.6074 245.834 55.7802 244.451C55.9531 243.068 55.5497 241.858 55.2616 240.82C55.1464 240.359 54.9735 239.783 54.9735 239.553C55.0311 239.553 55.2616 239.495 55.6074 239.553C57.6818 239.783 62.3494 243.414 64.8272 245.488C62.0036 246.929 56.6446 249.464 54.5701 249.234ZM89.9514 229.583L94.1579 235.173L49.0958 268.942L44.8893 263.352L89.9514 229.583ZM72.376 234.539C72.837 234.424 73.4132 234.309 73.7014 234.366C73.7014 234.482 73.7014 234.654 73.6437 235C73.298 237.075 69.3219 241.454 67.1322 243.817C65.8645 240.878 63.6747 235.346 64.0781 233.271C64.1357 232.926 64.1934 232.753 64.251 232.637C64.4815 232.695 65.0001 233.041 65.4035 233.271C66.2678 233.848 67.4203 234.539 68.7457 234.77C70.071 235 71.3964 234.712 72.376 234.539Z" fill="white"/>
<path d="M136.512 160.028C138.125 160.662 139.854 161.066 141.41 160.835C143.542 160.547 145.098 159.74 146.135 158.53C147.057 157.377 147.403 155.937 147.172 154.323C146.942 152.652 146.135 151.327 144.925 150.52C143.657 149.656 141.929 149.367 139.854 149.656C136.915 150.059 134.034 152.71 132.421 154.496C133.4 152.306 134.783 148.676 134.034 145.795C133.515 143.778 132.593 142.337 131.326 141.473C130.058 140.666 128.56 140.435 126.946 140.839C124.296 141.53 121.933 143.951 123.143 148.618C123.546 150.174 124.584 151.615 125.794 152.825L114.499 145.276L109.601 152.594L142.966 174.838L147.864 167.52L136.512 160.028ZM140.085 151.211C141.756 150.981 143.081 151.211 144.061 151.845C145.156 152.594 145.501 153.747 145.617 154.554C145.732 155.361 145.674 156.571 144.925 157.55C144.176 158.472 142.966 159.049 141.237 159.279C138.241 159.683 134.149 157.147 132.939 156.34C134.092 154.957 137.203 151.615 140.085 151.211ZM124.641 148.215C123.835 145.103 124.757 142.971 127.35 142.337C128.156 142.106 129.367 142.049 130.461 142.74C131.441 143.374 132.132 144.527 132.536 146.14C133.285 148.964 131.383 153.056 130.577 154.727C129.367 153.978 125.39 151.154 124.641 148.215ZM142.505 172.706L131.153 165.099L111.791 152.191L114.903 147.523L145.617 168.038L142.505 172.706Z" fill="white"/>
<path d="M138.529 174.435L135.936 177.143L106.086 178.353L103.09 176.337L104.012 174.204L134.898 172.937C135.359 172.937 135.647 172.533 135.647 172.13C135.647 171.669 135.244 171.381 134.841 171.381L104.703 172.648L106.605 168.326L126.658 167.52C127.119 167.52 127.407 167.116 127.407 166.713C127.407 166.252 127.004 165.964 126.6 165.964L107.296 166.771L109.198 162.449L118.475 162.045C118.936 162.045 119.224 161.642 119.224 161.238C119.224 160.777 118.821 160.489 118.418 160.489L109.947 160.835L111.791 156.628C111.964 156.225 111.791 155.764 111.388 155.591C110.984 155.418 110.523 155.591 110.35 155.994L101.073 176.913L123.719 192.069L139.681 175.53C139.969 175.242 139.969 174.723 139.681 174.435C139.335 174.089 138.874 174.089 138.529 174.435ZM123.489 189.994L116.574 185.384L128.387 184.923L123.489 189.994ZM130 183.309L114.326 183.886L108.276 179.852L134.322 178.757L130 183.309Z" fill="white"/>
<path d="M106.029 317.752L113.405 320.633C113.52 320.691 113.693 320.691 113.866 320.691C114.211 320.691 114.499 320.518 114.672 320.23C114.96 319.826 114.96 319.308 114.672 318.904C113.289 317.175 110.293 312.508 112.771 306.86C112.944 306.399 112.828 305.881 112.425 305.535C112.022 305.247 111.445 305.247 111.1 305.535L102.571 312.335L110.927 300.464L108.391 301.501C105.395 302.769 101.995 303.46 98.4222 303.576C92.3141 303.806 87.5889 302.25 87.5312 302.25L84.9382 301.386L94.1004 312.623L85.0534 306.572C84.65 306.284 84.0738 306.342 83.728 306.687C83.3823 307.033 83.267 307.552 83.4975 308.013C86.3788 313.43 83.728 318.328 82.4603 320.172C82.1722 320.575 82.2298 321.094 82.5179 321.497C82.7484 321.728 83.0366 321.901 83.3823 321.901C83.5552 321.901 83.6704 321.843 83.7857 321.786L90.9311 318.328C84.9382 323.572 80.3858 333.714 80.6163 340.111C80.9045 348.697 90.4701 352.846 99.69 352.5C108.91 352.155 118.13 347.314 117.784 338.728C117.611 332.331 112.367 322.592 106.029 317.752ZM110.639 307.955C109.371 312.45 110.984 316.253 112.425 318.558L102.341 314.582L110.639 307.955ZM89.3752 304.498C91.4497 304.959 94.619 305.42 98.4222 305.304C101.303 305.189 104.012 304.728 106.547 303.979L99.229 314.352C98.8256 314.928 97.9036 314.928 97.4426 314.409L89.3752 304.498ZM84.65 319.538C85.9178 317.175 87.2431 313.257 85.6296 308.877L94.3885 314.87L84.65 319.538ZM99.69 350.887C91.2192 351.175 82.5179 347.544 82.2874 339.995C81.9993 332.331 89.5481 317.982 97.4426 316.541C96.9816 319.826 95.1953 330.314 90.8158 336.423C90.5853 336.768 90.6429 337.287 90.9887 337.518C91.1616 337.633 91.3344 337.69 91.4497 337.69C91.6802 337.69 91.9107 337.575 92.0836 337.345C96.002 331.928 97.846 323.514 98.6527 318.904C99.9781 322.419 102.283 327.779 104.588 329.392C104.761 329.507 104.934 329.565 105.049 329.565C105.28 329.565 105.51 329.45 105.683 329.219C105.913 328.874 105.856 328.355 105.51 328.124C103.32 326.569 100.67 319.941 99.4595 316.484C107.469 317.348 115.998 331.063 116.286 338.728C116.516 346.277 108.103 350.541 99.69 350.887Z" fill="white"/>
<path d="M87.1277 406.15L72.1454 389.554C71.8573 389.208 71.3387 389.208 71.0506 389.496C70.7048 389.785 70.7048 390.303 70.9929 390.591L84.938 406.035L58.9495 429.489L44.9468 414.045C44.6587 413.699 44.1401 413.7 43.8519 413.988C43.5062 414.276 43.5062 414.794 43.7943 415.083L58.7766 431.679L87.1277 406.15Z" fill="white"/>
<path d="M49.6721 404.191C49.384 403.845 48.8654 403.845 48.5772 404.134L40.1065 411.798L33.9983 405.056L45.1198 395.029L62.3494 414.161L61.0241 405.805L69.2067 407.994L51.9771 388.863L63.0985 378.836L69.2067 385.578L60.275 393.646C59.9292 393.934 59.9292 394.452 60.2173 394.74C60.5055 395.086 61.0241 395.086 61.3122 394.798L71.3964 385.693L63.1562 376.588L55.3193 383.676C55.8379 382.869 56.1836 382.12 56.4141 381.429C56.9904 379.354 56.7599 377.856 55.7803 376.819C54.8583 375.897 53.4753 375.493 52.1499 375.148C50.2483 374.629 48.2891 374.053 46.7333 375.436C46.0418 376.012 45.5808 376.934 45.1774 378.259C45.0622 378.663 45.0045 379.124 44.9469 379.642C44.6588 379.181 44.3707 378.72 44.0826 378.375C40.798 374.744 38.4354 376.934 36.4762 378.663C34.5169 380.391 32.1543 382.581 35.3813 386.212C35.727 386.558 36.1304 386.903 36.5338 387.249C36.0728 387.249 35.6118 387.249 35.1508 387.307C33.8254 387.537 32.8458 387.941 32.212 388.517C30.6561 389.9 31.0595 391.917 31.3476 393.876C31.5781 395.259 31.8086 396.7 32.673 397.679C33.5949 398.774 35.0932 399.178 37.1676 398.832C37.8591 398.717 38.6659 398.429 39.5302 397.968L31.6933 405.056L39.9336 414.161L49.6145 405.459C49.9602 404.998 50.0178 404.537 49.6721 404.191ZM46.7333 378.605C47.0214 377.625 47.3671 376.934 47.8281 376.531C48.6349 375.781 49.845 376.07 51.7466 376.588C52.8991 376.934 54.0515 377.222 54.6854 377.856C55.0312 378.259 55.4921 378.951 54.9159 380.91C54.4549 382.524 52.8414 384.598 50.1907 386.961C49.4992 387.595 48.8077 388.171 48.3467 388.574C47.5976 386.442 45.9841 381.371 46.7333 378.605ZM50.8246 389.842L64.4815 404.998L59.0648 403.557L59.9292 409.089L46.2723 393.934L50.8246 389.842ZM37.571 379.7C39.7607 377.741 40.798 376.934 42.9301 379.297C44.8893 381.429 45.6384 386.673 45.9265 388.978C43.7368 388.517 38.5506 387.191 36.649 385.002C34.5169 382.697 35.3813 381.717 37.571 379.7ZM36.9948 397.103C35.0355 397.449 34.3441 396.93 33.9983 396.527C33.4221 395.835 33.2492 394.625 33.0187 393.473C32.673 391.513 32.5577 390.303 33.3644 389.554C33.8254 389.151 34.5169 388.863 35.5542 388.69C38.3778 388.171 43.2758 390.303 45.2927 391.283C44.8317 391.744 44.2554 392.32 43.5063 393.012C40.8556 395.432 38.6082 396.815 36.9948 397.103Z" fill="white"/>
<path d="M162.5 274.128C162.443 274.128 162.385 274.186 162.327 274.186C162.27 274.186 162.212 274.244 162.212 274.244H162.155L162.097 274.301C162.039 274.359 162.039 274.359 161.982 274.417C161.982 274.474 161.924 274.532 161.924 274.532C161.924 274.589 161.866 274.647 161.866 274.647C161.866 274.705 161.866 274.762 161.866 274.82C161.866 274.878 161.866 274.878 161.866 274.935V274.993C161.866 275.05 161.924 275.108 161.924 275.166C161.924 275.223 161.982 275.281 161.982 275.281V275.339L176.157 292.627L185.492 285.02L195.404 276.895L205.085 268.942L205.718 268.423L191.543 251.136C191.255 250.79 190.794 250.732 190.448 251.02C190.102 251.308 190.045 251.769 190.333 252.115L203.125 267.732L162.5 274.128C162.558 274.128 162.5 274.128 162.5 274.128ZM176.445 290.494L173.622 286.979L182.381 285.654L176.445 290.494ZM184.743 283.694L172.469 285.538L168.897 281.217L192.234 277.586L184.743 283.694ZM201.915 269.634L194.655 275.569L167.744 279.776L164.171 275.454L201.915 269.634Z" fill="white"/>
<path d="M151.206 251.193C151.09 253.902 152.704 256.898 157.544 257.129C158.409 257.186 159.331 257.013 160.195 256.725L150.514 264.62L158.293 274.129L191.139 247.275L183.36 237.766L173.679 245.661C174.14 244.854 174.486 243.99 174.601 243.125C175.35 238.343 172.757 236.153 170.049 235.749C168.378 235.461 166.879 235.865 165.727 236.787C164.517 237.766 163.768 239.322 163.422 241.339C162.961 244.278 164.69 247.793 165.842 249.868C164.056 248.254 160.944 245.892 158.005 245.776C155.931 245.661 154.26 246.122 153.05 247.102C151.955 248.081 151.263 249.522 151.206 251.193ZM165.036 241.627C165.324 239.956 165.9 238.746 166.764 237.997C167.801 237.19 169.012 237.132 169.818 237.305C172.411 237.709 173.564 239.726 173.045 242.895C172.584 245.834 168.954 249.061 167.801 249.983C166.822 248.427 164.575 244.509 165.036 241.627ZM183.13 240.014L188.892 247.044L178.347 255.63L158.466 271.881L152.704 264.851L183.13 240.014ZM154.087 248.37C154.951 247.62 156.277 247.332 157.948 247.39C160.887 247.505 164.229 250.502 165.554 251.769C164.402 252.691 160.598 255.63 157.602 255.515C154.375 255.4 152.646 253.844 152.762 251.251C152.819 250.386 153.107 249.234 154.087 248.37Z" fill="white"/>
<path d="M196.902 364.083C194.712 362.182 187.97 360.971 184.57 360.51C187.855 359.358 194.251 356.938 196.037 354.633C196.614 353.883 196.844 353.25 196.786 352.673C196.671 351.406 195.404 351.06 194.021 350.656C192.983 350.368 191.773 350.022 190.794 349.273C189.814 348.524 189.238 347.487 188.661 346.507C188.028 345.412 187.451 344.433 186.414 344.375C185.492 344.317 184.801 345.067 184.397 345.643C183.072 347.372 182.323 351.636 181.919 355.151C180.882 351.809 179.384 347.717 177.713 346.277C177.194 345.816 176.388 345.182 175.466 345.412C174.428 345.643 174.083 346.738 173.622 347.948C173.276 348.985 172.815 350.138 172.008 351.06C171.201 351.982 170.107 352.5 169.127 353.019C167.859 353.653 166.707 354.229 166.822 355.497C166.88 356.073 167.225 356.649 167.917 357.283C170.107 359.185 176.849 360.395 180.248 360.856C176.964 362.009 170.568 364.429 168.781 366.734C168.205 367.483 167.974 368.117 168.032 368.693C168.147 369.961 169.415 370.307 170.798 370.71C171.835 370.998 173.045 371.344 174.025 372.093C175.005 372.842 175.581 373.88 176.157 374.859C176.849 376.012 177.367 376.934 178.404 376.992C179.326 377.049 180.018 376.3 180.421 375.724C181.747 373.995 182.496 369.731 182.899 366.215C183.936 369.558 185.435 373.649 187.106 375.09C187.624 375.551 188.431 376.185 189.353 375.954C190.39 375.724 190.736 374.629 191.197 373.419C191.543 372.381 192.004 371.229 192.81 370.307C193.617 369.385 194.712 368.866 195.692 368.348C196.959 367.714 198.112 367.137 197.997 365.87C197.939 365.236 197.593 364.66 196.902 364.083ZM169.185 355.9C168.896 355.612 168.724 355.439 168.724 355.382C168.954 355.209 169.53 354.863 170.049 354.633C171.144 354.114 172.469 353.422 173.449 352.27C174.486 351.117 175.005 349.734 175.408 348.582C175.581 348.063 175.811 347.429 175.984 347.199C176.099 347.256 176.272 347.372 176.56 347.602C178.347 349.158 180.306 355.612 181.228 359.127C177.598 358.666 170.971 357.514 169.185 355.9ZM179.096 374.571C178.865 374.917 178.693 375.032 178.577 375.09C178.347 374.917 178.001 374.283 177.713 373.822C177.079 372.785 176.33 371.517 175.12 370.537C173.91 369.615 172.469 369.212 171.317 368.866C170.798 368.751 170.107 368.521 169.876 368.348C169.934 368.232 169.991 368.059 170.279 367.714C171.72 365.87 178.001 363.449 181.458 362.297C181.228 366.043 180.536 372.727 179.096 374.571ZM185.78 346.738C186.011 346.392 186.184 346.277 186.299 346.219C186.529 346.392 186.875 347.026 187.163 347.487C187.797 348.524 188.546 349.792 189.756 350.714C190.966 351.636 192.407 352.039 193.56 352.385C194.078 352.5 194.77 352.731 195 352.904C194.943 353.019 194.885 353.192 194.597 353.538C193.156 355.439 186.875 357.802 183.418 358.955C183.648 355.324 184.34 348.639 185.78 346.738ZM194.885 366.676C193.79 367.195 192.465 367.887 191.427 369.039C190.39 370.192 189.872 371.575 189.468 372.727C189.295 373.246 189.065 373.88 188.892 374.11C188.777 374.053 188.604 373.937 188.316 373.707C186.529 372.151 184.57 365.697 183.648 362.182C187.279 362.7 193.905 363.853 195.692 365.409C196.037 365.697 196.153 365.87 196.21 365.927C195.98 366.158 195.346 366.446 194.885 366.676Z" fill="white"/>
<path d="M208.945 353.422L206.813 331.179L184.57 333.311L175.178 334.175L152.935 336.307L155.067 358.551L158.063 390.246L180.306 388.113L211.999 385.117L209.867 362.873L208.945 353.422ZM190.448 385.29L189.756 378.202C189.699 377.683 189.295 377.337 188.777 377.395C188.258 377.453 187.913 377.856 187.97 378.375L188.662 385.463L181.055 386.154L180.364 379.066C180.306 378.547 179.903 378.202 179.384 378.259C178.865 378.317 178.52 378.72 178.577 379.239L179.269 386.327L159.677 388.171L157.833 368.578L164.92 367.887C165.439 367.829 165.785 367.426 165.727 366.907C165.67 366.388 165.266 366.043 164.748 366.1L157.66 366.792L156.968 359.185L164.056 358.493C164.575 358.436 164.92 358.032 164.863 357.514C164.805 356.995 164.402 356.649 163.883 356.707L156.795 357.399L154.951 337.806L174.544 335.962L175.235 343.05C175.293 343.568 175.696 343.914 176.215 343.856C176.733 343.799 177.079 343.395 177.022 342.877L176.33 335.789L183.936 335.097L184.628 342.185C184.686 342.704 185.089 343.05 185.608 342.992C186.126 342.934 186.472 342.531 186.414 342.012L185.723 334.924L205.315 333.08L207.159 352.673L200.071 353.365C199.553 353.422 199.207 353.826 199.264 354.344C199.322 354.863 199.725 355.209 200.244 355.151L207.332 354.46L208.023 362.066L200.936 362.758C200.417 362.815 200.071 363.219 200.129 363.737C200.186 364.256 200.59 364.602 201.108 364.544L208.196 363.853L210.04 383.446L190.448 385.29Z" fill="white"/>
<path d="M130.634 46.0435C131.153 46.2163 131.498 46.274 131.498 46.274L132.017 46.3892L132.478 46.5621C132.478 46.5621 132.824 46.6773 133.342 46.8502C135.302 47.4265 140.142 48.5214 143.254 47.0231C147.633 44.8909 147.921 41.491 146.711 39.0707C145.962 37.5724 144.81 36.5351 143.369 36.1317C141.871 35.7283 140.142 35.9588 138.298 36.8809C135.647 38.1486 133.746 41.6062 132.708 43.7384C132.997 41.3757 133.169 37.4571 131.556 34.9792C130.461 33.2504 129.136 32.0979 127.638 31.6945C126.197 31.2911 124.699 31.5216 123.258 32.4436C120.953 33.8843 119.397 36.9385 122.048 41.03C123.95 43.8537 128.675 45.4672 130.634 46.0435ZM139.047 38.2063C140.545 37.4571 141.871 37.2842 143.023 37.5724C144.291 37.9181 144.982 38.8978 145.386 39.7046C146.538 42.0672 145.559 44.1418 142.677 45.5824C139.969 46.9078 135.302 45.7553 133.861 45.3519C134.495 43.5655 136.396 39.4741 139.047 38.2063ZM124.18 33.6538C124.872 33.1928 126.024 32.7318 127.292 33.0775C128.387 33.3657 129.424 34.2877 130.346 35.6707C131.902 38.1486 131.383 42.5859 131.095 44.4299C129.712 44.0265 125.102 42.5859 123.489 40.0503C121.702 37.3419 121.933 35.0944 124.18 33.6538Z" fill="white"/>
<path d="M129.078 56.6467C129.943 56.8772 150.111 62.5246 151.321 58.2026L152.992 52.3248C153.338 50.9993 151.955 49.5587 148.613 47.8299C148.209 47.5994 147.748 47.7723 147.518 48.1757C147.287 48.579 147.46 49.04 147.864 49.2706C151.206 51.057 151.436 51.9214 151.494 51.9214C150.86 52.8434 143.484 52.7281 131.153 49.2706C118.821 45.813 112.54 42.0096 112.425 40.9724C112.482 40.9147 113.232 40.2232 117.726 40.6266C118.187 40.6842 118.533 40.3385 118.591 39.8775C118.648 39.4164 118.302 39.0707 117.841 39.0131C112.137 38.4944 111.157 39.647 110.927 40.5113L109.198 46.6197H109.255C108.737 50.8841 128.271 56.4162 129.078 56.6467ZM111.964 42.7011C115.94 46.5045 130.058 50.5383 130.749 50.7688C131.441 50.9993 145.559 54.9179 150.975 53.7654L149.823 57.7993C149.131 58.7213 141.813 58.606 129.539 55.1484C117.208 51.6909 110.927 47.8875 110.811 46.7926L111.964 42.7011Z" fill="white"/>
<path d="M122.912 78.4871C124.699 79.0057 140.315 83.2701 141.352 79.6972L146.135 62.7551C146.25 62.3517 146.02 61.8907 145.616 61.7754C145.213 61.6602 144.752 61.8907 144.637 62.2941L139.854 79.1786C139.105 79.8701 132.997 79.6972 123.373 76.9312C113.692 74.2227 108.449 71.1685 108.161 70.1889L112.943 53.3044C113.059 52.901 112.828 52.44 112.425 52.3247C112.021 52.2095 111.56 52.44 111.445 52.8433L106.662 69.7855C105.567 73.4736 121.126 77.9684 122.912 78.4871Z" fill="white"/>
<path d="M215.053 102.46L228.999 117.903L203.01 141.357L189.007 125.913C188.719 125.568 188.201 125.568 187.912 125.856C187.567 126.144 187.567 126.663 187.855 126.951L202.837 143.547L231.188 117.961L216.206 101.365C215.918 101.019 215.399 101.019 215.111 101.307C214.765 101.653 214.765 102.114 215.053 102.46Z" fill="white"/>
<path d="M176.849 109.432C177.771 110.585 179.269 110.931 181.343 110.585C182.035 110.47 182.842 110.182 183.706 109.721L175.869 116.809L184.109 125.914L193.79 117.212C194.136 116.924 194.136 116.405 193.848 116.117C193.56 115.771 193.041 115.771 192.753 116.059L184.282 123.724L178.059 116.924L189.18 106.897L206.41 126.029L205.085 117.673L213.267 119.863L196.038 100.731L207.159 90.7039L213.267 97.4462L204.335 105.514C203.99 105.802 203.99 106.321 204.278 106.609C204.566 106.955 205.085 106.955 205.373 106.666L215.457 97.5614L207.217 88.4565L199.38 95.5445C199.898 94.7377 200.244 93.9886 200.475 93.2971C201.051 91.2225 200.82 89.7242 199.841 88.687C198.919 87.7649 197.536 87.3616 196.21 87.0158C194.309 86.4972 192.35 85.9209 190.794 87.3039C190.102 87.8802 189.641 88.8022 189.238 90.1276C189.123 90.531 189.065 90.992 189.007 91.5107C188.719 91.0496 188.431 90.5886 188.143 90.2429C184.858 86.6124 182.496 88.8022 180.537 90.531C178.577 92.2598 176.215 94.4496 179.442 98.0801C179.788 98.4258 180.191 98.7716 180.594 99.1173C180.133 99.1173 179.672 99.1173 179.211 99.175C177.886 99.4055 176.906 99.8088 176.272 100.385C174.717 101.768 175.12 103.785 175.408 105.744C175.754 107.012 175.984 108.395 176.849 109.432ZM190.794 90.4734C191.082 89.4937 191.428 88.8022 191.889 88.3988C192.695 87.6497 193.905 87.9378 195.807 88.4565C196.96 88.8022 198.112 89.0903 198.746 89.7242C199.092 90.1276 199.553 90.8191 198.976 92.7784C198.515 94.392 196.902 96.4665 194.251 98.8292C193.56 99.4631 192.868 100.039 192.407 100.443C191.658 98.3106 190.045 93.2394 190.794 90.4734ZM194.885 101.711L208.542 116.866L203.125 115.426L203.99 120.958L190.333 105.802L194.885 101.711ZM181.632 91.5683C183.821 89.609 184.858 88.8022 186.991 91.1649C188.95 93.2971 189.699 98.5987 189.987 100.846C187.797 100.385 182.611 99.0597 180.71 96.8699C178.577 94.5649 179.442 93.5852 181.632 91.5683ZM177.425 101.422C177.886 101.019 178.577 100.731 179.615 100.558C182.438 100.039 187.336 102.172 189.353 103.151C188.892 103.612 188.316 104.188 187.567 104.88C184.916 107.243 182.669 108.683 181.055 108.971C179.096 109.317 178.405 108.799 178.059 108.395C177.483 107.704 177.31 106.494 177.079 105.341C176.733 103.439 176.618 102.172 177.425 101.422Z" fill="white"/>
</svg>
