<svg width="199" height="504" viewBox="0 0 199 504" fill="none" xmlns="http://www.w3.org/2000/svg">
<g clip-path="url(#clip0)">
<path d="M84.6623 456.646L69.9681 471.341L45.1897 446.619L48.7048 443.104C48.9929 442.816 48.9929 442.297 48.7048 442.009C48.4167 441.721 47.8981 441.721 47.6099 442.009L43 446.619L70.0257 473.588L85.8148 457.741C86.1029 457.453 86.1029 456.934 85.8148 456.646C85.5266 456.301 85.008 456.301 84.6623 456.646Z" fill="white"/>
<path d="M80.9743 431.982C80.6862 432.27 80.6862 432.789 80.9743 433.077L96.1295 448.175L89.6756 454.629L80.571 445.524L80.0524 445.063L78.3812 443.392C78.0931 443.104 77.5745 443.104 77.2864 443.392C76.9983 443.68 76.9983 444.199 77.2864 444.487L78.9575 446.158L79.4185 446.619L89.6756 456.819L98.3192 448.118L82.0692 431.925C81.7811 431.636 81.2625 431.636 80.9743 431.982Z" fill="white"/>
<path d="M76.8256 431.579C80.5136 429.619 81.378 426.738 79.4187 422.935C78.9577 422.013 78.4391 421.321 77.8629 420.745C76.0189 418.901 73.6563 418.728 70.8327 420.226C69.0464 421.148 67.5481 423.108 66.3956 425.125C66.5685 422.877 66.3957 420.399 65.4737 418.613C63.5144 414.925 60.5756 414.06 56.83 416.02C53.0844 418.037 52.1624 420.918 54.1217 424.606C54.4674 425.24 54.9284 425.874 55.5623 426.45C56.5419 427.43 57.752 428.294 59.0197 428.986C56.7724 428.813 54.2946 428.986 52.5082 429.908C48.8202 431.867 47.9559 434.806 49.9151 438.551C50.3761 439.474 50.8947 440.165 51.4709 440.741C53.3149 442.585 55.6775 442.758 58.5011 441.26C60.2875 440.338 61.7857 438.379 62.9382 436.362C62.7653 438.609 62.9382 441.087 63.8602 442.873C64.3212 443.738 64.8398 444.429 65.3584 445.006C67.2024 446.85 69.6226 447.023 72.5038 445.467C76.2494 443.45 77.1714 440.568 75.2122 436.88C74.8664 436.246 74.4054 435.613 73.7716 435.036C72.7919 434.057 71.5818 433.192 70.3141 432.501C72.5614 432.674 75.0393 432.501 76.8256 431.579ZM57.752 439.877C54.8708 441.433 53.4302 440.453 52.5658 439.646C52.1048 439.185 51.7014 438.609 51.2981 437.802C49.6846 434.806 50.2608 432.846 53.1997 431.291C56.0233 429.792 61.4976 430.772 63.572 431.291C62.8229 433.308 60.6332 438.379 57.752 439.877ZM56.6571 425.355C56.1385 424.836 55.7928 424.375 55.5046 423.857C53.9488 420.918 54.5827 419.016 57.5791 417.403C59.8841 416.192 61.4976 416.25 62.8229 417.576C63.2839 418.037 63.6873 418.613 64.0331 419.304C65.5313 422.128 64.5517 427.603 64.0331 429.677C62.4772 429.101 58.7892 427.487 56.6571 425.355ZM72.6191 436.189C73.1377 436.707 73.4834 437.168 73.7716 437.687C75.3274 440.626 74.6936 442.528 71.6971 444.141C68.643 445.755 66.7414 445.121 65.1855 442.24C63.6873 439.416 64.6669 433.941 65.1855 431.867C66.8567 432.443 70.487 434.057 72.6191 436.189ZM65.7041 430.196C66.5109 428.179 68.7006 423.165 71.5242 421.609C74.4054 420.053 75.846 421.033 76.7104 421.84C77.1714 422.301 77.5747 422.877 77.9781 423.684C79.5916 426.68 79.0154 428.64 76.0765 430.196C73.1953 431.694 67.7786 430.657 65.7041 430.196Z" fill="white"/>
<path d="M4.57578 180.486L-13.2877 157.262C-13.5758 156.916 -14.0368 156.859 -14.3826 157.147C-14.7283 157.435 -14.7859 157.896 -14.4978 158.242L2.44368 180.198L-17.2638 195.411L-34.3205 173.455C-34.6086 173.109 -35.0696 173.052 -35.4154 173.34C-35.7611 173.628 -35.8187 174.089 -35.5306 174.435L-17.6671 197.658L4.57578 180.486Z" fill="white"/>
<path d="M5.32497 271.766C5.03685 271.42 4.57588 271.362 4.23013 271.593C3.88439 271.881 3.82674 272.342 4.05723 272.688L11.4332 282.484L16.0431 279.027L20.7682 275.454L25.4934 271.881L30.2186 268.308L34.9438 264.735L39.669 261.163L44.3942 257.59L49.1193 254.017L53.7293 250.559L46.3534 240.763C46.0653 240.417 45.6043 240.359 45.2585 240.59C44.9128 240.878 44.8552 241.339 45.0857 241.685L51.482 250.214L48.7736 252.23L42.3773 243.702C42.0892 243.356 41.6282 243.298 41.2825 243.529C40.9367 243.817 40.8791 244.278 41.1096 244.624L47.5059 253.153L44.0484 255.746L37.6522 247.217C37.364 246.871 36.903 246.814 36.5573 247.044C36.2115 247.332 36.1539 247.793 36.3844 248.139L42.7807 256.668L39.3232 259.261L32.927 250.732C32.6388 250.386 32.1778 250.329 31.8321 250.559C31.4863 250.847 31.4287 251.308 31.6592 251.654L38.0555 260.183L34.598 262.776L28.2018 254.247C27.9137 253.902 27.4526 253.844 27.1069 254.075C26.7612 254.363 26.7035 254.824 26.934 255.169L33.3303 263.698L29.8729 266.291L23.4766 257.763C23.1885 257.417 22.7275 257.359 22.3817 257.59C22.036 257.878 21.9784 258.339 22.2088 258.685L28.6052 267.213L25.1477 269.807L18.7514 261.278C18.4633 260.932 18.0023 260.874 17.6566 261.105C17.3108 261.393 17.2532 261.854 17.4837 262.2L23.88 270.729L20.4225 273.322L14.0262 264.793C13.7381 264.447 13.2771 264.39 12.9314 264.62C12.5856 264.908 12.528 265.369 12.7585 265.715L19.1548 274.244L15.6973 276.837L9.30105 268.308C9.01293 267.962 8.55193 267.905 8.20618 268.135C7.86044 268.423 7.80282 268.885 8.03332 269.23L14.4296 277.759L11.7213 279.776L5.32497 271.766Z" fill="white"/>
<path d="M13.45 231.312C13.0467 231.6 12.7585 232.119 12.6433 232.983C12.1823 235.519 14.4296 241.109 15.6397 243.932C13.2772 241.973 8.55198 238.285 5.95889 237.997C5.15215 237.882 4.57589 237.997 4.17252 238.343C3.30816 239.034 3.5963 240.129 3.94205 241.339C4.23017 242.261 4.51828 243.298 4.40303 244.393C4.28778 245.431 3.76915 246.41 3.30816 247.275C2.78954 248.312 2.32855 249.176 2.73192 249.983C3.13529 250.675 3.99964 250.847 4.63351 250.963C6.36223 251.136 9.41634 250.041 12.0094 248.831L-7.23706 263.064L-1.12891 271.19L46.4687 235.519L40.3605 227.394L21.2293 241.743C23.0733 239.553 25.0325 236.96 25.3206 235.231C25.4359 234.597 25.4935 233.732 24.9172 233.156C24.2834 232.522 23.3038 232.695 22.1513 232.926C21.2293 233.099 20.1344 233.329 19.0972 233.156C18.06 232.983 17.138 232.407 16.3312 231.888C15.294 231.255 14.3144 230.621 13.45 231.312ZM4.69115 249.234C4.34541 249.176 4.17251 249.119 4.05727 249.119C4.11489 248.888 4.40301 248.312 4.63351 247.909C5.15213 246.987 5.72837 245.834 5.90125 244.451C6.07412 243.068 5.67077 241.858 5.38265 240.82C5.2674 240.359 5.09453 239.783 5.09453 239.553C5.15215 239.553 5.38264 239.495 5.72838 239.553C7.80285 239.783 12.4704 243.414 14.9482 245.488C12.1247 246.929 6.76562 249.464 4.69115 249.234ZM40.0724 229.583L44.279 235.173L-0.783145 268.942L-4.9897 263.352L40.0724 229.583ZM22.497 234.539C22.958 234.424 23.5343 234.309 23.8224 234.366C23.8224 234.482 23.8224 234.654 23.7647 235C23.419 237.075 19.4429 241.454 17.2532 243.817C15.9855 240.878 13.7958 235.346 14.1991 233.271C14.2568 232.926 14.3144 232.753 14.372 232.638C14.6025 232.695 15.1211 233.041 15.5245 233.271C16.3889 233.848 17.5413 234.539 18.8667 234.77C20.192 235 21.5174 234.712 22.497 234.539Z" fill="white"/>
<path d="M86.6327 160.028C88.2462 160.662 89.9749 161.066 91.5307 160.835C93.6628 160.547 95.2187 159.74 96.2559 158.53C97.1779 157.377 97.5237 155.937 97.2932 154.323C97.0627 152.652 96.2559 151.327 95.0458 150.52C93.7781 149.656 92.0493 149.367 89.9749 149.656C87.036 150.059 84.1548 152.71 82.5413 154.496C83.521 152.306 84.9039 148.676 84.1548 145.795C83.6362 143.778 82.7142 142.337 81.4465 141.473C80.1788 140.666 78.6805 140.435 77.067 140.839C74.4163 141.53 72.0537 143.951 73.2639 148.618C73.6672 150.174 74.7044 151.615 75.9146 152.825L64.6202 145.276L59.7222 152.594L93.0866 174.838L97.9846 167.52L86.6327 160.028ZM90.2054 151.211C91.8765 150.981 93.2018 151.211 94.1814 151.845C95.2763 152.594 95.622 153.747 95.7373 154.554C95.8525 155.361 95.7949 156.571 95.0458 157.55C94.2967 158.472 93.0866 159.049 91.3578 159.279C88.3614 159.683 84.2701 157.147 83.06 156.34C84.2125 154.957 87.3241 151.615 90.2054 151.211ZM74.7621 148.215C73.9553 145.103 74.8773 142.971 77.4128 142.337C78.2195 142.106 79.4296 142.049 80.5245 142.74C81.5041 143.374 82.1956 144.527 82.599 146.14C83.3481 148.964 81.4465 153.056 80.6397 154.727C79.4873 153.978 75.5112 151.154 74.7621 148.215ZM92.6256 172.706L81.2736 165.099L61.9119 152.191L65.0236 147.523L95.7373 168.038L92.6256 172.706Z" fill="white"/>
<path d="M13.4388 466.384C15.0523 467.018 16.781 467.421 18.3369 467.191C20.469 466.903 22.0248 466.096 23.062 464.886C23.984 463.733 24.3298 462.293 24.0993 460.679C23.8688 459.008 23.0621 457.682 21.852 456.876C20.5842 456.011 18.8555 455.723 16.781 456.011C13.8422 456.415 10.961 459.065 9.34749 460.852C10.3271 458.662 11.7101 455.032 10.961 452.15C10.4423 450.133 9.52038 448.693 8.25265 447.828C6.98492 447.022 5.48667 446.791 3.87319 447.194C1.22248 447.886 -1.1401 450.306 0.0700083 454.974C0.473377 456.53 1.5106 457.971 2.72071 459.181L-8.57362 451.632L-13.4717 458.95L19.8927 481.194L24.7908 473.875L13.4388 466.384ZM17.0115 457.567C18.6826 457.337 20.008 457.567 20.9876 458.201C22.0824 458.95 22.4282 460.103 22.5434 460.91C22.6587 461.716 22.6011 462.926 21.852 463.906C21.1028 464.828 19.8927 465.404 18.164 465.635C15.1675 466.038 11.0762 463.503 9.86612 462.696C11.0186 461.313 14.1303 457.971 17.0115 457.567ZM1.56822 454.571C0.761484 451.459 1.68349 449.327 4.21896 448.693C5.0257 448.462 6.23578 448.405 7.33064 449.096C8.31026 449.73 9.00177 450.883 9.40514 452.496C10.1543 455.32 8.25264 459.411 7.4459 461.082C6.29342 460.333 2.31734 457.51 1.56822 454.571ZM19.4317 479.062L8.07975 471.455L-11.282 458.547L-8.17025 453.879L22.5434 474.394L19.4317 479.062Z" fill="white"/>
<path d="M88.6496 174.435L86.0565 177.143L56.2071 178.353L53.2107 176.337L54.1327 174.204L85.0192 172.937C85.4802 172.937 85.7683 172.533 85.7683 172.13C85.7683 171.669 85.365 171.381 84.9616 171.381L54.8242 172.648L56.7258 168.326L76.779 167.52C77.2399 167.52 77.5281 167.116 77.5281 166.713C77.5281 166.252 77.1247 165.964 76.7213 165.964L57.4173 166.771L59.3188 162.449L68.5963 162.045C69.0573 162.045 69.3455 161.642 69.3455 161.238C69.3455 160.777 68.9421 160.489 68.5387 160.489L60.0679 160.835L61.9119 156.628C62.0848 156.225 61.9119 155.764 61.5086 155.591C61.1052 155.418 60.6442 155.591 60.4713 155.994L51.1938 176.913L73.8401 192.069L89.802 175.53C90.0902 175.242 90.0902 174.723 89.802 174.435C89.4563 174.089 88.9953 174.089 88.6496 174.435ZM73.6096 189.994L66.6947 185.384L78.5077 184.923L73.6096 189.994ZM80.1211 183.309L64.4474 183.886L58.3969 179.852L84.443 178.757L80.1211 183.309Z" fill="white"/>
<path d="M15.4557 480.791L12.8626 483.499L-16.9867 484.709L-19.9832 482.692L-19.0612 480.56L11.8254 479.292C12.2863 479.292 12.5745 478.889 12.5745 478.486C12.5745 478.025 12.1711 477.736 11.7677 477.736L-18.3697 479.004L-16.4681 474.682L3.58511 473.875C4.0461 473.875 4.33421 473.472 4.33421 473.069C4.33421 472.608 3.93087 472.32 3.5275 472.32L-15.7766 473.126L-13.875 468.804L-4.59753 468.401C-4.13654 468.401 -3.84839 467.998 -3.84839 467.594C-3.84839 467.133 -4.25177 466.845 -4.65514 466.845L-13.1259 467.191L-11.2819 462.984C-11.109 462.581 -11.2819 462.12 -11.6853 461.947C-12.0887 461.774 -12.5497 461.947 -12.7225 462.35L-22 483.269L0.646288 498.424L16.6082 481.885C16.8963 481.597 16.8963 481.079 16.6082 480.791C16.2624 480.445 15.8014 480.445 15.4557 480.791ZM0.415777 496.35L-6.49912 491.74L5.31383 491.279L0.415777 496.35ZM6.9273 489.665L-8.74644 490.241L-14.797 486.207L11.2491 485.113L6.9273 489.665Z" fill="white"/>
<path d="M56.1497 317.752L63.5256 320.633C63.6408 320.691 63.8137 320.691 63.9866 320.691C64.3323 320.691 64.6205 320.518 64.7933 320.23C65.0815 319.826 65.0815 319.308 64.7933 318.904C63.4104 317.175 60.4139 312.508 62.8917 306.86C63.0646 306.399 62.9493 305.881 62.546 305.535C62.1426 305.247 61.5664 305.247 61.2206 305.535L52.6922 312.335L61.0478 300.464L58.5123 301.501C55.5158 302.769 52.116 303.46 48.5433 303.576C42.4351 303.806 37.7099 302.25 37.6523 302.25L35.0592 301.386L44.2214 312.623L35.1744 306.572C34.7711 306.284 34.1948 306.342 33.8491 306.687C33.5033 307.033 33.3881 307.552 33.6186 308.013C36.4998 313.43 33.8491 318.328 32.5813 320.172C32.2932 320.575 32.3509 321.094 32.639 321.497C32.8695 321.728 33.1576 321.901 33.5033 321.901C33.6762 321.901 33.7915 321.843 33.9067 321.786L41.0521 318.328C35.0592 323.572 30.5069 333.714 30.7374 340.111C31.0255 348.697 40.5911 352.846 49.811 352.5C59.0309 352.155 68.2508 347.314 67.9051 338.728C67.7322 332.331 62.4884 322.592 56.1497 317.752ZM60.7596 307.955C59.4919 312.45 61.1054 316.253 62.546 318.558L52.4617 314.582L60.7596 307.955ZM39.4962 304.498C41.5707 304.959 44.7401 305.42 48.5433 305.304C51.4245 305.189 54.1329 304.728 56.6683 303.979L49.35 314.352C48.9467 314.928 48.0246 314.928 47.5637 314.409L39.4962 304.498ZM34.7711 319.538C36.0388 317.175 37.3641 313.257 35.7507 308.877L44.5096 314.87L34.7711 319.538ZM49.811 350.887C41.3402 351.175 32.639 347.544 32.4085 339.995C32.1203 332.331 39.6691 317.982 47.5637 316.541C47.1027 319.826 45.3163 330.314 40.9369 336.423C40.7064 336.768 40.764 337.287 41.1098 337.518C41.2826 337.633 41.4555 337.69 41.5707 337.69C41.8012 337.69 42.0317 337.575 42.2046 337.345C46.1231 331.928 47.967 323.514 48.7738 318.904C50.0991 322.419 52.4041 327.779 54.7091 329.392C54.882 329.507 55.0548 329.565 55.1701 329.565C55.4006 329.565 55.6311 329.45 55.804 329.219C56.0345 328.874 55.9768 328.355 55.6311 328.124C53.4413 326.569 50.7906 319.941 49.5805 316.484C57.5903 317.348 66.1187 331.063 66.4068 338.728C66.6373 346.277 58.2242 350.541 49.811 350.887Z" fill="white"/>
<path d="M37.2489 406.15L22.2666 389.554C21.9784 389.208 21.4598 389.208 21.1717 389.497C20.826 389.785 20.826 390.303 21.1141 390.591L35.0592 406.035L9.07061 429.489L-4.93207 414.045C-5.2202 413.7 -5.73883 413.7 -6.02695 413.988C-6.37269 414.276 -6.37268 414.794 -6.08456 415.083L8.89774 431.679L37.2489 406.15Z" fill="white"/>
<path d="M-0.206821 404.191C-0.494944 403.845 -1.01357 403.845 -1.3017 404.134L-9.77247 411.798L-15.8806 405.056L-4.75915 395.029L12.4705 414.161L11.1452 405.805L19.3278 407.994L2.09815 388.863L13.2196 378.836L19.3278 385.578L10.396 393.646C10.0503 393.934 10.0503 394.452 10.3384 394.74C10.6265 395.086 11.1452 395.086 11.4333 394.798L21.5175 385.693L13.2772 376.588L5.44035 383.676C5.95896 382.869 6.30472 382.12 6.53522 381.429C7.11146 379.354 6.88094 377.856 5.90133 376.819C4.97934 375.897 3.59637 375.493 2.27101 375.148C0.369413 374.629 -1.58982 374.053 -3.14568 375.436C-3.83717 376.012 -4.29813 376.934 -4.7015 378.259C-4.81675 378.663 -4.87439 379.124 -4.93202 379.642C-5.22014 379.181 -5.50826 378.72 -5.79638 378.375C-9.08096 374.744 -11.4436 376.934 -13.4028 378.663C-15.362 380.391 -17.7246 382.581 -14.4976 386.212C-14.1519 386.558 -13.7485 386.903 -13.3451 387.249C-13.8061 387.249 -14.2671 387.249 -14.7281 387.307C-16.0535 387.537 -17.0331 387.941 -17.667 388.517C-19.2228 389.9 -18.8194 391.917 -18.5313 393.876C-18.3008 395.259 -18.0703 396.7 -17.206 397.679C-16.284 398.774 -14.7858 399.178 -12.7113 398.832C-12.0198 398.717 -11.2131 398.429 -10.3487 397.968L-18.1856 405.056L-9.94533 414.161L-0.264467 405.459C0.0812778 404.998 0.0812988 404.537 -0.206821 404.191ZM-3.14568 378.605C-2.85756 377.625 -2.5118 376.934 -2.0508 376.531C-1.24406 375.781 -0.0339642 376.07 1.86764 376.588C3.02012 376.934 4.17263 377.222 4.80649 377.856C5.15224 378.259 5.61321 378.951 5.03697 380.91C4.57598 382.524 2.96249 384.598 0.311775 386.961C-0.379715 387.595 -1.07118 388.171 -1.53217 388.574C-2.28129 386.442 -3.89479 381.371 -3.14568 378.605ZM0.945663 389.842L14.6026 404.998L9.18592 403.557L10.0503 409.089L-3.60667 393.934L0.945663 389.842ZM-12.3079 379.7C-10.1182 377.741 -9.08096 376.934 -6.94886 379.297C-4.98964 381.429 -4.24052 386.673 -3.9524 388.978C-6.14212 388.517 -11.3283 387.191 -13.2299 385.002C-15.362 382.697 -14.4976 381.717 -12.3079 379.7ZM-12.8842 397.103C-14.8434 397.449 -15.5349 396.93 -15.8806 396.527C-16.4569 395.835 -16.6297 394.625 -16.8602 393.473C-17.206 391.513 -17.3212 390.303 -16.5145 389.554C-16.0535 389.151 -15.362 388.863 -14.3248 388.69C-11.5012 388.171 -6.60313 390.303 -4.58628 391.283C-5.04728 391.744 -5.62351 392.32 -6.37262 393.012C-9.02334 395.432 -11.2707 396.815 -12.8842 397.103Z" fill="white"/>
<path d="M112.621 274.128C112.564 274.128 112.506 274.186 112.449 274.186C112.391 274.186 112.333 274.244 112.333 274.244H112.276L112.218 274.301C112.16 274.359 112.16 274.359 112.103 274.417C112.103 274.474 112.045 274.532 112.045 274.532C112.045 274.589 111.988 274.647 111.988 274.647C111.988 274.705 111.988 274.762 111.988 274.82C111.988 274.878 111.988 274.878 111.988 274.935V274.993C111.988 275.05 112.045 275.108 112.045 275.166C112.045 275.223 112.103 275.281 112.103 275.281V275.339L126.278 292.627L135.613 285.02L145.525 276.895L155.206 268.942L155.84 268.423L141.664 251.136C141.376 250.79 140.915 250.732 140.569 251.02C140.223 251.308 140.166 251.769 140.454 252.115L153.246 267.732L112.621 274.128C112.679 274.128 112.621 274.128 112.621 274.128ZM126.566 290.494L123.743 286.979L132.502 285.654L126.566 290.494ZM134.864 283.694L122.59 285.538L119.018 281.217L142.355 277.586L134.864 283.694ZM152.036 269.634L144.776 275.569L117.865 279.776L114.293 275.454L152.036 269.634Z" fill="white"/>
<path d="M101.327 251.193C101.212 253.902 102.825 256.898 107.665 257.129C108.53 257.186 109.452 257.013 110.316 256.725L100.635 264.62L108.415 274.129L141.26 247.275L133.481 237.766L123.8 245.661C124.261 244.854 124.549 243.99 124.722 243.125C125.471 238.343 122.878 236.153 120.17 235.749C118.499 235.461 117.001 235.865 115.848 236.787C114.638 237.766 113.889 239.322 113.543 241.339C113.082 244.278 114.811 247.793 115.963 249.868C114.177 248.254 111.065 245.892 108.126 245.776C106.052 245.661 104.381 246.122 103.171 247.102C102.076 248.081 101.384 249.522 101.327 251.193ZM115.099 241.627C115.387 239.956 115.963 238.746 116.828 237.997C117.865 237.19 119.075 237.132 119.882 237.305C122.475 237.709 123.627 239.726 123.109 242.895C122.648 245.834 119.017 249.061 117.865 249.983C116.943 248.427 114.696 244.509 115.099 241.627ZM133.251 240.014L139.013 247.044L128.468 255.63L108.587 271.881L102.825 264.851L133.251 240.014ZM104.208 248.37C105.13 247.62 106.398 247.332 108.069 247.39C111.008 247.505 114.35 250.502 115.675 251.769C114.523 252.691 110.719 255.63 107.723 255.515C104.496 255.4 102.767 253.844 102.883 251.251C102.94 250.386 103.228 249.234 104.208 248.37Z" fill="white"/>
<path d="M185.343 198.926L170.649 213.621L145.87 188.899L149.386 185.384C149.674 185.096 149.674 184.577 149.386 184.289C149.097 184.001 148.579 184.001 148.291 184.289L143.681 188.899L170.707 215.868L186.496 200.021C186.784 199.733 186.784 199.214 186.496 198.926C186.207 198.58 185.689 198.58 185.343 198.926Z" fill="white"/>
<path d="M181.655 174.262C181.367 174.55 181.367 175.069 181.655 175.357L196.81 190.455L190.356 196.909L181.252 187.804L180.733 187.343L179.062 185.672C178.774 185.384 178.255 185.384 177.967 185.672C177.679 185.96 177.679 186.479 177.967 186.767L179.638 188.438L180.099 188.899L190.356 199.099L199 190.397L182.75 174.204C182.462 173.916 181.943 173.916 181.655 174.262Z" fill="white"/>
<path d="M177.506 173.859C181.194 171.899 182.059 169.018 180.099 165.215C179.638 164.293 179.12 163.601 178.543 163.025C176.7 161.181 174.337 161.008 171.513 162.506C169.727 163.428 168.229 165.388 167.076 167.405C167.249 165.157 167.076 162.679 166.154 160.893C164.195 157.205 161.256 156.34 157.511 158.3C153.765 160.316 152.843 163.198 154.802 166.886C155.148 167.52 155.609 168.154 156.243 168.73C157.223 169.71 158.433 170.574 159.7 171.265C157.453 171.093 154.975 171.265 153.189 172.187C149.501 174.147 148.637 177.086 150.596 180.831C151.057 181.753 151.575 182.445 152.152 183.021C153.996 184.865 156.358 185.038 159.182 183.54C160.968 182.618 162.466 180.659 163.619 178.642C163.446 180.889 163.619 183.367 164.541 185.153C165.002 186.018 165.52 186.709 166.039 187.286C167.883 189.13 170.303 189.303 173.184 187.747C176.93 185.73 177.852 182.848 175.893 179.16C175.547 178.526 175.086 177.893 174.452 177.316C173.473 176.337 172.262 175.472 170.995 174.781C173.242 174.954 175.72 174.781 177.506 173.859ZM158.433 182.157C155.551 183.713 154.111 182.733 153.246 181.926C152.785 181.465 152.382 180.889 151.979 180.082C150.365 177.086 150.941 175.126 153.88 173.571C156.704 172.072 162.178 173.052 164.253 173.571C163.504 175.587 161.314 180.659 158.433 182.157ZM157.338 167.635C156.819 167.116 156.473 166.655 156.185 166.137C154.629 163.198 155.263 161.296 158.26 159.683C160.565 158.472 162.178 158.53 163.504 159.855C163.965 160.316 164.368 160.893 164.714 161.584C166.212 164.408 165.232 169.882 164.714 171.957C163.158 171.381 159.47 169.767 157.338 167.635ZM173.3 178.469C173.818 178.987 174.164 179.448 174.452 179.967C176.008 182.906 175.374 184.808 172.378 186.421C169.324 188.035 167.422 187.401 165.866 184.52C164.368 181.696 165.348 176.221 165.866 174.147C167.537 174.723 171.168 176.337 173.3 178.469ZM166.385 172.476C167.191 170.459 169.381 165.445 172.205 163.889C175.086 162.333 176.527 163.313 177.391 164.12C177.852 164.581 178.255 165.157 178.659 165.964C180.272 168.96 179.696 170.92 176.757 172.476C173.876 173.974 168.459 172.937 166.385 172.476Z" fill="white"/>
<path d="M147.023 364.083C144.833 362.182 138.091 360.971 134.691 360.51C137.976 359.358 144.372 356.938 146.159 354.633C146.735 353.883 146.965 353.25 146.908 352.673C146.792 351.406 145.525 351.06 144.142 350.656C143.104 350.368 141.894 350.022 140.915 349.273C139.935 348.524 139.301 347.487 138.783 346.507C138.149 345.412 137.573 344.433 136.535 344.375C135.613 344.317 134.922 345.067 134.518 345.643C133.193 347.372 132.444 351.636 132.041 355.151C131.003 351.809 129.505 347.717 127.834 346.277C127.315 345.816 126.509 345.182 125.587 345.412C124.607 345.643 124.204 346.738 123.743 347.948C123.397 348.985 122.936 350.138 122.129 351.06C121.322 351.982 120.228 352.5 119.248 353.019C117.98 353.653 116.828 354.229 116.943 355.497C117.001 356.073 117.346 356.649 118.038 357.283C120.228 359.185 126.97 360.395 130.369 360.856C127.085 362.009 120.689 364.429 118.902 366.734C118.326 367.483 118.095 368.117 118.153 368.693C118.268 369.961 119.536 370.307 120.919 370.71C121.956 370.998 123.166 371.344 124.146 372.093C125.126 372.842 125.76 373.88 126.278 374.859C126.97 376.012 127.488 376.934 128.525 376.992C129.447 377.049 130.139 376.3 130.542 375.724C131.868 373.995 132.617 369.731 133.02 366.215C134.057 369.558 135.556 373.649 137.227 375.09C137.745 375.551 138.552 376.185 139.474 375.954C140.511 375.724 140.857 374.629 141.318 373.419C141.664 372.381 142.125 371.229 142.932 370.307C143.738 369.385 144.833 368.866 145.813 368.348C147.08 367.714 148.233 367.137 148.118 365.87C148.06 365.236 147.714 364.66 147.023 364.083ZM119.306 355.9C119.017 355.612 118.845 355.439 118.845 355.382C119.075 355.209 119.651 354.863 120.17 354.633C121.265 354.114 122.59 353.422 123.627 352.27C124.665 351.117 125.183 349.734 125.587 348.582C125.76 348.063 125.99 347.429 126.163 347.199C126.278 347.256 126.451 347.372 126.739 347.602C128.526 349.158 130.485 355.612 131.407 359.127C127.719 358.666 121.092 357.514 119.306 355.9ZM129.217 374.571C128.986 374.917 128.814 375.032 128.698 375.09C128.468 374.917 128.122 374.283 127.834 373.822C127.2 372.785 126.451 371.517 125.241 370.537C124.031 369.615 122.59 369.212 121.438 368.866C120.919 368.751 120.228 368.521 119.997 368.348C120.055 368.232 120.112 368.059 120.4 367.714C121.841 365.87 128.122 363.449 131.58 362.297C131.349 366.043 130.658 372.727 129.217 374.571ZM135.901 346.738C136.132 346.392 136.305 346.277 136.42 346.219C136.651 346.392 136.996 347.026 137.284 347.487C137.918 348.524 138.667 349.792 139.877 350.714C141.088 351.636 142.528 352.039 143.681 352.385C144.199 352.5 144.891 352.731 145.121 352.904C145.064 353.019 145.006 353.192 144.718 353.538C143.277 355.439 136.996 357.802 133.539 358.955C133.769 355.324 134.461 348.639 135.901 346.738ZM145.006 366.676C143.911 367.195 142.586 367.887 141.549 369.039C140.511 370.192 139.993 371.575 139.589 372.727C139.416 373.246 139.186 373.88 139.013 374.11C138.898 374.053 138.725 373.937 138.437 373.707C136.651 372.151 134.691 365.697 133.769 362.182C137.4 362.7 144.026 363.853 145.813 365.409C146.159 365.697 146.274 365.87 146.331 365.927C146.101 366.158 145.467 366.446 145.006 366.676Z" fill="white"/>
<path d="M159.066 353.422L156.934 331.179L134.691 333.311L125.299 334.175L103.056 336.307L105.188 358.551L108.184 390.246L130.427 388.113L162.12 385.117L159.988 362.873L159.066 353.422ZM140.511 385.29L139.82 378.202C139.762 377.683 139.359 377.337 138.84 377.395C138.322 377.453 137.976 377.856 138.034 378.375L138.725 385.463L131.119 386.154L130.427 379.066C130.37 378.548 129.966 378.202 129.448 378.259C128.929 378.317 128.583 378.72 128.641 379.239L129.332 386.327L109.74 388.171L107.896 368.578L114.984 367.887C115.502 367.829 115.848 367.426 115.791 366.907C115.733 366.388 115.33 366.043 114.811 366.1L107.723 366.792L107.032 359.185L114.119 358.494C114.638 358.436 114.984 358.033 114.926 357.514C114.869 356.995 114.465 356.649 113.947 356.707L106.859 357.399L105.015 337.806L124.607 335.962L125.299 343.05C125.356 343.568 125.76 343.914 126.278 343.856C126.797 343.799 127.143 343.395 127.085 342.877L126.393 335.789L134 335.097L134.691 342.185C134.749 342.704 135.152 343.05 135.671 342.992C136.19 342.934 136.535 342.531 136.478 342.012L135.786 334.924L155.378 333.08L157.222 352.673L150.135 353.365C149.616 353.422 149.27 353.826 149.328 354.344C149.386 354.863 149.789 355.209 150.308 355.151L157.395 354.46L158.087 362.066L150.999 362.758C150.48 362.816 150.135 363.219 150.192 363.738C150.25 364.256 150.653 364.602 151.172 364.544L158.26 363.853L160.104 383.446L140.511 385.29Z" fill="white"/>
<path d="M80.755 46.0435C81.2736 46.2163 81.6194 46.274 81.6194 46.274L82.138 46.3892L82.599 46.5621C82.599 46.5621 82.9447 46.6773 83.4633 46.8502C85.4226 47.4265 90.263 48.5214 93.3747 47.0231C97.7541 44.8909 98.0422 41.491 96.8321 39.0707C96.083 37.5724 94.9305 36.5351 93.4899 36.1317C91.9917 35.7283 90.263 35.9588 88.419 36.8809C85.7683 38.1486 83.8667 41.6062 82.8295 43.7384C83.1176 41.3757 83.2905 37.4571 81.677 34.9792C80.5821 33.2504 79.2568 32.0979 77.7585 31.6945C76.3179 31.2911 74.8197 31.5216 73.3791 32.4436C71.0741 33.8843 69.5183 36.9385 72.169 41.03C74.0706 43.8537 78.7958 45.4672 80.755 46.0435ZM89.1681 38.2063C90.6663 37.4571 91.9917 37.2842 93.1442 37.5724C94.4119 37.9181 95.1034 38.8978 95.5068 39.7046C96.6593 42.0672 95.6796 44.1418 92.7984 45.5824C90.0901 46.9078 85.4225 45.7553 83.9819 45.3519C84.6158 43.5655 86.5174 39.4741 89.1681 38.2063ZM74.3011 33.6538C74.9926 33.1928 76.1451 32.7318 77.4128 33.0775C78.5077 33.3657 79.5449 34.2877 80.4669 35.6707C82.0227 38.1486 81.5041 42.5859 81.216 44.4299C79.833 44.0265 75.2231 42.5859 73.6096 40.0503C71.8232 37.3419 72.0537 35.0944 74.3011 33.6538Z" fill="white"/>
<path d="M79.1992 56.6467C80.0636 56.8772 100.232 62.5246 101.442 58.2026L103.113 52.3248C103.459 50.9993 102.076 49.5587 98.7338 47.8299C98.3305 47.5994 97.8694 47.7723 97.639 48.1757C97.4085 48.579 97.5813 49.04 97.9847 49.2706C101.327 51.057 101.557 51.9214 101.615 51.9214C100.981 52.8434 93.6052 52.7281 81.2737 49.2706C68.9421 45.813 62.661 42.0096 62.5458 40.9724C62.6034 40.9147 63.3525 40.2232 67.8472 40.6266C68.3082 40.6842 68.654 40.3385 68.7116 39.8775C68.7692 39.4164 68.4235 39.0707 67.9625 39.0131C62.2577 38.4944 61.2781 39.647 61.0476 40.5113L59.3188 46.6197H59.3765C58.8578 50.8841 78.3925 56.4162 79.1992 56.6467ZM62.0848 42.7011C66.0609 46.5045 80.1788 50.5383 80.8703 50.7688C81.5618 50.9993 95.6797 54.9179 101.096 53.7654L99.9439 57.7993C99.2524 58.7213 91.9342 58.606 79.6026 55.1484C67.271 51.6909 60.99 47.8875 60.8747 46.7926L62.0848 42.7011Z" fill="white"/>
<path d="M73.0334 78.4871C74.8198 79.0057 90.436 83.2701 91.4732 79.6972L96.256 62.7551C96.3713 62.3517 96.1408 61.8907 95.7374 61.7754C95.334 61.6602 94.873 61.8907 94.7578 62.2941L89.975 79.1786C89.2259 79.8701 83.1177 79.6972 73.4944 76.9312C63.8135 74.2227 58.5698 71.1685 58.2816 70.1889L63.0644 53.3044C63.1797 52.901 62.9492 52.44 62.5458 52.3247C62.1424 52.2095 61.6815 52.44 61.5662 52.8433L56.7834 69.7855C55.6885 73.4736 71.2471 77.9684 73.0334 78.4871Z" fill="white"/>
<path d="M165.175 102.46L179.12 117.904L153.131 141.357L139.128 125.914C138.84 125.568 138.322 125.568 138.034 125.856C137.688 126.144 137.688 126.663 137.976 126.951L152.958 143.547L181.309 117.961L166.327 101.365C166.039 101.019 165.52 101.019 165.232 101.307C164.886 101.653 164.886 102.114 165.175 102.46Z" fill="white"/>
<path d="M126.97 109.432C127.892 110.585 129.39 110.931 131.464 110.585C132.156 110.47 132.963 110.182 133.827 109.721L125.99 116.809L134.23 125.914L143.911 117.212C144.257 116.924 144.257 116.405 143.969 116.117C143.681 115.771 143.162 115.771 142.874 116.059L134.403 123.724L128.18 116.924L139.301 106.897L156.531 126.029L155.206 117.673L163.388 119.863L146.159 100.731L157.28 90.7039L163.388 97.4462L154.456 105.514C154.111 105.802 154.111 106.321 154.399 106.609C154.687 106.955 155.206 106.955 155.494 106.666L165.578 97.5614L157.338 88.4565L149.501 95.5445C150.019 94.7377 150.365 93.9886 150.596 93.2971C151.172 91.2225 150.941 89.7242 149.962 88.687C149.04 87.7649 147.657 87.3616 146.331 87.0158C144.43 86.4972 142.471 85.9209 140.915 87.3039C140.223 87.8802 139.762 88.8022 139.359 90.1276C139.244 90.531 139.186 90.992 139.128 91.5107C138.84 91.0496 138.552 90.5886 138.264 90.2429C134.979 86.6124 132.617 88.8022 130.658 90.531C128.698 92.2598 126.336 94.4496 129.563 98.0801C129.909 98.4258 130.312 98.7716 130.715 99.1173C130.254 99.1173 129.793 99.1173 129.332 99.175C128.007 99.4055 127.027 99.8088 126.393 100.385C124.838 101.768 125.241 103.785 125.529 105.744C125.875 107.012 126.105 108.395 126.97 109.432ZM140.915 90.4734C141.203 89.4937 141.549 88.8022 142.01 88.3988C142.816 87.6497 144.026 87.9378 145.928 88.4565C147.081 88.8022 148.233 89.0903 148.867 89.7242C149.213 90.1276 149.674 90.8191 149.097 92.7784C148.636 94.392 147.023 96.4665 144.372 98.8292C143.681 99.4631 142.989 100.039 142.528 100.443C141.779 98.3106 140.166 93.2394 140.915 90.4734ZM145.006 101.711L158.663 116.866L153.246 115.426L154.111 120.958L140.454 105.802L145.006 101.711ZM131.753 91.5683C133.942 89.609 134.979 88.8022 137.112 91.1649C139.071 93.2971 139.82 98.5987 140.108 100.846C137.918 100.385 132.732 99.0597 130.831 96.8699C128.698 94.5649 129.563 93.5852 131.753 91.5683ZM127.546 101.422C128.007 101.019 128.698 100.731 129.736 100.558C132.559 100.039 137.457 102.172 139.474 103.151C139.013 103.612 138.437 104.188 137.688 104.88C135.037 107.243 132.79 108.683 131.176 108.971C129.217 109.317 128.526 108.799 128.18 108.395C127.604 107.704 127.431 106.494 127.2 105.341C126.854 103.439 126.739 102.172 127.546 101.422Z" fill="white"/>
<path d="M-27.0597 67.3651C-27.002 67.9414 -26.6563 68.5177 -25.9648 69.1515C-23.7751 71.0532 -17.0331 72.2634 -13.6332 72.7244C-16.9178 73.8769 -23.3141 76.2972 -25.1004 78.6023C-25.6767 79.3514 -25.9072 79.9853 -25.8495 80.5616C-25.7343 81.8293 -24.4666 82.1751 -23.0836 82.5785C-22.0464 82.8666 -20.8363 83.2124 -19.8567 83.9615C-18.877 84.7107 -18.2432 85.7479 -17.7246 86.7276C-17.0331 87.8225 -16.5144 88.8021 -15.4772 88.8598C-14.5552 88.9174 -13.8637 88.1682 -13.4604 87.592C-12.135 85.8632 -11.3859 81.5988 -10.9825 78.0836C-9.94531 81.426 -8.44709 85.5174 -6.776 86.9581C-6.25738 87.4191 -5.45063 88.053 -4.52865 87.8225C-3.49142 87.592 -3.14566 86.4971 -2.68467 85.2869C-2.33893 84.2497 -1.87794 83.0971 -1.07121 82.1751C-0.264469 81.2531 0.830387 80.7344 1.81 80.2158C3.07772 79.5819 4.2302 79.0056 4.11496 77.7379C4.05733 77.1616 3.71157 76.5853 3.02008 75.9515C0.830372 74.0498 -5.91162 72.8396 -9.31143 72.3786C-6.02687 71.2261 0.369381 68.8058 2.15573 66.5007C2.73196 65.7516 2.96245 65.1177 2.90483 64.5414C2.78958 63.2737 1.52186 62.9279 0.138884 62.5245C-0.898348 62.2364 -2.10844 61.8906 -3.08805 61.1415C-4.06765 60.3923 -4.70152 59.3551 -5.22014 58.3754C-5.85401 57.2229 -6.43026 56.3009 -7.46749 56.2432C-8.38948 56.1856 -9.08097 56.9348 -9.48433 57.511C-10.8097 59.2398 -11.5588 63.5042 -11.9622 67.0194C-12.9994 63.677 -14.4976 59.5856 -16.1687 58.1449C-16.6873 57.6839 -17.4941 57.05 -18.4161 57.2805C-19.3957 57.511 -19.799 58.6059 -20.26 59.8161C-20.6057 60.8534 -21.0668 62.0059 -21.8735 62.9279C-22.6802 63.8499 -23.7751 64.3686 -24.7547 64.8872C-26.0224 65.5211 -27.1749 66.0974 -27.0597 67.3651ZM1.75235 77.2769C2.09809 77.565 2.21336 77.7379 2.27098 77.7955C2.04048 78.026 1.46425 78.3141 0.945635 78.5446C-0.149221 79.0633 -1.47457 79.7548 -2.51181 80.9073C-3.54904 82.0598 -4.06767 83.4429 -4.47104 84.5954C-4.64391 85.114 -4.8744 85.7479 -5.04728 85.9784C-5.16253 85.9208 -5.3354 85.8056 -5.62352 85.5751C-7.40986 84.0191 -9.36906 77.565 -10.291 74.0498C-6.60311 74.5108 0.0236301 75.721 1.75235 77.2769ZM-8.15895 58.6059C-7.92846 58.2602 -7.75561 58.1449 -7.64036 58.0873C-7.40986 58.2602 -7.06412 58.8941 -6.776 59.3551C-6.14213 60.3923 -5.39302 61.6601 -4.18292 62.5821C-2.97281 63.5042 -1.53219 63.9076 -0.379711 64.2533C0.138906 64.3686 0.830393 64.5991 1.06089 64.7719C1.00327 64.8872 0.945635 65.0601 0.657515 65.4058C-0.783085 67.2499 -7.06412 69.6702 -10.5216 70.8227C-10.2911 67.1923 -9.59955 60.5076 -8.15895 58.6059ZM-14.8434 86.4395C-15.0739 86.7852 -15.2467 86.9005 -15.362 86.9581C-15.5925 86.7852 -15.9382 86.1513 -16.2263 85.6903C-16.8602 84.653 -17.6093 83.3853 -18.8194 82.4056C-20.0295 81.4836 -21.4701 81.0802 -22.6226 80.7344C-23.1412 80.6192 -23.8327 80.3887 -24.0632 80.2158C-24.0056 80.1006 -23.9479 79.9277 -23.6598 79.5819C-22.2192 77.7379 -15.9382 75.3176 -12.4808 74.165C-12.7113 77.9108 -13.4028 84.5954 -14.8434 86.4395ZM-23.9479 66.5007C-22.8531 65.9821 -21.5277 65.2906 -20.4905 64.1381C-19.4533 62.9855 -18.9346 61.6025 -18.5313 60.45C-18.3584 59.9313 -18.1279 59.2974 -17.955 59.0669C-17.8398 59.1246 -17.6669 59.2398 -17.3788 59.4703C-15.5925 61.0262 -13.6332 67.4804 -12.7113 70.9956C-16.3416 70.477 -22.9684 69.3244 -24.7547 67.7685C-25.0428 67.4804 -25.2157 67.3075 -25.2157 67.2499C-25.0428 67.0194 -24.4089 66.7312 -23.9479 66.5007Z" fill="white"/>
<path d="M-35.934 102.056L-13.691 99.9241L18.0023 96.9275L15.8702 74.6837L15.0058 65.2907L12.9314 42.9893L-9.31157 45.1214L-18.762 45.9858L-41.0049 48.118L-38.8728 70.3618L-35.934 102.056ZM-19.4534 47.8875L-18.762 54.9755C-18.7043 55.4942 -18.301 55.8399 -17.7823 55.7823C-17.2637 55.7247 -16.918 55.3213 -16.9756 54.8027L-17.6671 47.7146L-10.0607 47.0231L-9.36921 54.1111C-9.31159 54.6298 -8.90821 54.9755 -8.3896 54.9179C-7.87098 54.8603 -7.52522 54.4569 -7.58284 53.9383L-8.27434 46.8502L11.3179 45.0062L13.1619 64.5991L6.07407 65.2907C5.55545 65.3483 5.20972 65.7517 5.26735 66.2703C5.32497 66.7889 5.72835 67.1347 6.24697 67.0771L13.3347 66.3855L14.0262 73.9922L6.93843 74.6837C6.41981 74.7414 6.07409 75.1448 6.13171 75.6634C6.18934 76.182 6.59271 76.5278 7.11133 76.4702L14.1991 75.7786L16.0431 95.3716L-3.54915 97.2156L-4.24065 90.1276C-4.29827 89.609 -4.70164 89.2632 -5.22026 89.3208C-5.73888 89.3785 -6.08464 89.7818 -6.02702 90.3005L-5.33552 97.3885L-12.9419 98.08L-13.6334 90.992C-13.691 90.4734 -14.0944 90.1276 -14.613 90.1852C-15.1316 90.2429 -15.4774 90.6462 -15.4198 91.1649L-14.7283 98.2529L-34.3205 100.097L-36.1645 80.504L-29.0767 79.8125C-28.5581 79.7549 -28.2123 79.3515 -28.2699 78.8328C-28.3276 78.3142 -28.7309 77.9684 -29.2496 78.0261L-36.3373 78.7176L-37.0288 71.1109L-29.9411 70.4194C-29.4224 70.3618 -29.0767 69.9584 -29.1343 69.4397C-29.1919 68.9211 -29.5953 68.5754 -30.1139 68.633L-37.2017 69.3245L-39.0457 49.7315L-19.4534 47.8875Z" fill="white"/>
</g>
<defs>
<clipPath id="clip0">
<rect width="537" height="504" fill="white" transform="translate(-338)"/>
</clipPath>
</defs>
</svg>
