<svg width="55" height="52" viewBox="0 0 55 52" fill="none" xmlns="http://www.w3.org/2000/svg">
<path d="M3.28049 21.3535V51H29.5063" stroke="#505050" stroke-width="2" stroke-miterlimit="10"/>
<path d="M19.244 20.2132H1V12.2314H44.3295V20.2132H26.0855" stroke="#505050" stroke-width="2" stroke-miterlimit="10"/>
<path d="M22.6645 12.2315C22.6645 12.2315 18.3316 11.7754 14.9108 10.5211C11.4901 9.26682 10.5779 5.61802 12.2883 3.10946C14.4547 0.258837 18.6737 0.372862 20.156 2.99544C21.6383 5.61802 22.6645 12.2315 22.6645 12.2315Z" stroke="#505050" stroke-width="2" stroke-miterlimit="10" stroke-linejoin="round"/>
<path d="M22.6648 12.2314C22.6648 12.2314 27.1117 11.4332 29.5063 9.95091C31.4447 8.69663 32.2429 5.96003 30.6465 4.24966C29.0502 2.42525 26.1995 3.22343 24.9453 5.38991C23.691 7.55638 22.6648 12.2314 22.6648 12.2314Z" stroke="#505050" stroke-width="2" stroke-miterlimit="10" stroke-linejoin="round"/>
<path d="M26.0855 12.2314H19.244V51H26.0855V12.2314Z" stroke="#505050" stroke-width="2" stroke-miterlimit="10"/>
<path d="M31.7868 39.5975V51H52.3113V39.5975" stroke="#505050" stroke-width="2" stroke-miterlimit="10"/>
<path d="M39.7685 39.5975H30.6465V32.756H53.4515V39.5975H45.4698" stroke="#505050" stroke-width="2" stroke-miterlimit="10"/>
<path d="M45.4698 32.756V51" stroke="#505050" stroke-width="2" stroke-miterlimit="10"/>
<path d="M39.7685 51V32.756" stroke="#505050" stroke-width="2" stroke-miterlimit="10"/>
<path d="M42.049 20.2132V24.7742" stroke="#505050" stroke-width="2" stroke-miterlimit="10"/>
<path d="M42.0489 32.756C42.0489 32.756 41.8208 28.5371 39.7684 26.7127C38.286 25.4584 36.6897 25.6865 35.6635 26.9408C34.6372 28.195 34.5232 29.7914 36.0055 31.0457C37.944 32.8701 42.0489 32.756 42.0489 32.756Z" stroke="#505050" stroke-width="2" stroke-miterlimit="10"/>
<path d="M42.049 32.756C42.049 32.756 42.6192 28.5371 44.6716 26.7127C46.1539 25.4584 47.7503 25.6865 48.7765 26.9408C49.8027 28.081 49.9168 29.7914 48.4344 31.0457C46.382 32.8701 42.049 32.756 42.049 32.756Z" stroke="#505050" stroke-width="2" stroke-miterlimit="10"/>
</svg>
