<svg width="122" height="137" viewBox="0 0 122 137" fill="none" xmlns="http://www.w3.org/2000/svg">
<path d="M107.814 108.308V62.7359H96.4651V39.95H99.3023V17.1642H78.307C82.2791 13.1766 82.5628 7.48017 78.5907 3.49265C74.6186 -1.06452 68.6605 -1.06452 64.1209 2.923C62.1349 4.63194 61 6.91053 59.8651 9.18911C58.7302 6.91053 57.5953 4.63194 55.6093 2.923C53.3395 0.929239 50.786 -0.210055 47.9488 0.0747688C45.3953 0.359592 43.1256 1.49889 41.1395 3.49265C37.4512 7.765 37.7349 13.1766 41.4233 17.1642H22.6977V39.95H25.5349V62.7359H14.186V108.308H0V136.79H51.0698H70.9302H122V108.308H107.814ZM102.14 68.4324V108.308H70.9302V102.611H73.7674C75.4698 102.611 76.6047 101.472 76.6047 99.7629C76.6047 98.054 75.4698 96.9147 73.7674 96.9147H70.9302V79.8253H73.7674C75.4698 79.8253 76.6047 78.686 76.6047 76.9771C76.6047 75.2681 75.4698 74.1288 73.7674 74.1288H70.9302V68.4324H96.4651H102.14ZM90.7907 62.7359H70.9302V39.95H90.7907V62.7359ZM93.6279 34.2536H70.9302V22.8606H93.6279V34.2536ZM68.093 6.91053C68.9442 6.05606 70.0791 5.48641 71.214 5.48641C72.3488 5.48641 73.4837 6.05606 74.3349 7.19535C76.0372 9.18911 76.0372 11.7525 73.7674 13.4615C71.214 15.74 66.6744 16.5945 63.2698 16.8793C64.1209 13.7463 65.5395 9.18911 68.093 6.91053ZM45.6791 7.19535C46.5302 6.34088 47.6651 5.77123 48.5163 5.48641H48.8C49.9349 5.48641 51.0698 6.05606 51.9209 6.91053C54.4744 9.18911 55.893 13.7463 56.7442 16.8793C53.3395 16.5945 48.8 15.74 46.2465 13.4615C43.9767 11.4677 43.693 9.18911 45.6791 7.19535ZM28.3721 22.8606H51.0698V34.2536H28.3721V22.8606ZM31.2093 39.95H51.0698V62.7359H31.2093V39.95ZM19.8605 68.4324H25.5349H51.0698V74.1288H48.2326C46.5302 74.1288 45.3953 75.2681 45.3953 76.9771C45.3953 78.686 46.5302 79.8253 48.2326 79.8253H51.0698V96.9147H48.2326C46.5302 96.9147 45.3953 98.054 45.3953 99.7629C45.3953 101.472 46.5302 102.611 48.2326 102.611H51.0698V108.308H19.8605V68.4324ZM5.67442 131.093V114.004H14.186H51.0698V131.093H5.67442ZM56.7442 131.093V22.8606H57.3116H57.5953C58.4465 22.8606 59.2977 22.8606 59.5814 22.8606C59.8651 22.8606 59.8651 22.8606 59.8651 22.8606H60.1488C60.4326 22.8606 61.2837 22.8606 62.1349 22.8606H62.4186H65.2558V131.093H56.7442ZM116.326 131.093H70.9302V114.004H107.814H116.326V131.093Z" fill="url(#paint0_linear)"/>
<path d="M36.8837 91.2182H39.7209C41.4233 91.2182 42.5581 90.0789 42.5581 88.37C42.5581 86.661 41.4233 85.5217 39.7209 85.5217H36.8837C35.1814 85.5217 34.0465 86.661 34.0465 88.37C34.0465 89.7941 35.1814 91.2182 36.8837 91.2182Z" fill="url(#paint1_linear)"/>
<path d="M31.2093 74.1288H28.3721C26.6698 74.1288 25.5349 75.2681 25.5349 76.977C25.5349 78.686 26.6698 79.8252 28.3721 79.8252H31.2093C32.9116 79.8252 34.0465 78.686 34.0465 76.977C34.0465 75.2681 32.9116 74.1288 31.2093 74.1288Z" fill="url(#paint2_linear)"/>
<path d="M28.3721 102.611H31.2093C32.9116 102.611 34.0465 101.472 34.0465 99.7629C34.0465 98.054 32.9116 96.9147 31.2093 96.9147H28.3721C26.6698 96.9147 25.5349 98.054 25.5349 99.7629C25.5349 101.187 26.6698 102.611 28.3721 102.611Z" fill="url(#paint3_linear)"/>
<path d="M93.6279 74.1288H90.7907C89.0884 74.1288 87.9535 75.2681 87.9535 76.977C87.9535 78.686 89.0884 79.8252 90.7907 79.8252H93.6279C95.3302 79.8252 96.4651 78.686 96.4651 76.977C96.4651 75.2681 95.3302 74.1288 93.6279 74.1288Z" fill="url(#paint4_linear)"/>
<path d="M79.4419 91.2182H82.2791C83.9814 91.2182 85.1163 90.0789 85.1163 88.37C85.1163 86.661 83.9814 85.5217 82.2791 85.5217H79.4419C77.7395 85.5217 76.6046 86.661 76.6046 88.37C76.6046 89.7941 77.7395 91.2182 79.4419 91.2182Z" fill="url(#paint5_linear)"/>
<path d="M93.6279 96.9147H90.7907C89.0884 96.9147 87.9535 98.054 87.9535 99.7629C87.9535 101.472 89.0884 102.611 90.7907 102.611H93.6279C95.3302 102.611 96.4651 101.472 96.4651 99.7629C96.4651 98.054 95.3302 96.9147 93.6279 96.9147Z" fill="url(#paint6_linear)"/>
<defs>
<linearGradient id="paint0_linear" x1="-1.97822e-06" y1="0.0448718" x2="150.94" y2="50.9084" gradientUnits="userSpaceOnUse">
<stop stop-color="#FDCE7D"/>
<stop offset="0.479167" stop-color="#AF7039"/>
<stop offset="0.552083" stop-color="#AF7039"/>
<stop offset="1" stop-color="#FDCE7D"/>
</linearGradient>
<linearGradient id="paint1_linear" x1="34.0465" y1="85.5236" x2="42.9389" y2="90.5438" gradientUnits="userSpaceOnUse">
<stop stop-color="#FDCE7D"/>
<stop offset="0.479167" stop-color="#AF7039"/>
<stop offset="0.552083" stop-color="#AF7039"/>
<stop offset="1" stop-color="#FDCE7D"/>
</linearGradient>
<linearGradient id="paint2_linear" x1="25.5349" y1="74.1307" x2="34.4272" y2="79.1508" gradientUnits="userSpaceOnUse">
<stop stop-color="#FDCE7D"/>
<stop offset="0.479167" stop-color="#AF7039"/>
<stop offset="0.552083" stop-color="#AF7039"/>
<stop offset="1" stop-color="#FDCE7D"/>
</linearGradient>
<linearGradient id="paint3_linear" x1="25.5349" y1="96.9165" x2="34.4272" y2="101.937" gradientUnits="userSpaceOnUse">
<stop stop-color="#FDCE7D"/>
<stop offset="0.479167" stop-color="#AF7039"/>
<stop offset="0.552083" stop-color="#AF7039"/>
<stop offset="1" stop-color="#FDCE7D"/>
</linearGradient>
<linearGradient id="paint4_linear" x1="87.9535" y1="74.1307" x2="96.8459" y2="79.1509" gradientUnits="userSpaceOnUse">
<stop stop-color="#FDCE7D"/>
<stop offset="0.479167" stop-color="#AF7039"/>
<stop offset="0.552083" stop-color="#AF7039"/>
<stop offset="1" stop-color="#FDCE7D"/>
</linearGradient>
<linearGradient id="paint5_linear" x1="76.6046" y1="85.5236" x2="85.497" y2="90.5438" gradientUnits="userSpaceOnUse">
<stop stop-color="#FDCE7D"/>
<stop offset="0.479167" stop-color="#AF7039"/>
<stop offset="0.552083" stop-color="#AF7039"/>
<stop offset="1" stop-color="#FDCE7D"/>
</linearGradient>
<linearGradient id="paint6_linear" x1="87.9535" y1="96.9165" x2="96.8459" y2="101.937" gradientUnits="userSpaceOnUse">
<stop stop-color="#FDCE7D"/>
<stop offset="0.479167" stop-color="#AF7039"/>
<stop offset="0.552083" stop-color="#AF7039"/>
<stop offset="1" stop-color="#FDCE7D"/>
</linearGradient>
</defs>
</svg>
