<svg width="54" height="50" viewBox="0 0 54 50" fill="none" xmlns="http://www.w3.org/2000/svg">
<path d="M26.7892 16.1776C26.7892 16.1776 27.4926 6.79978 32.0642 2.81421C35.2293 0.118081 39.4493 0.586972 41.7937 3.16587C44.1382 5.74478 43.6693 9.37868 40.5043 12.0748C35.9326 15.9432 26.7892 16.1776 26.7892 16.1776Z" stroke="#505050" stroke-width="2" stroke-miterlimit="10"/>
<path d="M26.7889 16.1776C26.7889 16.1776 26.5545 8.08924 22.5689 4.807C19.7556 2.57977 16.1217 3.04866 14.0116 5.04145C12.0189 7.15146 12.3705 10.082 15.0666 12.3093C19.1694 15.5915 23.8584 16.0604 26.7889 16.1776Z" stroke="#505050" stroke-width="2" stroke-miterlimit="10"/>
<path d="M30.3058 48.9999H50.2337V25.5553" stroke="#505050" stroke-width="2" stroke-miterlimit="10"/>
<path d="M3.3447 25.5553V48.9999H23.2726" stroke="#505050" stroke-width="2" stroke-miterlimit="10"/>
<path d="M30.3057 25.5553H52.578V16.1775H1V25.5553H23.2723" stroke="#505050" stroke-width="2" stroke-miterlimit="10"/>
<path d="M30.3056 16.1775H23.2722V48.9999H30.3056V16.1775Z" stroke="#505050" stroke-width="2" stroke-miterlimit="10"/>
</svg>
