<svg width="48" height="46" viewBox="0 0 48 46" fill="none" xmlns="http://www.w3.org/2000/svg">
<path d="M3 44.85H2V45.85H3V44.85ZM1 17.85H0V18.85H1V17.85ZM1 10.85V9.85H0V10.85H1ZM39 10.85H40V9.85H39V10.85ZM39 17.85V18.85H40V17.85H39ZM20 10.85L19.8953 11.8445C19.9891 11.8544 20.0838 11.8509 20.1767 11.8343L20 10.85ZM10.9 2.85L10.1038 2.24492C10.0935 2.25857 10.0834 2.27249 10.0738 2.28666L10.9 2.85ZM26 8.85L26.5264 9.70027C26.532 9.69676 26.5377 9.69319 26.5433 9.68957L26 8.85ZM27 3.85L26.2474 4.5085C26.2545 4.51656 26.2616 4.5245 26.2689 4.53232L27 3.85ZM17 10.85V9.85H16V10.85H17ZM23 10.85H24V9.85H23V10.85ZM23 44.85V45.85H24V44.85H23ZM17 44.85H16V45.85H17V44.85ZM28 44.85H27V45.85H28V44.85ZM46 44.85V45.85H47V44.85H46ZM27 34.85H26V35.85H27V34.85ZM27 28.85V27.85H26V28.85H27ZM47 28.85H48V27.85H47V28.85ZM47 34.85V35.85H48V34.85H47ZM35 23.55L35.6644 22.8026L35.6553 22.7945L35.646 22.7866L35 23.55ZM31.7 27.35L32.3854 26.6218L32.3661 26.6037L32.346 26.5866L31.7 27.35ZM39.3 23.55L38.6541 22.7866L38.6447 22.7945L38.6356 22.8026L39.3 23.55ZM42.9 23.75L42.126 24.3832L42.141 24.4015L42.1567 24.419L42.9 23.75ZM42.6 27.35L41.9541 26.5866L41.9447 26.5945L41.9356 26.6026L42.6 27.35ZM2 18.85V44.85H4V18.85H2ZM3 45.85H26V43.85H3V45.85ZM17 16.85H1V18.85H17V16.85ZM2 17.85V10.85H0V17.85H2ZM1 11.85H39V9.85H1V11.85ZM38 10.85V17.85H40V10.85H38ZM39 16.85H23V18.85H39V16.85ZM20 10.85C20.1047 9.85549 20.1048 9.8555 20.1049 9.85551C20.1049 9.85551 20.1049 9.85552 20.1049 9.85552C20.1049 9.85552 20.1049 9.85552 20.1048 9.85551C20.1046 9.85548 20.1042 9.85544 20.1035 9.85537C20.1022 9.85523 20.1 9.85499 20.0969 9.85466C20.0907 9.85399 20.081 9.85292 20.0679 9.85145C20.0416 9.84851 20.0017 9.84395 19.9492 9.8377C19.8444 9.82519 19.6896 9.80595 19.4938 9.77939C19.102 9.72623 18.5475 9.64399 17.9014 9.52819C16.6005 9.29501 14.9653 8.93219 13.5443 8.41112L12.8558 10.2889C14.4347 10.8678 16.1995 11.255 17.5486 11.4968C18.2275 11.6185 18.8106 11.705 19.225 11.7612C19.4323 11.7894 19.5978 11.81 19.7125 11.8236C19.7698 11.8305 19.8145 11.8356 19.8453 11.839C19.8608 11.8408 19.8727 11.8421 19.8811 11.843C19.8853 11.8434 19.8886 11.8438 19.891 11.844C19.8921 11.8442 19.8931 11.8443 19.8938 11.8443C19.8942 11.8444 19.8945 11.8444 19.8948 11.8444C19.8949 11.8445 19.895 11.8445 19.8951 11.8445C19.8952 11.8445 19.8953 11.8445 20 10.85ZM13.5443 8.41112C11.1582 7.53622 10.5918 5.07718 11.7262 3.41334L10.0738 2.28666C8.20822 5.02282 9.24186 8.96378 12.8558 10.2889L13.5443 8.41112ZM11.6962 3.45508C12.4475 2.46644 13.5464 2 14.575 2C15.611 2 16.4894 2.46357 16.9294 3.24206L18.6706 2.25794C17.8106 0.736427 16.1891 0 14.575 0C12.9536 -1.19209e-07 11.2525 0.733557 10.1038 2.24492L11.6962 3.45508ZM16.9294 3.24206C17.4962 4.24477 18.0209 6.12885 18.4115 7.88017C18.6015 8.73222 18.752 9.51523 18.855 10.0855C18.9064 10.3704 18.9459 10.6014 18.9724 10.7605C18.9856 10.84 18.9956 10.9016 19.0022 10.9428C19.0055 10.9634 19.008 10.979 19.0096 10.9891C19.0104 10.9942 19.011 10.998 19.0114 11.0004C19.0116 11.0016 19.0117 11.0024 19.0118 11.0029C19.0118 11.0031 19.0118 11.0033 19.0118 11.0034C19.0119 11.0034 19.0118 11.0034 19.0119 11.0034C19.0118 11.0034 19.0118 11.0033 20 10.85C20.9882 10.6967 20.9882 10.6966 20.9882 10.6964C20.9881 10.6964 20.9881 10.6962 20.9881 10.6961C20.9881 10.6958 20.988 10.6954 20.9879 10.695C20.9878 10.6941 20.9876 10.6928 20.9873 10.6912C20.9868 10.688 20.9861 10.6834 20.9852 10.6774C20.9833 10.6655 20.9805 10.6482 20.9769 10.6258C20.9697 10.581 20.9591 10.5156 20.9452 10.4321C20.9174 10.265 20.8764 10.0249 20.8232 9.73009C20.7168 9.14102 20.561 8.33028 20.3635 7.44483C19.9791 5.72115 19.4038 3.55523 18.6706 2.25794L16.9294 3.24206ZM20 10.85C20.1767 11.8343 20.1768 11.8342 20.1769 11.8342C20.177 11.8342 20.1772 11.8342 20.1773 11.8342C20.1776 11.8341 20.1779 11.8341 20.1783 11.834C20.179 11.8338 20.1801 11.8337 20.1813 11.8334C20.1838 11.833 20.1872 11.8324 20.1915 11.8316C20.2002 11.83 20.2125 11.8277 20.2284 11.8247C20.26 11.8188 20.3056 11.8101 20.3638 11.7988C20.4802 11.776 20.647 11.7423 20.853 11.6978C21.2646 11.6091 21.8357 11.4768 22.4756 11.3023C23.7285 10.9606 25.3466 10.4306 26.5264 9.70027L25.4736 7.99974C24.5534 8.56944 23.1715 9.03942 21.9494 9.37274C21.3518 9.53571 20.8167 9.65968 20.4314 9.74279C20.239 9.78428 20.0847 9.81543 19.9796 9.83601C19.927 9.8463 19.8868 9.85394 19.8603 9.8589C19.847 9.86138 19.8372 9.8632 19.831 9.86434C19.8279 9.86491 19.8257 9.86531 19.8244 9.86554C19.8238 9.86565 19.8233 9.86573 19.8232 9.86576C19.8231 9.86578 19.8231 9.86578 19.8231 9.86578C19.8231 9.86577 19.8232 9.86576 19.8232 9.86576C19.8233 9.86575 19.8233 9.86573 20 10.85ZM26.5433 9.68957C27.6109 8.99874 28.3662 7.90327 28.6371 6.7239C28.9116 5.52911 28.6931 4.19842 27.7311 3.16768L26.2689 4.53232C26.7069 5.00158 26.8384 5.62089 26.6879 6.2761C26.5338 6.94673 26.0891 7.60126 25.4567 8.01043L26.5433 9.68957ZM27.7526 3.1915C26.778 2.07768 25.4107 1.78021 24.1664 2.06224C22.9457 2.33895 21.8178 3.16884 21.1346 4.34896L22.8654 5.35104C23.2822 4.63116 23.9543 4.16105 24.6086 4.01276C25.2393 3.86979 25.822 4.02232 26.2474 4.5085L27.7526 3.1915ZM21.1346 4.34896C20.5165 5.41647 19.9888 7.02399 19.6263 8.28652C19.4406 8.93333 19.2904 9.51825 19.1866 9.94147C19.1346 10.1533 19.0942 10.3253 19.0665 10.445C19.0527 10.5049 19.042 10.5517 19.0348 10.584C19.0311 10.6001 19.0284 10.6126 19.0264 10.6213C19.0255 10.6256 19.0247 10.629 19.0242 10.6314C19.0239 10.6326 19.0237 10.6335 19.0236 10.6342C19.0235 10.6346 19.0234 10.6349 19.0234 10.6351C19.0233 10.6352 19.0233 10.6353 19.0233 10.6354C19.0233 10.6355 19.0233 10.6356 20 10.85C20.9768 11.0644 20.9767 11.0645 20.9767 11.0645C20.9767 11.0645 20.9767 11.0645 20.9767 11.0645C20.9767 11.0645 20.9768 11.0644 20.9768 11.0643C20.9769 11.064 20.977 11.0634 20.9771 11.0627C20.9775 11.0611 20.978 11.0586 20.9788 11.0551C20.9804 11.0481 20.9828 11.0373 20.986 11.023C20.9925 10.9943 21.0022 10.9512 21.0152 10.8952C21.041 10.7833 21.0794 10.6201 21.129 10.4179C21.2283 10.013 21.3719 9.45417 21.5487 8.83848C21.9112 7.57601 22.3835 6.18353 22.8654 5.35104L21.1346 4.34896ZM17 11.85H23V9.85H17V11.85ZM22 10.85V44.85H24V10.85H22ZM23 43.85H17V45.85H23V43.85ZM18 44.85V10.85H16V44.85H18ZM27 34.85V44.85H29V34.85H27ZM28 45.85H46V43.85H28V45.85ZM47 44.85V34.85H45V44.85H47ZM35 33.85H27V35.85H35V33.85ZM28 34.85V28.85H26V34.85H28ZM27 29.85H47V27.85H27V29.85ZM46 28.85V34.85H48V28.85H46ZM47 33.85H40V35.85H47V33.85ZM39 28.85V44.85H41V28.85H39ZM36 44.85V28.85H34V44.85H36ZM36 17.85V21.85H38V17.85H36ZM37 28.85C37.9986 28.796 37.9985 28.7958 37.9985 28.7955C37.9985 28.7954 37.9985 28.7952 37.9985 28.795C37.9985 28.7945 37.9984 28.7941 37.9984 28.7935C37.9984 28.7925 37.9983 28.7912 37.9982 28.7897C37.998 28.7867 37.9978 28.7828 37.9975 28.778C37.9969 28.7684 37.9961 28.7553 37.9949 28.7389C37.9927 28.7062 37.9892 28.6601 37.9842 28.6021C37.9742 28.4862 37.958 28.3222 37.9328 28.1218C37.8824 27.7225 37.7951 27.171 37.6464 26.5625C37.3608 25.3943 36.8023 23.8141 35.6644 22.8026L34.3356 24.2974C34.9977 24.8859 35.4392 25.9557 35.7036 27.0375C35.8299 27.554 35.9051 28.0275 35.9485 28.3719C35.9701 28.5434 35.9836 28.681 35.9916 28.7737C35.9956 28.82 35.9982 28.855 35.9997 28.8772C36.0005 28.8883 36.001 28.8962 36.0013 28.9007C36.0014 28.903 36.0015 28.9044 36.0015 28.9049C36.0015 28.9052 36.0015 28.9053 36.0015 28.9051C36.0015 28.905 36.0015 28.9049 36.0015 28.9047C36.0015 28.9046 36.0015 28.9044 36.0015 28.9044C36.0015 28.9042 36.0015 28.904 37 28.85ZM35.646 22.7866C34.8358 22.1011 33.908 21.7532 32.9703 21.8282C32.033 21.9032 31.2204 22.3903 30.6261 23.1168L32.174 24.3832C32.4796 24.0097 32.817 23.8468 33.1298 23.8218C33.442 23.7968 33.8643 23.8989 34.3541 24.3134L35.646 22.7866ZM30.6261 23.1168C30.0607 23.8077 29.6888 24.6646 29.7258 25.59C29.7637 26.5368 30.2244 27.4114 31.0541 28.1134L32.346 26.5866C31.8756 26.1886 31.7363 25.8132 31.7242 25.51C31.7112 25.1854 31.8393 24.7923 32.174 24.3832L30.6261 23.1168ZM31.0146 28.0782C32.0946 29.0946 33.6766 29.5061 34.8321 29.6879C35.4346 29.7826 35.9766 29.8229 36.3681 29.8397C36.5645 29.8481 36.7249 29.8507 36.8382 29.8512C36.8949 29.8514 36.9399 29.8511 36.9719 29.8506C36.9879 29.8504 37.0007 29.8502 37.0101 29.85C37.0148 29.8499 37.0186 29.8498 37.0215 29.8498C37.023 29.8497 37.0243 29.8497 37.0253 29.8497C37.0258 29.8497 37.0263 29.8497 37.0267 29.8496C37.0269 29.8496 37.0272 29.8496 37.0273 29.8496C37.0275 29.8496 37.0278 29.8496 37 28.85C36.9722 27.8504 36.9725 27.8504 36.9726 27.8504C36.9727 27.8504 36.9729 27.8504 36.973 27.8504C36.9732 27.8504 36.9733 27.8504 36.9734 27.8504C36.9735 27.8503 36.9735 27.8503 36.9732 27.8504C36.9727 27.8504 36.9714 27.8504 36.9692 27.8504C36.9648 27.8505 36.9572 27.8507 36.9464 27.8508C36.9249 27.8511 36.8909 27.8514 36.8458 27.8512C36.7556 27.8508 36.6215 27.8487 36.4538 27.8415C36.1171 27.8271 35.6529 27.7924 35.1429 27.7121C34.0734 27.5439 33.0054 27.2054 32.3854 26.6218L31.0146 28.0782ZM37 28.85C37.991 28.9839 37.991 28.9841 37.991 28.9843C37.9909 28.9843 37.9909 28.9845 37.9909 28.9846C37.9909 28.9847 37.9909 28.9848 37.9909 28.9849C37.9909 28.985 37.9909 28.9849 37.9909 28.9845C37.991 28.9838 37.9912 28.9823 37.9916 28.9799C37.9922 28.9751 37.9934 28.967 37.9951 28.9556C37.9985 28.9329 38.004 28.8974 38.0117 28.8505C38.0272 28.7566 38.0516 28.6176 38.0865 28.4446C38.1566 28.0972 38.2674 27.6192 38.4299 27.0971C38.7686 26.0082 39.2781 24.9074 39.9644 24.2974L38.6356 22.8026C37.5219 23.7926 36.8814 25.3418 36.5201 26.5029C36.3326 27.1058 36.2059 27.6528 36.126 28.0492C36.0859 28.248 36.0572 28.4106 36.0383 28.5253C36.0289 28.5827 36.0218 28.6282 36.017 28.6605C36.0146 28.6766 36.0128 28.6894 36.0114 28.6988C36.0108 28.7034 36.0102 28.7072 36.0098 28.7101C36.0096 28.7115 36.0095 28.7128 36.0093 28.7138C36.0093 28.7143 36.0092 28.7147 36.0091 28.7151C36.0091 28.7153 36.0091 28.7155 36.0091 28.7156C36.009 28.7159 36.009 28.7161 37 28.85ZM39.9459 24.3134C40.4357 23.8989 40.858 23.7968 41.1703 23.8218C41.483 23.8468 41.8204 24.0097 42.126 24.3832L43.674 23.1168C43.0796 22.3903 42.267 21.9032 41.3297 21.8282C40.392 21.7532 39.4643 22.1011 38.6541 22.7866L39.9459 24.3134ZM42.1567 24.419C42.455 24.7504 42.5893 25.1281 42.5758 25.4733C42.5629 25.8024 42.4124 26.1988 41.9541 26.5866L43.2459 28.1134C44.0876 27.4012 44.5371 26.4976 44.5742 25.5517C44.6107 24.6219 44.245 23.7496 43.6433 23.081L42.1567 24.419ZM41.9356 26.6026C41.2652 27.1985 40.1158 27.5414 38.9777 27.7109C38.4341 27.7919 37.9397 27.8269 37.5813 27.8414C37.4027 27.8487 37.2597 27.8508 37.1632 27.8512C37.115 27.8514 37.0785 27.8511 37.0552 27.8508C37.0436 27.8507 37.0352 27.8505 37.0303 27.8504C37.0279 27.8504 37.0263 27.8503 37.0257 27.8503C37.0253 27.8503 37.0252 27.8503 37.0253 27.8503C37.0254 27.8503 37.0255 27.8503 37.0256 27.8503C37.0257 27.8503 37.0259 27.8503 37.0259 27.8503C37.0261 27.8503 37.0263 27.8503 37 28.85C36.9737 29.8497 36.9739 29.8497 36.9742 29.8497C36.9743 29.8497 36.9745 29.8497 36.9747 29.8497C36.9751 29.8497 36.9756 29.8497 36.9761 29.8497C36.9771 29.8497 36.9784 29.8498 36.9799 29.8498C36.9829 29.8499 36.9868 29.85 36.9916 29.85C37.0012 29.8502 37.0144 29.8505 37.031 29.8507C37.0643 29.8511 37.1112 29.8514 37.1704 29.8512C37.2888 29.8507 37.4567 29.8482 37.6625 29.8398C38.0728 29.8231 38.6409 29.7831 39.2723 29.6891C40.4842 29.5086 42.1348 29.1015 43.2644 28.0974L41.9356 26.6026Z" fill="url(#paint0_linear)"/>
<defs>
<linearGradient id="paint0_linear" x1="0.999999" y1="1.01438" x2="55.7702" y2="22.7228" gradientUnits="userSpaceOnUse">
<stop stop-color="#FDCE7D"/>
<stop offset="0.479167" stop-color="#AF7039"/>
<stop offset="0.552083" stop-color="#AF7039"/>
<stop offset="1" stop-color="#FDCE7D"/>
</linearGradient>
</defs>
</svg>
