<svg width="74" height="93" viewBox="0 0 74 93" fill="none" xmlns="http://www.w3.org/2000/svg">
<g clip-path="url(#clip0)">
<path d="M40.8431 43.0823C40.1536 43.0823 39.5452 43.4167 39.1599 43.9184C38.7746 43.3958 38.1459 43.0823 37.4767 43.0823C36.0774 43.0823 35.2662 44.3156 35.4082 45.5698C35.5907 47.0958 36.848 47.6602 37.6998 48.4754C38.4704 49.207 39.1599 50.2104 39.1599 50.2104C39.1599 50.2104 39.8494 49.207 40.62 48.4754C41.492 47.6602 42.7494 47.0958 42.9116 45.5698C43.0536 44.3365 42.2424 43.0823 40.8431 43.0823Z" fill="#E30613"/>
<path d="M8.57831 90.157V92.9999H7.26014V91.4531H3.65038V92.9999H2.33221V90.157H2.98116C3.28535 89.4463 3.54899 88.6729 3.69094 87.7531C3.9343 86.3735 3.97486 83.8651 3.97486 82.1301V81.3984H7.76713V90.157H8.57831ZM5.29302 82.6736V83.4679C5.29302 85.9136 5.13079 87.3142 4.98883 88.1921C4.88743 88.8819 4.7252 89.4881 4.40073 90.2198H6.38812V82.6736H5.29302Z" fill="#609030"/>
<path d="M9.32867 84.0324C9.32867 83.2798 9.38951 82.5482 10.0587 81.9002C10.4846 81.503 11.0524 81.2522 11.7825 81.2522C12.5126 81.2522 13.0804 81.503 13.5063 81.9002C14.1755 82.5482 14.2363 83.2798 14.2363 84.0324V88.7984C14.2363 89.5509 14.1755 90.2825 13.5063 90.9305C13.0804 91.3277 12.5126 91.5785 11.7825 91.5785C11.0524 91.5785 10.4846 91.3277 10.0587 90.9305C9.38951 90.2825 9.32867 89.5509 9.32867 88.7984V84.0324ZM12.8168 83.8233C12.8168 83.5307 12.7965 83.2171 12.5328 82.9454C12.3706 82.7781 12.1272 82.6527 11.7825 82.6527C11.4377 82.6527 11.1741 82.7781 11.0322 82.9454C10.7685 83.2171 10.7482 83.5098 10.7482 83.8233V89.0283C10.7482 89.321 10.7685 89.6345 11.0322 89.9063C11.1944 90.0735 11.4377 90.1989 11.7825 90.1989C12.1272 90.1989 12.3909 90.0735 12.5328 89.9063C12.7965 89.6345 12.8168 89.321 12.8168 89.0283V83.8233Z" fill="#609030"/>
<path d="M15.7572 81.3984H17.8257C18.4341 81.3984 19.1641 81.4193 19.7725 82.0674C20.4215 82.7363 20.4823 83.6142 20.4823 84.3668V84.6594C20.4823 85.2238 20.4215 86.0599 19.8739 86.708C19.3061 87.3769 18.5557 87.5023 17.9474 87.5023H17.1159V91.474H15.7166V81.3984H15.7572ZM17.1362 86.1645H17.8865C18.1502 86.1645 18.5355 86.1227 18.8194 85.7882C19.1033 85.4537 19.083 85.1193 19.083 84.7639V84.095C19.083 83.7605 19.1033 83.2589 18.6977 82.9244C18.3732 82.6527 17.9879 82.6736 17.6026 82.6736H17.1159V86.1645H17.1362Z" fill="#609030"/>
<path d="M21.5976 84.0324C21.5976 83.2798 21.6584 82.5482 22.3276 81.9002C22.7535 81.503 23.3213 81.2522 24.0514 81.2522C24.7815 81.2522 25.3493 81.503 25.7751 81.9002C26.4444 82.5482 26.5052 83.2798 26.5052 84.0324V88.7984C26.5052 89.5509 26.4444 90.2825 25.7751 90.9305C25.3493 91.3277 24.7815 91.5785 24.0514 91.5785C23.3213 91.5785 22.7535 91.3277 22.3276 90.9305C21.6584 90.2825 21.5976 89.5509 21.5976 88.7984V84.0324ZM25.0856 83.8233C25.0856 83.5307 25.0654 83.2171 24.8017 82.9454C24.6395 82.7781 24.3961 82.6527 24.0514 82.6527C23.7066 82.6527 23.443 82.7781 23.301 82.9454C23.0374 83.2171 23.0171 83.5098 23.0171 83.8233V89.0283C23.0171 89.321 23.0374 89.6345 23.301 89.9063C23.4633 90.0735 23.7066 90.1989 24.0514 90.1989C24.3961 90.1989 24.6598 90.0735 24.8017 89.9063C25.0654 89.6345 25.0856 89.321 25.0856 89.0283V83.8233Z" fill="#609030"/>
<path d="M28.0264 81.3984H32.2648V82.7572H29.4257V91.4531H28.0264V81.3984Z" fill="#609030"/>
<path d="M35.3271 91.4531L34.8607 89.3H33.0761L32.6097 91.4531H31.2307L33.36 81.3984H34.5768L36.7061 91.4531H35.3271ZM33.9481 84.1995L33.218 88.0249H34.6985L33.9481 84.1995Z" fill="#609030"/>
<path d="M45.8523 85.7048C46.0551 85.7048 46.2377 85.6212 46.3593 85.4122C46.5418 85.1614 46.6027 84.7851 46.6635 84.0953L46.7649 83.1964C46.8258 82.6529 46.9069 82.0467 47.3125 81.6705C47.7181 81.3151 48.2453 81.2942 48.6103 81.2942H48.8537V82.5902H48.6306C48.5292 82.5902 48.367 82.6529 48.2656 82.7574C48.1034 82.9038 48.0628 83.1755 47.9817 83.8235L47.8803 84.7851C47.8397 85.1823 47.8195 85.5376 47.6775 85.8721C47.5964 86.0811 47.5153 86.1856 47.3733 86.2901L48.8131 91.4951H47.2922L46.116 86.98H45.2845V91.4951H43.8852V86.98H43.0538L41.8776 91.4951H40.3566L41.7964 86.2901C41.6545 86.1856 41.5734 86.0811 41.4923 85.8721C41.3706 85.5376 41.33 85.1823 41.2895 84.7851L41.1881 83.8235C41.1272 83.1755 41.0664 82.9038 40.9041 82.7574C40.8027 82.6738 40.6608 82.5902 40.5391 82.5902H40.316V81.2942H40.5594C40.9244 81.2942 41.4517 81.3151 41.8573 81.6705C42.2831 82.0467 42.3643 82.6529 42.4251 83.1964L42.5265 84.0953C42.5873 84.806 42.6482 85.1614 42.8307 85.4122C42.9727 85.6212 43.1552 85.7048 43.3377 85.7048H43.8447V81.3987H45.244V85.7048H45.8523Z" fill="#609030"/>
<path d="M51.4289 81.3984V87.5859L53.7204 82.5481V81.3984H55.1197V91.4531H53.7204V85.2656L51.4289 90.3034V91.4531H50.0296V81.3984H51.4289Z" fill="#609030"/>
<path d="M56.3772 83.3425C56.3772 82.9454 56.4583 82.2556 57.1072 81.733C57.4317 81.4821 57.9387 81.2522 58.6485 81.2522C59.196 81.2522 59.8247 81.3776 60.2506 81.7121C60.4939 81.9002 61.0212 82.381 61.0212 83.3425V84.1996C61.0212 84.7222 61.0009 85.2866 60.5953 85.7674C60.4331 85.9346 60.2303 86.1227 60.0478 86.2272C60.4533 86.4363 60.6561 86.6871 60.7373 86.8543C60.9806 87.2933 61.0212 87.7114 61.0212 88.1504V89.321C61.0212 89.8853 60.9603 90.4916 60.4128 90.9932C59.9058 91.474 59.2569 91.5785 58.6282 91.5785C58.1212 91.5785 57.4722 91.5158 56.9653 91.035C56.8639 90.9514 56.3569 90.4497 56.3569 89.5927V88.652H57.7562V89.2373C57.7562 89.4464 57.8373 89.7599 57.9792 89.9272C58.1415 90.1153 58.4862 90.178 58.7093 90.178C59.0541 90.178 59.2771 90.0735 59.3785 89.969C59.6219 89.7181 59.6219 89.4255 59.6219 89.1119V88.2131C59.6219 87.9413 59.6016 87.356 59.2366 87.0634C59.1352 86.9798 58.9121 86.8543 58.5065 86.8543H58.0806V85.5583H58.4659C58.831 85.5583 59.1555 85.4329 59.3583 85.203C59.6016 84.9103 59.6219 84.4922 59.6219 84.3041V83.6561C59.6219 83.4471 59.6219 83.0917 59.338 82.8618C59.1757 82.7363 58.9527 82.6527 58.6485 82.6527C58.3848 82.6527 58.1618 82.7572 57.9995 82.9036C57.7562 83.1335 57.7359 83.4262 57.7359 83.6352V84.2414H56.3772V83.3425Z" fill="#609030"/>
<path d="M63.9618 81.3985V85.7046H65.8478V81.3776H67.2471V91.4322H65.8478V87.0006H63.9618V91.4322H62.5625V81.3776H63.9618V81.3985Z" fill="#609030"/>
<path d="M70.2887 81.3984V87.5859L72.5802 82.5481V81.3984H73.9795V91.4531H72.6005V85.2656L70.2887 90.3034V91.4531H68.8894V81.3984H70.2887Z" fill="#609030"/>
<path d="M5.75956 70.3615V71.0931H4.25887V72.5145H4.6239C4.90782 72.5145 5.31341 72.4936 5.65816 72.8281C5.98263 73.1416 5.98263 73.5179 5.98263 73.706V74.3332C5.98263 74.584 5.96235 74.8976 5.75956 75.1902C5.6176 75.3992 5.33369 75.6919 4.64418 75.6919H3.52881V70.3615H5.75956ZM4.25887 75.0021H4.58334C4.68474 75.0021 4.9281 74.9812 5.09033 74.7721C5.19173 74.6258 5.23229 74.3959 5.23229 74.2077V73.9151C5.23229 73.6642 5.19173 73.4761 5.02949 73.3298C4.90782 73.2253 4.80642 73.1835 4.64418 73.1835H4.25887V75.0021Z" fill="#609030"/>
<path d="M9.12597 75.6919H8.39591V71.0513H7.8078L7.78752 71.8038C7.76724 72.7236 7.74696 73.1626 7.72668 73.5806C7.68612 74.145 7.64556 74.4168 7.62529 74.5631C7.56445 74.8139 7.50361 75.0648 7.28053 75.3365C7.0169 75.6501 6.71271 75.6919 6.40851 75.6919H6.24628V74.9603H6.28684C6.36795 74.9603 6.46935 74.9603 6.57075 74.8766C6.75327 74.7721 6.8141 74.584 6.83438 74.5213C6.9155 74.2495 6.97634 73.4761 6.97634 73.2044C6.99662 72.7863 7.0169 72.4518 7.03718 71.762L7.05746 70.3406H9.12597V75.6919Z" fill="#609030"/>
<path d="M11.8028 75.6919L11.5594 74.5422H10.6063L10.3629 75.6919H9.63287L10.7685 70.3615H11.4175L12.5531 75.6919H11.8028ZM11.0727 71.8456L10.6874 73.8733H11.4783L11.0727 71.8456Z" fill="#609030"/>
<path d="M13.04 70.3615H15.2911V71.0931H13.7904V75.6919H13.0603V70.3615H13.04Z" fill="#609030"/>
<path d="M15.4736 71.762C15.4736 71.3648 15.4939 70.9676 15.8589 70.6332C16.082 70.4241 16.3861 70.2987 16.7715 70.2987C17.1568 70.2987 17.461 70.4241 17.684 70.6332C18.0288 70.9676 18.0694 71.3648 18.0694 71.762V74.2913C18.0694 74.6884 18.0491 75.0856 17.684 75.4201C17.461 75.6291 17.1568 75.7545 16.7715 75.7545C16.3861 75.7545 16.082 75.6291 15.8589 75.4201C15.5141 75.0856 15.4736 74.6884 15.4736 74.2913V71.762ZM17.319 71.6365C17.319 71.4693 17.2987 71.323 17.1568 71.1767C17.0757 71.093 16.9337 71.0303 16.7512 71.0303C16.5687 71.0303 16.4267 71.093 16.3456 71.1767C16.2036 71.323 16.1834 71.4902 16.1834 71.6365V74.3958C16.1834 74.563 16.2036 74.7094 16.3456 74.8557C16.4267 74.9393 16.5687 75.002 16.7512 75.002C16.9337 75.002 17.0757 74.9393 17.1568 74.8557C17.2987 74.7094 17.319 74.5421 17.319 74.3958V71.6365Z" fill="#609030"/>
<path d="M20.8475 70.3615V71.0931H19.9349V75.6919H19.2049V71.0931H18.2923V70.3615H20.8475Z" fill="#609030"/>
<path d="M22.3079 70.3615C22.531 70.3615 22.9568 70.3824 23.2813 70.6123C23.7478 70.9468 23.7478 71.5321 23.7478 71.8456C23.7478 72.201 23.7275 72.4309 23.5247 72.6818C23.4233 72.8072 23.3219 72.8699 23.2408 72.9326C23.4436 73.0162 23.5247 73.1625 23.5855 73.2671C23.7275 73.5388 23.7275 73.6851 23.7275 73.936V74.3332C23.7275 74.5631 23.7275 75.1066 23.2813 75.441C23.1191 75.5665 22.8554 75.6919 22.4093 75.6919H21.2939V70.3615H22.3079ZM22.0443 72.5563H22.389C22.6324 72.5563 22.7946 72.4518 22.8554 72.3682C22.9366 72.2637 22.9974 72.0756 22.9974 71.9083V71.5739C22.9974 71.4275 22.9366 71.3021 22.8554 71.2185C22.7743 71.1349 22.6121 71.0513 22.3687 71.0513H22.024V72.5563H22.0443ZM22.0443 75.0021H22.3687C22.4701 75.0021 22.7135 74.9812 22.8757 74.7721C22.9974 74.6049 23.0177 74.3332 23.0177 74.2286V73.9778C23.0177 73.7269 22.9771 73.5388 22.8149 73.3925C22.6932 73.288 22.5918 73.2462 22.4296 73.2462H22.0443V75.0021Z" fill="#609030"/>
<path d="M24.498 71.762C24.498 71.3648 24.5183 70.9676 24.8833 70.6332C25.1064 70.4241 25.4106 70.2987 25.7959 70.2987C26.1812 70.2987 26.4854 70.4241 26.7085 70.6332C27.0532 70.9676 27.0938 71.3648 27.0938 71.762V74.2913C27.0938 74.6884 27.0735 75.0856 26.7085 75.4201C26.4854 75.6291 26.1812 75.7545 25.7959 75.7545C25.4106 75.7545 25.1064 75.6291 24.8833 75.4201C24.5386 75.0856 24.498 74.6884 24.498 74.2913V71.762ZM26.3435 71.6365C26.3435 71.4693 26.3232 71.323 26.1812 71.1767C26.1001 71.093 25.9581 71.0303 25.7756 71.0303C25.5931 71.0303 25.4512 71.093 25.37 71.1767C25.2281 71.323 25.2078 71.4902 25.2078 71.6365V74.3958C25.2078 74.563 25.2281 74.7094 25.37 74.8557C25.4512 74.9393 25.5931 75.002 25.7756 75.002C25.9581 75.002 26.1001 74.9393 26.1812 74.8557C26.3232 74.7094 26.3435 74.5421 26.3435 74.3958V71.6365Z" fill="#609030"/>
<path d="M27.8844 70.3615H28.9795C29.304 70.3615 29.6893 70.3824 30.0138 70.7168C30.3585 71.0722 30.3991 71.5321 30.3991 71.9292V72.0756C30.3991 72.3682 30.3788 72.8072 30.0746 73.1625C29.7704 73.5179 29.3648 73.5806 29.0606 73.5806H28.6348V75.6919H27.9047V70.3615H27.8844ZM28.6145 72.8908H29.0201C29.162 72.8908 29.3648 72.8699 29.5068 72.7027C29.669 72.5354 29.6487 72.3473 29.6487 72.1592V71.8038C29.6487 71.6157 29.6487 71.3648 29.446 71.1976C29.2837 71.0513 29.0606 71.0513 28.8781 71.0513H28.6145V72.8908Z" fill="#609030"/>
<path d="M31.7986 70.3615V73.6224L33.0154 70.9677V70.3615H33.7455V75.6919H33.0154V72.4309L31.7986 75.0857V75.6919H31.0686V70.3615H31.7986Z" fill="#609030"/>
<path d="M36.767 70.3615V71.0931H35.8544V75.6919H35.1244V71.0931H34.2118V70.3615H36.767Z" fill="#609030"/>
<path d="M37.2332 70.3615H39.4234V71.0931H37.9633V72.6609H39.2409V73.3507H37.9633V74.9812H39.4437V75.7128H37.2332V70.3615Z" fill="#609030"/>
<path d="M42.5873 75.6919H41.8573V71.0513H41.2692L41.2489 71.8038C41.2286 72.7236 41.2083 73.1626 41.188 73.5806C41.1475 74.145 41.1069 74.4168 41.0866 74.5631C41.0258 74.8139 40.965 75.0648 40.7419 75.3365C40.4783 75.6501 40.1741 75.6919 39.8699 75.6919H39.7076V74.9603H39.7888C39.8699 74.9603 39.9713 74.9603 40.0727 74.8766C40.2552 74.7721 40.316 74.584 40.3363 74.5213C40.4174 74.2495 40.4783 73.4761 40.4783 73.2044C40.4985 72.7863 40.5188 72.4518 40.5391 71.762L40.5594 70.3406H42.5873V75.6919Z" fill="#609030"/>
<path d="M44.2097 70.3615V72.5145H44.5747C44.8586 72.5145 45.2642 72.4936 45.609 72.8281C45.9334 73.1416 45.9334 73.5179 45.9334 73.706V74.3332C45.9334 74.584 45.9132 74.8976 45.7104 75.1902C45.5684 75.3992 45.2845 75.6919 44.595 75.6919H43.4796V70.3615H44.2097ZM44.2097 75.0021H44.5342C44.7167 75.0021 45.1628 74.9603 45.1628 74.2077V73.9151C45.1628 73.6642 45.1223 73.4761 44.96 73.3298C44.8383 73.2253 44.7369 73.1835 44.5747 73.1835H44.2097V75.0021Z" fill="#609030"/>
<path d="M47.3934 70.3615V72.64H48.3871V70.3615H49.1172V75.6919H48.3871V73.3507H47.3934V75.6919H46.6431V70.3615H47.3934Z" fill="#609030"/>
<path d="M50.7395 70.3615V72.5145H51.1045C51.3884 72.5145 51.794 72.4936 52.1388 72.8281C52.4632 73.1416 52.4632 73.5179 52.4632 73.706V74.3332C52.4632 74.584 52.4429 74.8976 52.2402 75.1902C52.0982 75.3992 51.8143 75.6919 51.1248 75.6919H50.0094V70.3615H50.7395ZM50.7395 75.0021H51.0639C51.2465 75.0021 51.6926 74.9603 51.6926 74.2077V73.9151C51.6926 73.6642 51.652 73.4761 51.4898 73.3298C51.3681 73.2253 51.2667 73.1835 51.1045 73.1835H50.7192V75.0021H50.7395ZM53.7814 70.3615V75.6919H53.0513V70.3615H53.7814Z" fill="#609030"/>
<path d="M55.404 70.3614V73.6224L56.6208 70.9676V70.3614H57.3509V75.6918H56.6208V72.4309L55.404 75.0856V75.6918H54.674V70.3614H55.404ZM56.9047 69.1699C56.9047 69.4835 56.8033 69.6716 56.6816 69.7761C56.5397 69.9224 56.2963 69.9852 56.0124 69.9852C55.7285 69.9852 55.4852 69.9224 55.3432 69.7761C55.2418 69.6716 55.1201 69.4626 55.1201 69.1699V69.0863H55.7082V69.149C55.7082 69.2117 55.7082 69.2953 55.7894 69.358C55.8502 69.4208 55.9313 69.4208 56.0124 69.4208C56.0935 69.4208 56.1747 69.4208 56.2355 69.358C56.3166 69.2953 56.3166 69.2117 56.3166 69.149V69.0863H56.9047V69.1699Z" fill="#609030"/>
<path d="M62.1366 70.9676H62.3191C62.6436 70.9676 63.0289 70.9886 63.3534 71.323C63.6981 71.6784 63.7387 72.1383 63.7387 72.5354V73.4552C63.7387 73.7478 63.7184 74.2077 63.4142 74.5422C63.0898 74.9393 62.603 74.9602 62.4002 74.9602H62.1569V75.6919H61.4268V74.9602H61.1835C60.9604 74.9602 60.494 74.9393 60.1695 74.5422C59.8856 74.2077 59.845 73.7687 59.845 73.4552V72.5354C59.845 72.1383 59.8856 71.6784 60.2303 71.323C60.5548 70.9886 60.9401 70.9676 61.2646 70.9676H61.4471V70.2778H62.1772V70.9676H62.1366ZM61.3254 71.6575C61.1226 71.6575 60.9198 71.6575 60.7576 71.8038C60.5548 71.971 60.5548 72.2428 60.5548 72.41V73.5179C60.5548 73.706 60.5345 73.8733 60.6968 74.0614C60.859 74.2495 61.0415 74.2495 61.1835 74.2495H61.4065V71.6575H61.3254ZM62.1366 74.2704H62.3597C62.5016 74.2704 62.6842 74.2704 62.8464 74.0823C63.0086 73.8942 62.9884 73.7269 62.9884 73.5388V72.4309C62.9884 72.2428 62.9884 71.9919 62.7856 71.8247C62.6233 71.6784 62.4002 71.6784 62.2177 71.6784H62.1366V74.2704Z" fill="#609030"/>
<path d="M64.3878 71.762C64.3878 71.3648 64.408 70.9676 64.7731 70.6332C64.9961 70.4241 65.3003 70.2987 65.6856 70.2987C66.071 70.2987 66.3752 70.4241 66.5982 70.6332C66.943 70.9676 66.9835 71.3648 66.9835 71.762V74.2913C66.9835 74.6884 66.9633 75.0856 66.5982 75.4201C66.3752 75.6291 66.071 75.7545 65.6856 75.7545C65.3003 75.7545 64.9961 75.6291 64.7731 75.4201C64.4283 75.0856 64.3878 74.6884 64.3878 74.2913V71.762ZM66.2332 71.6365C66.2332 71.4693 66.2129 71.323 66.071 71.1767C65.9898 71.093 65.8479 71.0303 65.6654 71.0303C65.4828 71.0303 65.3409 71.093 65.2598 71.1767C65.1178 71.323 65.0975 71.4902 65.0975 71.6365V74.3958C65.0975 74.563 65.1178 74.7094 65.2598 74.8557C65.3409 74.9393 65.4828 75.002 65.6654 75.002C65.8479 75.002 65.9898 74.9393 66.071 74.8557C66.2129 74.7094 66.2332 74.5421 66.2332 74.3958V71.6365Z" fill="#609030"/>
<path d="M68.5045 70.3615V72.64H69.4982V70.3615H70.2283V75.6919H69.4982V73.3507H68.5045V75.6919H67.7745V70.3615H68.5045Z" fill="#609030"/>
<path d="M73.9595 75.0021V76.5071H73.2497V75.6919H71.3434V76.5071H70.6336V75.0021H70.9784C71.1406 74.6258 71.2826 74.2286 71.3637 73.727C71.4854 72.9953 71.5259 71.6784 71.5259 70.7377V70.3406H73.5336V74.9812H73.9595V75.0021ZM72.2154 71.0513V71.4694C72.2154 72.7654 72.1343 73.497 72.0532 73.9778C71.9923 74.3332 71.9112 74.6676 71.749 75.0439H72.8035V71.0513H72.2154Z" fill="#609030"/>
<path d="M38.9162 39.5078C38.5106 39.5078 38.1253 39.5496 37.74 39.6332C38.1253 39.5496 38.5106 39.5078 38.9162 39.5078Z" fill="#609030"/>
<path d="M37.2734 39.7377V39.7795C37.4356 39.7377 37.5776 39.6541 37.7398 39.6332C37.7196 39.6332 37.7196 39.6332 37.6993 39.6332L37.2734 39.7377Z" fill="#609030"/>
<path d="M32.8321 44.2946C32.8118 44.3573 32.8118 44.3992 32.7915 44.4619C32.8321 44.3155 32.8727 44.1901 32.9132 44.0647H32.8929C32.8727 44.1065 32.8524 44.1901 32.8321 44.2946Z" fill="#609030"/>
<path d="M39.1189 39.5078C39.4839 39.5078 39.8287 39.5496 40.1734 39.6123C39.8287 39.5496 39.4636 39.5078 39.1189 39.5078Z" fill="#609030"/>
<path d="M40.8224 39.7586C40.7616 39.7377 40.6805 39.7377 40.6196 39.7168C40.7616 39.7586 40.9035 39.8004 41.0658 39.8631V39.8422C40.9847 39.8004 40.9035 39.7795 40.8224 39.7586Z" fill="#609030"/>
<path d="M32.6497 45.1935C32.6295 45.298 32.6295 45.3816 32.6295 45.4861C32.6295 45.3816 32.6295 45.298 32.6497 45.1935Z" fill="#609030"/>
<path d="M44.2092 27.6555C44.0064 26.9448 43.6211 26.7148 42.5868 26.6521C42.161 26.6103 41.6945 26.8193 41.2484 27.0284L41.5526 27.0702C42.4246 27.1956 43.3169 27.3837 44.2092 27.6555Z" fill="#609030"/>
<path d="M44.4117 28.7425C44.2495 28.7007 44.1075 28.6379 43.9656 28.5961C43.2761 28.3871 42.5866 28.2199 41.8768 28.1154L41.7348 29.2232C42.3838 29.3278 43.0124 29.4741 43.6614 29.6831C44.067 29.8085 44.4523 29.934 44.8376 30.1012C44.6551 29.8504 44.5131 29.5368 44.4523 29.0351C44.432 28.9306 44.432 28.847 44.4117 28.7425Z" fill="#609030"/>
<path d="M30.6015 31.3556C30.6217 31.3556 30.6217 31.3346 30.642 31.3346L30.6217 31.3136C30.6217 31.3346 30.6015 31.3346 30.6015 31.3556Z" fill="#609030"/>
<path d="M36.1377 63.0242L35.9755 63.8186C38.8349 64.3412 40.8223 63.9649 42.6272 63.6095C42.83 63.5677 44.7362 62.9197 44.9188 62.8152C45.8111 62.418 46.1761 62.1672 47.1292 61.5401C47.3117 61.4147 48.2649 60.5158 48.4474 60.3904C47.4334 60.9966 45.2432 62.0836 44.1279 62.4598C41.6132 63.296 38.8755 63.5259 36.1377 63.0242Z" fill="#609030"/>
<path d="M40.7816 29.0978L41.0452 27.1119C40.9438 27.1537 40.8424 27.2165 40.741 27.2583C40.3151 27.4464 39.9501 27.8436 39.5242 27.9272C38.5711 28.0735 37.841 28.4707 37.1921 29.1187C38.3683 28.9515 39.5851 28.9514 40.7816 29.0978Z" fill="#609030"/>
<path d="M44.8379 30.0802C45.0407 30.3729 45.2435 30.6028 45.4057 30.9582L45.6288 30.4147C45.3651 30.2892 45.1015 30.1847 44.8379 30.0802Z" fill="#609030"/>
<path d="M41.0657 27.0074L41.0454 27.112C41.1062 27.0911 41.1671 27.0493 41.2279 27.0284L41.0657 27.0074Z" fill="#609030"/>
<path d="M43.1344 41.0128L43.7631 40.093C43.0127 39.445 42.1204 38.9642 41.1267 38.6716C39.6261 38.2117 38.0848 38.2744 36.7058 38.7343C35.5904 39.1106 34.5765 39.7377 33.745 40.5738L34.4953 41.3891C37.8009 38.5462 41.0456 39.3196 43.1344 41.0128Z" fill="#609030"/>
<path d="M44.4729 40.762L43.824 41.7026C44.8785 42.8941 45.5274 44.4619 45.5274 46.1969C45.5274 49.7505 42.8505 52.6143 39.4639 52.8442L39.4841 53.8894C40.1128 53.8476 40.7212 53.7222 41.3296 53.5341C43.6212 52.7606 45.5274 50.8793 46.2575 48.3082C46.6834 46.7613 46.6428 45.1935 46.1967 43.7512C46.0344 43.2704 45.8519 42.7896 45.6086 42.3506L46.44 41.8699C46.7239 42.3715 46.947 42.915 47.1092 43.4585C47.5757 44.9218 47.6568 46.5105 47.2918 48.0991L49.2589 48.6844L49.1372 49.1443C49.0358 49.4788 48.9344 49.8132 48.8127 50.1477C48.4477 51.0674 47.9813 51.9245 47.4134 52.6979L48.2449 53.4295C49.0966 52.2798 49.7659 50.942 50.1917 49.4788C50.7798 47.4093 50.8001 45.319 50.3337 43.3749L50.2323 42.915L52.1994 42.3925C52.1588 42.2043 52.098 42.0162 52.0372 41.8281C51.9966 41.6817 51.9358 41.5145 51.8749 41.3682C51.0435 41.5981 50.1106 41.5981 49.1778 41.7862L48.7519 41.9744C48.8736 42.2461 48.975 42.5388 49.0561 42.8105C49.4617 44.1065 49.6442 45.5071 49.5428 46.9076L48.5897 46.8449C48.6708 45.5698 48.5288 44.2947 48.1435 43.1241C47.6771 41.619 46.8456 40.2603 45.7505 39.1315C45.71 39.0897 45.6897 39.0688 45.6491 39.027L45.6288 39.0479L44.4729 40.762Z" fill="#609030"/>
<path d="M32.5485 46.1969C32.5485 45.946 32.589 45.737 32.6093 45.4861C32.6296 45.3816 32.6296 45.298 32.6296 45.1935C32.6701 44.9426 32.7107 44.6918 32.7918 44.441C32.8121 44.3782 32.8121 44.3364 32.8324 44.2737C32.8527 44.1901 32.8729 44.1065 32.9135 44.0229H32.9338C33.1568 43.3331 33.4813 42.706 33.8869 42.1416L33.1163 41.3054C32.5282 42.0789 32.082 42.9568 31.7981 43.9602C31.3722 45.507 31.4128 47.0748 31.859 48.5172C32.6093 50.8793 34.4345 52.8442 36.9288 53.5967C37.4764 53.764 38.0037 53.8476 38.5512 53.8894L38.5309 52.8233C35.1848 52.5515 32.5485 49.7087 32.5485 46.1969Z" fill="#609030"/>
<path d="M52.0167 56.8368L51.7125 57.234L50.151 55.8752C48.6503 57.6939 46.7846 59.0944 44.6755 60.0142L44.3105 59.1153C45.3448 58.6763 46.3182 58.091 47.2105 57.4012L46.4804 56.5651C45.3853 57.4012 44.1685 58.0283 42.8909 58.4673C40.5791 59.2407 38.0441 59.3243 35.5295 58.5718C33.7043 58.0283 32.1022 57.0877 30.7435 55.8752L30.0337 56.7323C31.1694 57.7566 32.4673 58.5927 33.9071 59.178L33.5624 60.0769C31.8589 59.3661 30.3379 58.3628 29.0603 57.1086L28.7358 56.795L30.0743 55.1854C28.7155 53.7431 27.6813 52.0081 27.0932 50.1059C26.8904 49.4788 26.7484 48.8517 26.647 48.2036L24.6191 48.4754L24.5582 47.9946C24.4771 47.263 24.4366 46.5105 24.4568 45.7579L25.41 45.7788C25.41 46.3223 25.41 46.8449 25.4505 47.3675L26.5254 47.2212C26.4037 45.6743 26.5456 44.0856 26.9715 42.497C27.7827 39.5914 29.5267 37.1875 31.7372 35.557L31.1491 34.6163C29.4862 35.8287 28.0869 37.4174 27.0729 39.3196L26.2414 38.8389C26.8295 37.7519 27.5393 36.7485 28.3302 35.8496L27.7218 34.9508C27.3568 35.0553 27.154 35.4943 26.9715 35.7869C26.5659 35.8287 26.2009 35.766 25.9372 35.8287L26.5254 36.2886C25.3897 37.8355 24.5177 39.6123 23.9499 41.5772C23.8687 41.8699 23.7876 42.1416 23.7268 42.4343L24.7813 42.6851C24.8422 42.4134 24.903 42.1625 24.9841 41.8908C25.0652 41.5981 25.1463 41.3264 25.2477 41.0337L26.14 41.3682C26.0386 41.6399 25.9575 41.8908 25.8967 42.1625C25.775 42.5597 25.6939 42.9569 25.6128 43.3749L25.5114 43.8766L23.524 43.4167C23.1184 45.8624 23.2806 48.3082 23.9093 50.5867L25.8764 50.0641L26.0184 50.503C26.4848 51.9872 27.1946 53.3668 28.1072 54.621L27.3568 55.2063C26.4848 53.9939 25.775 52.6561 25.268 51.2556L24.2135 51.5273C25.8561 56.2515 29.5876 60.1396 34.6169 61.6446C37.0707 62.3763 39.5651 62.4599 41.9175 62L41.6539 60.913C39.8287 61.2684 37.9022 61.2475 35.9756 60.8294C35.8742 60.8085 35.7728 60.7876 35.6714 60.7667L35.8945 59.826C35.9959 59.8469 36.077 59.8678 36.1784 59.8887C38.1252 60.3068 40.0518 60.2859 41.8972 59.8678L42.3434 59.7633L42.8504 61.791C43.1749 61.7073 43.4993 61.6028 43.8238 61.4983C46.014 60.7667 48.0419 59.5334 49.7251 57.9238L50.3741 58.6345C49.5021 59.4707 48.5489 60.2023 47.5349 60.8294C48.9748 59.9933 48.9748 60.2232 50.4552 59.2198C51.0839 58.7808 51.9559 57.7566 51.9762 57.7148C52.6048 56.8577 52.6048 56.6487 52.909 55.9798L52.7062 55.8334C52.5034 56.1888 52.2601 56.5233 52.0167 56.8368Z" fill="#609030"/>
<path d="M31.9807 31.6899L31.5346 31.9407C31.0479 32.2125 30.5814 32.526 30.115 32.8605C30.0339 33.1113 29.9528 33.3621 29.8108 33.5712C29.5269 34.0311 29.1619 34.4282 28.7968 34.8672L29.0199 35.2017C30.6017 33.6757 32.4877 32.526 34.536 31.8362C37.2129 30.9373 40.1737 30.8328 43.0939 31.7108C43.9254 31.9616 44.7163 32.2961 45.4666 32.6932C45.4869 32.1706 45.5072 31.7526 45.568 31.7735C45.568 31.439 45.5072 31.1882 45.4261 30.9791L45.2841 31.3136C44.6757 31.0419 44.0673 30.8119 43.4184 30.6238C40.2953 29.6831 37.1115 29.8085 34.2318 30.7701C34.1101 30.8119 33.9884 30.8537 33.8667 30.8955L33.6234 30.1848C33.4206 30.143 33.2178 30.1012 33.015 30.1012C32.0416 30.1221 31.5549 30.143 31.2101 30.3938L31.9807 31.6899Z" fill="#609030"/>
<path d="M54.2476 50.085C54.2476 50.0432 54.2679 49.9805 54.2679 49.9387C54.2882 49.876 54.3084 49.7923 54.3084 49.7296L54.3693 49.3952C54.9168 46.6568 54.7546 43.9393 54.0042 41.41C53.8217 41.3264 53.6189 41.2428 53.3756 41.2428C53.2134 41.2428 53.0106 41.2428 52.8078 41.2637C52.828 41.3473 52.8686 41.4309 52.9092 41.5145C53.1525 42.3089 53.335 43.1032 53.4567 43.9393L52.5238 44.0857C52.4833 43.8348 52.4427 43.584 52.3819 43.3331L51.3274 43.6049C51.7127 45.5907 51.6518 47.6811 51.084 49.7505C50.577 51.5273 49.7455 53.116 48.6505 54.4329L48.3463 54.8092L46.7645 53.4505C45.5274 54.851 43.9659 55.8753 42.2421 56.4397C42.0596 56.5024 41.8771 56.5651 41.6743 56.6069L41.4309 55.6662C41.5932 55.6244 41.7757 55.5617 41.9379 55.5199C44.5743 54.642 46.805 52.5934 47.8798 49.7923C47.9407 49.646 47.9812 49.4997 48.0421 49.3534L46.9875 49.0398C46.075 51.6946 44.047 53.6386 41.5932 54.4538C40.0317 54.9764 38.3079 55.0391 36.6247 54.5375C35.7324 54.2657 34.9212 53.8685 34.1912 53.3669L32.8933 54.9973L32.5282 54.7047C31.1492 53.5968 30.0744 52.1754 29.3849 50.5658L30.2569 50.1686C30.8247 51.4855 31.6765 52.677 32.7513 53.6386L33.4408 52.7607C32.2646 51.7155 31.3926 50.3358 30.9059 48.8308C30.3989 47.2212 30.338 45.4444 30.8247 43.7094C31.6359 40.8247 33.7856 38.6925 36.3611 37.8146C37.9226 37.292 39.6463 37.2293 41.3295 37.7519C42.4246 38.0863 43.4183 38.6298 44.2498 39.3197L44.8582 38.3999C44.1078 37.7937 43.2358 37.292 42.303 36.9366C42.2827 36.9366 42.2624 36.9157 42.2421 36.9157C42.0393 36.8321 41.8365 36.7485 41.6135 36.6858C39.7072 36.1214 37.7603 36.1841 35.996 36.7694C34.4751 37.2711 33.0961 38.17 32.001 39.3615L31.3115 38.6925C32.5282 37.3756 34.0289 36.4141 35.6918 35.8497C36.6247 35.5361 37.5778 35.3689 38.5715 35.3271L38.531 34.1983C37.4359 34.2401 36.3813 34.4282 35.3471 34.7627C35.1037 34.8463 34.8401 34.9508 34.5967 35.0344L34.252 34.1356C34.5156 34.031 34.7995 33.9265 35.0632 33.8429C36.3205 33.4248 37.6387 33.2158 38.9974 33.2158H39.4435L39.5247 35.3271C40.2953 35.3689 41.0862 35.5152 41.8568 35.7451C42.2016 35.8497 42.5463 35.9751 42.8708 36.1005C42.9722 36.0587 43.0736 36.0169 43.1547 35.8915C43.3169 35.6615 43.5603 35.4734 43.8239 35.3062C43.2967 35.0553 42.7288 34.8254 42.1407 34.6372C41.8568 34.5536 41.5729 34.47 41.289 34.4073L41.4918 33.4457C41.796 33.5085 42.1002 33.5921 42.4044 33.6757C43.2764 33.9265 44.0876 34.2819 44.8379 34.7C44.9799 34.6163 45.1015 34.5327 45.2232 34.4282C45.2638 34.4491 45.2841 34.1147 45.3043 33.6966C44.4932 33.2576 43.6211 32.8813 42.7086 32.6096C39.9911 31.7944 37.2128 31.8989 34.7184 32.735C33.7044 33.0695 32.731 33.5294 31.8184 34.0938L32.9135 35.8497L32.5282 36.1214C31.1695 37.0412 30.0136 38.2536 29.101 39.6959L30.7639 40.8874L30.5611 41.2637C30.2164 41.9117 29.9122 42.6015 29.7094 43.354C29.2835 44.8591 29.2227 46.3851 29.466 47.8274L28.5332 47.9946C28.2492 46.406 28.3304 44.7337 28.7968 43.0823C28.9793 42.4134 29.2227 41.7863 29.5269 41.1801L28.6346 40.5321C28.2898 41.2219 27.9856 41.9744 27.7625 42.7687C27.0933 45.1517 27.1744 47.5766 27.8639 49.7714C29.0199 53.4296 31.8387 56.4397 35.6716 57.5894C36.645 57.882 37.6184 58.0284 38.5918 58.0702V56.9414C37.7198 56.9205 36.8478 56.7741 35.9555 56.5024C35.4485 56.3561 34.9415 56.1679 34.4751 55.938L34.8807 55.06C35.3065 55.2691 35.7527 55.4363 36.2191 55.5826C37.1722 55.8753 38.1254 56.0007 39.0582 55.9798H39.5449L39.5247 58.0702C40.5386 58.0074 41.5121 57.8193 42.4449 57.5058C43.7834 57.0668 45.0001 56.377 46.0952 55.499L46.44 55.2064L47.7987 56.7532C49.7253 55.0391 51.226 52.7397 51.9763 50.0432C52.3008 48.8726 52.4833 47.702 52.5238 46.5523L53.477 46.5732C53.4364 47.8065 53.2539 49.0607 52.9092 50.3149C52.4022 52.0917 51.6315 53.6804 50.6176 55.0809L51.449 55.8126C52.2399 54.7256 52.9092 53.5132 53.4161 52.1963L54.2882 52.5516C54.3693 52.259 54.4301 51.9454 54.5518 51.6737C54.6938 51.2974 54.8357 50.9211 54.9979 50.5449L54.0651 50.3567L54.2476 50.085Z" fill="#609030"/>
<path d="M24.2135 53.9103L23.8485 54.0984C24.0716 54.9346 25.552 57.5266 25.5925 57.5893C26.059 58.3 29.3443 62.1672 35.0834 63.3378L35.2253 62.8152C34.9617 62.7525 34.6778 62.6689 34.4141 62.6062C29.7904 61.2265 26.2212 57.9865 24.2135 53.9103Z" fill="#609030"/>
<path d="M41.8768 36.5604C41.897 36.5604 41.897 36.5604 41.8768 36.5604C41.8768 36.5394 41.8768 36.5394 41.8768 36.5604C41.8768 36.5394 41.8768 36.5394 41.8768 36.5604C41.7754 36.6234 41.7956 36.6234 41.8768 36.5604Z" fill="#609030"/>
<path d="M54.3895 52.677C54.4097 52.6352 54.4299 52.6143 54.4299 52.5725H54.4097C54.4097 52.5934 54.4097 52.6352 54.3895 52.677C54.3895 52.6561 54.3895 52.6561 54.3895 52.677Z" fill="#609030"/>
<path d="M25.5112 36.1632C25.5923 36.1005 25.6734 36.0378 25.7546 35.9542C25.7951 35.9123 25.8762 35.8914 25.9371 35.8705L25.7748 35.7451C25.6937 35.8914 25.6126 36.0378 25.5112 36.1632Z" fill="#609030"/>
<path d="M69.0515 26.3385C68.9906 26.2549 68.9906 26.1085 68.9704 25.9831C68.6864 24.0182 67.0438 23.4538 65.5026 24.4153C64.7725 24.8752 64.0222 25.4605 63.2313 25.565C62.2578 25.7114 61.7914 26.1294 61.3655 26.9656C60.96 27.7599 60.453 28.617 59.7837 29.0977C58.9726 29.6831 58.6481 30.1011 59.1753 30.9373C59.3173 31.1672 59.4187 31.3553 59.3376 31.5435C59.297 31.648 59.1956 31.7316 59.0334 31.8361C58.8914 31.9197 58.7698 32.1079 58.7089 32.3169C58.6886 32.4005 58.6684 32.4632 58.6481 32.5468C58.5872 33.1112 58.6886 33.6965 58.567 34.24C58.567 34.2609 58.567 34.2818 58.567 34.3027C58.425 34.8462 58.425 35.3897 58.425 35.9332C58.425 36.6857 58.4656 37.4383 58.2222 38.1699C58.1614 38.3371 58.1005 38.5044 57.9991 38.6716C57.8977 38.8388 58.0194 39.1315 58.0397 39.5704C58.2222 39.4241 58.4047 39.2987 58.567 39.1733C58.8914 38.9224 59.1956 38.6925 59.4795 38.4835C59.7432 38.2744 60.0068 38.0863 60.2907 37.8982C60.2907 37.8982 60.311 37.8982 60.311 37.8773C60.6152 37.6682 60.9194 37.4383 61.2236 37.2292C61.4872 37.0411 61.7508 36.853 62.0145 36.6648C62.5215 36.3095 63.0487 35.9959 63.5963 35.7869C64.7928 35.3479 65.4012 34.4282 66.0501 33.5084C66.9221 32.3169 67.713 31.0418 68.4025 29.7249C68.9501 28.7006 70.2277 27.739 69.0515 26.3385Z" fill="#609030"/>
<path d="M56.5596 43.2913C56.5393 43.2913 56.519 43.2495 56.519 43.2286C56.519 43.1867 56.519 43.1449 56.4987 43.1031C56.7624 42.3088 56.6204 41.828 56.2148 41.6817C55.9715 41.5981 55.6267 41.5981 55.2009 41.7235C55.1603 41.7444 55.14 41.7444 55.0995 41.7653C55.7484 44.2737 55.8498 46.9494 55.3225 49.6251L55.4848 49.6669C55.6876 49.1652 55.8701 48.6635 56.0729 48.1618C56.2959 47.5556 56.6204 46.9703 56.6813 46.3432C56.7015 46.2178 56.7218 46.1132 56.7624 45.9878C57.026 45.0681 57.8372 44.1274 56.5596 43.2913Z" fill="#609030"/>
<path d="M39.4029 8.29875C39.6868 8.80044 40.1329 9.28122 40.1938 9.80381C40.3155 10.9953 40.8427 12.145 40.4371 13.3783C40.3763 13.5874 40.5588 13.8591 40.5385 14.1099C40.498 14.7371 40.9644 15.5523 39.991 15.9077C39.8693 15.9495 39.8693 16.3048 39.8287 16.4721C40.2141 16.5766 40.7211 16.5975 40.7413 16.702C40.8427 17.2455 41.005 17.9562 40.7616 18.3325C40.3357 19.0223 40.6399 19.5449 40.8022 20.1511C40.863 20.3392 41.0455 20.5064 41.0861 20.6946C41.1469 21.029 41.2078 21.3426 41.2686 21.677C41.4917 22.764 41.8162 23.8092 42.9315 24.4154C43.2154 24.5826 43.5399 24.7081 43.8441 24.8335C43.9049 24.6453 43.9658 24.4572 44.0266 24.29C44.0875 24.081 44.1483 23.8928 44.1686 23.6838C44.1889 23.5584 44.128 23.4329 44.0672 23.3075C44.0266 23.2448 44.0063 23.1821 43.9861 23.0985C44.1077 23.0985 44.2091 23.1194 44.3308 23.1194C44.3714 22.8267 44.4119 22.5341 44.4728 22.2205C44.5336 21.907 44.5945 21.5725 44.6147 21.259C44.6553 20.7991 44.6553 20.3601 44.4931 19.9211C44.7973 19.524 45.2231 19.2104 45.1826 18.9805C45.1014 18.6042 44.7364 18.2907 44.4525 17.9771C44.1686 17.6636 43.8441 17.3709 43.4994 17.0574C43.8441 16.8274 44.0875 16.6811 44.1483 16.6393C44.1077 14.8625 44.0875 13.2529 44.0672 11.6433C43.8644 11.6015 43.621 11.5597 43.3777 11.5179C43.3777 11.4343 43.3574 11.3716 43.3371 11.288C43.621 11.1834 43.9049 11.0998 44.0875 11.0371C44.1077 10.6609 44.128 10.3264 44.128 10.2637C43.8238 9.63658 43.5399 9.26032 43.4791 8.86315C43.4385 8.67502 43.8238 8.44508 43.9861 8.19424C44.128 7.9852 44.2497 7.73436 44.2903 7.48351C44.5945 5.37225 43.8847 3.44912 43.0735 1.60961C42.4245 0.146358 40.9238 -0.355327 39.6868 0.250876C39.3826 0.397201 39.1595 0.815273 38.977 1.12883C38.8756 1.31696 38.9162 1.58871 38.8553 1.81864C38.612 2.82202 38.105 3.80448 38.1455 4.78695C38.1861 5.79032 38.7134 6.77279 39.0581 7.77616C39.119 7.9643 39.3015 8.11062 39.4029 8.29875Z" fill="#609030"/>
<path d="M26.2416 18.5624C26.2821 18.7088 26.343 18.7924 26.3227 18.876C26.0996 20.611 26.3632 22.2206 27.0527 23.7674C27.1744 24.0392 27.2961 24.29 27.4381 24.5618C27.4583 24.5827 27.4786 24.6036 27.4786 24.6454C27.7017 25.0216 27.9653 25.2725 28.2492 25.5024C28.5534 25.7324 28.8779 25.8996 29.2024 26.1086C29.3241 26.1713 29.4457 26.255 29.5471 26.3386C29.6688 26.4222 30.0338 26.2968 30.1758 26.1504C30.4597 25.8578 30.7436 25.5651 31.0073 25.2516C31.2506 24.9798 31.494 24.729 31.717 24.4572C31.6156 24.3109 31.5142 24.1646 31.4331 24.0392C31.3115 23.8719 31.1898 23.6838 31.0478 23.4957C31.4331 23.4121 31.7576 23.3285 32.0415 23.2657C32.1024 23.0358 32.1226 22.8268 32.1429 22.6177C32.1632 22.2833 32.1429 21.9488 32.0821 21.6144C32.001 21.1754 31.8387 20.7573 31.5954 20.3392C31.4331 20.0884 31.2912 19.7748 31.2506 19.4822C31.1289 18.667 30.5611 18.3952 29.9324 18.1653C29.6485 18.0608 29.2835 18.0608 29.101 17.8726C28.959 17.7263 28.959 17.35 29.0199 17.0992C29.0807 16.8902 29.3241 16.7438 29.4863 16.5557C29.2429 16.3676 29.0199 16.2003 28.7359 15.9704C28.7359 15.845 28.7562 15.6568 28.7359 15.4896C28.6143 13.5456 28.7562 11.4761 26.7283 10.5146C26.8094 9.88746 27.0325 9.30216 26.9311 8.80047C26.7891 8.13156 26.4038 7.50445 26.0996 6.85644C25.6737 5.95758 25.4912 5.03783 25.7346 4.07626C25.4507 3.84632 25.2073 3.63729 24.9437 3.44916C24.1122 2.82205 23.6863 2.88476 22.8346 3.57458C22.6318 3.74181 22.2262 3.7209 21.9423 3.6791C20.7053 3.51187 19.5899 4.15988 19.5696 5.18415C19.5493 5.93668 19.6102 6.75192 19.8941 7.44174C20.4011 8.69595 21.0906 9.86655 21.7192 11.0581C21.7801 11.1835 22.0234 11.2044 22.1654 11.3089C22.2871 11.3925 22.4493 11.497 22.4899 11.6225C22.794 12.3959 23.0171 13.1902 23.3416 13.9637C23.8689 15.2597 24.4772 16.5348 24.9842 17.8308C25.2479 18.4997 25.5926 18.7924 26.2416 18.5624Z" fill="#609030"/>
<path d="M10.5858 22.8268C10.7683 23.6002 11.8634 24.1228 12.5529 24.7708C13.1816 25.3561 13.9522 25.8578 14.3781 26.5894C15.3312 28.199 16.548 29.5368 17.9067 30.791C18.1704 31.0419 18.4543 31.2718 18.7382 31.5017C18.9816 31.7108 19.2249 31.9198 19.4683 32.1288C19.6913 32.317 19.9347 32.526 20.1578 32.7141C20.1983 32.756 20.2592 32.8187 20.2997 32.8605C20.5431 33.0695 20.7662 33.2994 20.9892 33.5294C21.2123 33.7384 21.4151 33.9475 21.6382 34.1774C21.6585 34.1565 21.6787 34.1356 21.6787 34.1147C21.9018 33.8011 22.0843 33.5503 22.2466 33.3204C22.3682 33.1322 22.4899 32.965 22.6116 32.7978C21.7801 32.1916 21.7801 31.9825 22.3277 30.8119C22.348 30.7701 22.3682 30.7283 22.3682 30.6865C22.4696 30.4566 22.5508 30.1848 22.5913 29.934C22.6319 29.704 22.6319 29.495 22.5508 29.3696C22.4088 29.1814 22.2871 28.9724 22.1452 28.7843C21.9626 28.5125 21.7801 28.2617 21.5773 27.9899C20.9081 27.112 20.1172 26.3595 18.9207 26.1713C18.6165 25.6487 18.2515 25.1889 17.8256 24.7917C17.0347 24.0183 16.2844 23.1821 15.4124 22.5132C14.9662 22.1787 14.804 21.9279 14.9662 21.4262C15.027 21.2381 15.027 21.0291 15.0676 20.7991C13.8914 20.6737 12.4921 21.1336 12.1474 19.4195C12.6543 18.9387 12.9383 19.315 13.2627 19.6494C13.5466 19.9421 13.8711 20.1511 14.1956 20.4019C14.2361 19.6703 14.2564 19.085 14.297 18.4579C14.0536 18.1235 13.7292 17.6636 13.2424 17.0156C13.3236 15.0297 13.3844 15.3642 11.6809 14.5698C11.5795 14.528 11.4376 14.4862 11.3565 14.4235C10.6872 13.7337 9.9166 13.9218 9.06486 14.11C9.18654 14.5489 9.26766 14.9461 9.38934 15.3015C9.47045 15.5314 9.61241 15.7404 9.71381 15.9495C9.47045 16.0122 9.24738 16.0958 9.00402 16.1167C7.50334 16.2421 7.5439 16.3257 8.05089 17.6845C8.69983 19.4822 10.1194 20.8618 10.5858 22.8268Z" fill="#609030"/>
<path d="M22.9765 41.6817C22.8142 41.6817 22.652 41.7026 22.4695 41.7026C22.4289 42.2252 22.145 42.5388 21.6177 42.6433C21.5772 42.6433 21.5366 42.6433 21.4961 42.6642C21.4149 42.6642 21.3541 42.6851 21.2527 42.6851C21.0702 42.6851 20.8877 42.9778 20.7052 43.145C20.4821 43.3749 20.2387 43.584 19.9751 43.8348C19.7926 43.6049 19.6303 43.3958 19.4681 43.1868C19.2856 42.9569 19.1031 42.7478 18.9003 42.5597C18.8394 42.497 18.7178 42.4761 18.6164 42.4761C18.4541 42.4761 18.2919 42.497 18.1702 42.5597C17.9269 42.6851 17.7646 42.9778 17.5618 43.1868C17.501 43.1659 17.4401 43.145 17.3793 43.145C17.3388 43.145 17.3185 43.1241 17.2779 43.1241C17.3388 42.7478 17.3996 42.3716 17.4807 41.8908C17.3185 41.7654 17.0954 41.4727 16.8115 41.3264C16.7912 41.3055 16.7506 41.3055 16.7304 41.2846C16.3856 41.1173 16.0611 40.9501 15.7164 40.7829C15.4325 40.6366 15.1486 40.4902 14.8444 40.3439C14.3374 40.0931 13.8304 39.8422 13.3234 39.6123C12.2486 39.1106 11.1535 38.6925 10.0584 38.2118C9.69337 38.0445 9.30806 37.6055 8.98359 37.6683C8.15213 37.8146 7.52346 37.8773 6.95563 37.0202C6.50948 36.3513 5.71858 35.9333 5.19131 35.3062C4.72489 34.7418 4.2179 34.5118 3.52839 34.5118C3.36616 34.5118 3.18364 34.3864 3.02141 34.3028C3.16336 34.1774 3.30532 34.0519 3.34588 34.0101C2.85917 33.6548 2.35218 33.2994 1.84519 32.965C1.78435 32.9231 1.6424 32.9022 1.58156 32.9441C1.09485 33.3203 0.527023 33.613 0.182271 34.0937C-0.20304 34.6372 -0.223319 35.3062 0.364787 35.8496C1.541 36.9575 2.67665 38.1072 3.85287 39.1942C4.17734 39.4869 4.62349 39.6332 5.02908 39.8004C5.51579 39.9886 6.28641 39.9676 6.4892 40.3021C7.25983 41.619 8.578 41.8281 9.75421 42.3088C10.6262 42.6642 11.5996 42.7269 12.4919 43.0405C13.1003 43.2495 13.6682 43.584 14.2765 43.8557C14.4996 43.9602 14.743 44.0647 14.9863 44.1484C15.0674 44.1693 15.1283 44.1902 15.1891 44.232C15.7569 44.441 16.2031 44.6919 16.4262 45.3608C16.5073 45.6116 16.9332 45.737 17.2171 45.9252C17.2576 45.8625 17.2779 45.8206 17.3185 45.7788C17.2374 45.5907 17.1562 45.4235 17.0346 45.1308C17.4807 45.1935 17.8863 45.2562 18.3122 45.319C18.5555 45.3608 18.7989 45.3817 19.0625 45.4235C19.2653 46.5314 18.6975 48.0155 20.117 48.7471C20.1576 48.768 20.1982 48.7889 20.259 48.8099C20.2793 48.8099 20.2793 48.8726 20.2996 48.8935C20.401 49.0816 20.5226 49.2906 20.624 49.4788C21.1107 50.3776 21.5975 51.2765 22.1044 52.1544C22.1247 52.1753 22.1856 52.1753 22.2667 52.1544C22.4492 52.1335 22.7331 52.029 22.9359 51.9454C23.017 51.9036 23.0576 51.82 23.0981 51.6736C23.159 51.6736 23.159 51.5273 23.2198 51.5273C23.1995 51.4855 23.1793 51.4437 23.1793 51.4019C22.2261 48.35 22.1044 45.0054 22.9765 41.6817Z" fill="#609030"/>
<path d="M32.7917 44.441C32.7309 44.6919 32.67 44.9427 32.6295 45.1936C32.67 44.9427 32.7309 44.6919 32.7917 44.441Z" fill="#609030"/>
</g>
<defs>
<clipPath id="clip0">
<rect width="74" height="93" fill="white"/>
</clipPath>
</defs>
</svg>
