<svg width="48" height="46" viewBox="0 0 48 46" fill="none" xmlns="http://www.w3.org/2000/svg">
<path d="M28 21C29.1 19.1 33 16.6 40.7 18.1C40.4 20.3 38.6 25.7 37.8 29.7C37.2 26.1 30 26.4 27.6 26.8" stroke="url(#paint0_linear)" stroke-width="2" stroke-miterlimit="10" stroke-linecap="round" stroke-linejoin="round"/>
<path d="M37.8 29.8C37.5 31 35.3 31.3 34.2 31.3C32.6 31.3 30.6 30.6 30.6 30.6" stroke="url(#paint1_linear)" stroke-width="2" stroke-miterlimit="10" stroke-linecap="round"/>
<path d="M20.3 19.6C18 17.3 12.8 16 7.20001 18.2C8.60001 21.5 10.2 25.1 10.2 29.8C10.8 27.8 13.2 26.8 15.3 26.8C17.4 26.8 20.4 27.5 20.4 27.5" stroke="url(#paint2_linear)" stroke-width="2" stroke-miterlimit="10" stroke-linecap="round" stroke-linejoin="round"/>
<path d="M10.2 29.9C10.5 31.1 11.9 31.7 13.8 31.3C15.4 30.9 16.7 30.6 16.7 30.6" stroke="url(#paint3_linear)" stroke-width="2" stroke-miterlimit="10" stroke-linecap="round"/>
<path d="M26.9 28.3C26 29.4 22.4 29.3 20.4 28.3C21.4 26.2 21.7 21.4 20.4 19.5C21.5 17.3 27.4 17.2 27.7 20.3C27.9 23.5 27.8 27.1 26.9 28.3Z" stroke="url(#paint4_linear)" stroke-width="2" stroke-miterlimit="10" stroke-linecap="round" stroke-linejoin="round"/>
<path d="M20 31C19.6 34.9 17.8 36.8 16 40.1C19.1 41.3 23 41.2 26.2 40.8C26.2 37.8 25.5 33.7 25 32" stroke="url(#paint5_linear)" stroke-width="2" stroke-miterlimit="10" stroke-linecap="round" stroke-linejoin="round"/>
<path d="M28 31C27.9 33.8 30.9 38.4 33.4 40.8C31.1 42.6 26.1 44.7 24 45C23.4 44 23.1 42.9 23 42" stroke="url(#paint6_linear)" stroke-width="2" stroke-miterlimit="10" stroke-linecap="round" stroke-linejoin="round"/>
<path d="M7 28H1V1H47V28H41" stroke="url(#paint7_linear)" stroke-width="2" stroke-miterlimit="10" stroke-linecap="round" stroke-linejoin="round"/>
<path d="M7 7H14" stroke="url(#paint8_linear)" stroke-width="2" stroke-miterlimit="10" stroke-linecap="round" stroke-linejoin="round"/>
<path d="M7 11H19" stroke="url(#paint9_linear)" stroke-width="2" stroke-miterlimit="10" stroke-linecap="round" stroke-linejoin="round"/>
<defs>
<linearGradient id="paint0_linear" x1="27.6" y1="17.6454" x2="43.0456" y2="23.9853" gradientUnits="userSpaceOnUse">
<stop stop-color="#FDCE7D"/>
<stop offset="0.479167" stop-color="#AF7039"/>
<stop offset="0.552083" stop-color="#AF7039"/>
<stop offset="1" stop-color="#FDCE7D"/>
</linearGradient>
<linearGradient id="paint1_linear" x1="30.6" y1="29.8005" x2="32.9127" y2="33.9949" gradientUnits="userSpaceOnUse">
<stop stop-color="#FDCE7D"/>
<stop offset="0.479167" stop-color="#AF7039"/>
<stop offset="0.552083" stop-color="#AF7039"/>
<stop offset="1" stop-color="#FDCE7D"/>
</linearGradient>
<linearGradient id="paint2_linear" x1="7.20001" y1="17.0723" x2="22.9664" y2="23.2484" gradientUnits="userSpaceOnUse">
<stop stop-color="#FDCE7D"/>
<stop offset="0.479167" stop-color="#AF7039"/>
<stop offset="0.552083" stop-color="#AF7039"/>
<stop offset="1" stop-color="#FDCE7D"/>
</linearGradient>
<linearGradient id="paint3_linear" x1="10.2" y1="29.9005" x2="12.6883" y2="33.9119" gradientUnits="userSpaceOnUse">
<stop stop-color="#FDCE7D"/>
<stop offset="0.479167" stop-color="#AF7039"/>
<stop offset="0.552083" stop-color="#AF7039"/>
<stop offset="1" stop-color="#FDCE7D"/>
</linearGradient>
<linearGradient id="paint4_linear" x1="20.4" y1="17.9075" x2="29.98" y2="20.298" gradientUnits="userSpaceOnUse">
<stop stop-color="#FDCE7D"/>
<stop offset="0.479167" stop-color="#AF7039"/>
<stop offset="0.552083" stop-color="#AF7039"/>
<stop offset="1" stop-color="#FDCE7D"/>
</linearGradient>
<linearGradient id="paint5_linear" x1="16" y1="31.0033" x2="28.258" y2="35.6936" gradientUnits="userSpaceOnUse">
<stop stop-color="#FDCE7D"/>
<stop offset="0.479167" stop-color="#AF7039"/>
<stop offset="0.552083" stop-color="#AF7039"/>
<stop offset="1" stop-color="#FDCE7D"/>
</linearGradient>
<linearGradient id="paint6_linear" x1="23" y1="31.0046" x2="36.2818" y2="34.7325" gradientUnits="userSpaceOnUse">
<stop stop-color="#FDCE7D"/>
<stop offset="0.479167" stop-color="#AF7039"/>
<stop offset="0.552083" stop-color="#AF7039"/>
<stop offset="1" stop-color="#FDCE7D"/>
</linearGradient>
<linearGradient id="paint7_linear" x1="0.999999" y1="1.00886" x2="45.8078" y2="29.8521" gradientUnits="userSpaceOnUse">
<stop stop-color="#FDCE7D"/>
<stop offset="0.479167" stop-color="#AF7039"/>
<stop offset="0.552083" stop-color="#AF7039"/>
<stop offset="1" stop-color="#FDCE7D"/>
</linearGradient>
<linearGradient id="paint8_linear" x1="7" y1="7.00033" x2="8.20624" y2="10.1906" gradientUnits="userSpaceOnUse">
<stop stop-color="#FDCE7D"/>
<stop offset="0.479167" stop-color="#AF7039"/>
<stop offset="0.552083" stop-color="#AF7039"/>
<stop offset="1" stop-color="#FDCE7D"/>
</linearGradient>
<linearGradient id="paint9_linear" x1="7" y1="11.0003" x2="7.76693" y2="14.4775" gradientUnits="userSpaceOnUse">
<stop stop-color="#FDCE7D"/>
<stop offset="0.479167" stop-color="#AF7039"/>
<stop offset="0.552083" stop-color="#AF7039"/>
<stop offset="1" stop-color="#FDCE7D"/>
</linearGradient>
</defs>
</svg>
